/* XPM */
static char *dccc762701fa4495e6a8e6c4ed3f31e822r7GLzSDlEgJDNr[] = {
/* columns rows colors chars-per-pixel */
"72 72 248 2 ",
"   c None",
".  c #0B0406",
"X  c #140B04",
"o  c #160B0B",
"O  c #1B0D0C",
"+  c #180809",
"@  c #1D130C",
"#  c #1C1A0C",
"$  c #181509",
"%  c #0B0714",
"&  c #140614",
"*  c #120B15",
"=  c #1B0D16",
"-  c #130A18",
";  c #1A0D19",
":  c #18061A",
">  c #0D1816",
",  c #1E1412",
"<  c #151C11",
"1  c #1C1A13",
"2  c #1D131B",
"3  c #1D1B1A",
"4  c #141516",
"5  c #0E1708",
"6  c #21150C",
"7  c #251B0D",
"8  c #271807",
"9  c #240C1B",
"0  c #221614",
"q  c #2A1514",
"w  c #241916",
"e  c #2A1B15",
"r  c #25161A",
"t  c #2B151C",
"y  c #251A1B",
"u  c #2A1C1B",
"i  c #341917",
"p  c #32110A",
"a  c #1B2115",
"s  c #16220E",
"d  c #25240B",
"f  c #372C0E",
"g  c #2B211D",
"h  c #262217",
"j  c #362617",
"k  c #3D320D",
"l  c #170625",
"z  c #1B1624",
"x  c #040020",
"c  c #220C26",
"v  c #231523",
"b  c #291A23",
"n  c #351225",
"m  c #272121",
"M  c #2C2422",
"N  c #2D2626",
"B  c #312925",
"V  c #332827",
"C  c #3D3532",
"Z  c #3B3639",
"A  c #3A352D",
"S  c #54101D",
"D  c #5B131D",
"F  c #4C151A",
"G  c #493C0C",
"H  c #493B0E",
"J  c #531421",
"K  c #721025",
"L  c #4A2627",
"P  c #483C3A",
"I  c #4E312E",
"U  c #4C430C",
"Y  c #4D4312",
"T  c #4A4515",
"R  c #534516",
"E  c #534B0F",
"W  c #756B09",
"Q  c #726D0C",
"!  c #4B413D",
"~  c #49443C",
"^  c #6B5B2B",
"/  c #383D40",
"(  c #4A3E4C",
")  c #4C4547",
"_  c #565458",
"`  c #524D54",
"'  c #7C7C7A",
"]  c #625D58",
"[  c #900C2D",
"{  c #AB0731",
"}  c #B20634",
"|  c #B70736",
" . c #A6072F",
".. c #DD033D",
"X. c #D70539",
"o. c #CA0437",
"O. c #E30435",
"+. c #E4023D",
"@. c #EA013E",
"#. c #E50935",
"$. c #EB163C",
"%. c #E81838",
"&. c #F4073D",
"*. c #DA2333",
"=. c #ED372A",
"-. c #867815",
";. c #826C09",
":. c #9F6031",
">. c #EF6E1A",
",. c #F16F23",
"<. c #FC6629",
"1. c #F17224",
"2. c #EF7024",
"3. c #9B3E48",
"4. c #DD0341",
"5. c #DA0644",
"6. c #CA0642",
"7. c #E60141",
"8. c #EA0142",
"9. c #EA0148",
"0. c #E50449",
"q. c #F20143",
"w. c #FA0044",
"e. c #F50349",
"r. c #EA0F4A",
"t. c #D33645",
"y. c #E5274B",
"u. c #E9264C",
"i. c #E62749",
"p. c #EA3A55",
"a. c #F4364D",
"s. c #EC3C62",
"d. c #B64E54",
"f. c #837D6F",
"g. c #926346",
"h. c #CA5657",
"j. c #C85659",
"k. c #CE4E55",
"l. c #EA4D5B",
"z. c #E7565C",
"x. c #F55157",
"c. c #E5665A",
"v. c #F2635D",
"b. c #DB5A65",
"n. c #D1546F",
"m. c #E94D63",
"M. c #E65F65",
"N. c #E45B6B",
"B. c #EA5A6C",
"V. c #E95868",
"C. c #F35668",
"Z. c #EA5774",
"A. c #F54E6F",
"S. c #E46365",
"D. c #EB6264",
"F. c #EB646B",
"G. c #EB696A",
"H. c #E66869",
"J. c #F26665",
"K. c #F56869",
"L. c #ED6875",
"P. c #F26673",
"I. c #EE726A",
"U. c #D46B5E",
"Y. c #7E817E",
"T. c #9C9A06",
"R. c #948C0D",
"E. c #AA9B05",
"W. c #A59C0B",
"Q. c #A59C06",
"!. c #B3951C",
"~. c #BDB509",
"^. c #BAB704",
"/. c #ADA90C",
"(. c #9CA410",
"). c #F38D17",
"_. c #C1B707",
"`. c #C6B904",
"'. c #C1AB0C",
"]. c #ED993A",
"[. c #F2953D",
"{. c #F29333",
"}. c #F3BA22",
"|. c #FAB727",
" X c #F3AC35",
".X c #EBB41B",
"XX c #DACC01",
"oX c #D5CD03",
"OX c #D9D303",
"+X c #D9D212",
"@X c #EFD20E",
"#X c #EAE505",
"$X c #FCE604",
"%X c #F4EC01",
"&X c #FCEC01",
"*X c #FBE60A",
"=X c #FDEB0A",
"-X c #F3E806",
";X c #F5F401",
":X c #FDF302",
">X c #F5FA02",
",X c #FEFD02",
"<X c #FDF30B",
"1X c #FCFD0B",
"2X c #F6F60B",
"3X c #FBE914",
"4X c #F3F60D",
"5X c #DDE000",
"6X c #87877B",
"7X c #F69843",
"8X c #ED9347",
"9X c #EF6380",
"0X c #7F8185",
"qX c #8C8B8A",
"wX c #878884",
"eX c #918D89",
"rX c #989897",
"tX c #908C90",
"yX c #9DA2A2",
"uX c #ABA7A4",
"iX c #A9A8A5",
"pX c #A9A6A6",
"aX c #BBB9B7",
"sX c #B3B0AD",
"dX c #9E9E9D",
"fX c #C3BEBE",
"gX c #BFC1BE",
"hX c #BFBCC3",
"jX c #C1BFC4",
"kX c #C4C3C4",
"lX c #CBC9CA",
"zX c #C8C5C7",
"xX c #D2CDCC",
"cX c #CECED2",
"vX c #D4D4D5",
"bX c #D6D5DA",
"nX c #DDDCDC",
"mX c #D7D9D8",
"MX c #D3D5CE",
"NX c #DCE3DA",
"BX c #E1E1DA",
"VX c #DFDDE1",
"CX c #E0DEE2",
"ZX c #DFE2E4",
"AX c #E3E3E4",
"SX c #E5E3EA",
"DX c #E9E9EB",
"FX c #EBEBF8",
/* pixels */
"                                                                                                                                                ",
"                                                                                                                                                ",
"                                                                                                                                                ",
"                                                                                                                                                ",
"                                                                                                    aXaXaXaX                                    ",
"                            M 0 g y M M g g M M M M m m m M m u m m m m m m m M u m m m m M m u N u M u u g y P                                 ",
"                            o u 0 , 0 0 , , , , , , , , 0 0 0 , , , 0 0 0 , , , , 0 0 , , , , , 0 , 0 w 0 0 @ P                                 ",
"                            , w w 0 0 w 0 w y y w w w w e w w w w w 0 0 0 w w w 0 w w 0 0 w w w 0 e y 0 0 w @ P kX                              ",
"                          sXp 1 2 u 3 y t , r y 0 w w w 0 0 0 0 0 0 0 0 0 0 0 0 0 0 0 0 0 0 0 0 r 0 w 0 v t 6 / cXxX                            ",
"                    B P P ! j.j.j.h.j.h.h.j.h.j.h.h.h.h.h.h.h.h.h.h.h.h.h.h.h.h.h.h.h.h.h.h.h.h.j.j.h.h.j.h.h.d.A Z A ~                         ",
"                    $ u . L P.v.K.K.J.J.J.G.J.J.J.J.J.J.J.J.J.J.J.J.J.J.J.J.J.J.J.J.J.J.J.J.J.J.J.G.D.K.G.J.K.j., $ @ b                         ",
"                    X 7 3 L v.D.z.M.D.D.M.S.M.D.M.M.M.M.M.M.M.M.M.M.M.M.M.M.M.M.M.M.M.M.M.M.M.M.S.M.M.F.S.z.P.d.# b w V lX                      ",
"                  wX. + : L P.c.H.H.F.L.F.P.F.P.F.F.F.F.F.F.F.F.F.F.F.F.F.F.F.F.F.F.F.F.F.F.F.F.F.F.L.F.F.K.L.d.* = : v vXNX                    ",
"              ] ` ^ ~.'./.!.B.J.v.C.y.y.i.u.y.u.y.y.y.y.y.y.y.y.u.u.u.u.u.u.u.u.y.y.y.y.y.y.y.y.u.i.u.y.i.u.y.t././././._ _ ] _                 ",
"            . @ % W ,X:X,X3XL.c.K.C.r.+.+.@...7.7.7.7.7.7.7.7.7.7.7.7.7.7.7.7.7.7.7.7.7.7.7.7.7.8.+.8.8.+.7.+.a.,X,X,X5X8 * X X                 ",
"            , g 9 ;.,X-X&X@XV.P.c.V.5.7.@.@...7.8.8.8.8.8.8.8.8.7.7.7.7.7.7.7.7.8.8.8.8.8.8.8.8.8.+.8.8.+.9.X.=.<X$X=X#Xj u j q sX              ",
"          ] & ; % Q ,X4X,X3XL.c.H.H.O.@.9.4.8.+.7.7.7.7.7.7.7.7.+.+.@.@.@.@.@.@...+.+...+.+.+.q.7.+.+.8.9...#.a.1X>X,X-X4 - = . sX              ",
"  dXf.' tXg.W R.Q !.}. X|.{.p.p.p.p.@.7.7.4.7.0.7.7.7.7.7.7.7.7.7.7.7.7.7.7.7.7.8.q.q.8.8.@.7.7.8.+.+.7.8.+.O.$.).).).).-.Q -.-.f.0X6X          ",
"  C . o . T.,X>X,X XB.Z.C.m.@.9.+.8.+.0.e.9.@.@.8.8.8.8.8.8.8.8.0.0.7.7.7.7.7.7.7.7.8.7.7.8.8.4.8.8.@.+.7.8.+.#.5.7.+.*.3X1X>X,Xk . @ .         ",
"BXP 6 g c W.:X3X;X|.V.J.D.m.O.0.4.8.8.+.@.+.7.4.+.+.+.+.+.+.+.+.7.7.+.+.+.+.+.+.4.+.+.@.+.8.8.+.8.+.@.+.8.8.7.+...9.8.r.$X%X%X=XR , u = eXZXzXrX",
"  ( = e l W.,X3X1X|.N.S.H.N.X.+.4.9.8.8.+.@.q.8.9.8.8.8.8.8.8.q.q.w.w.w.w.w.w.w.e.q.e.e.8.8.8.e.7.+.+.+.7.8.7.7.8.8.8.r.*X:X:X<XR = u = eXVXkXrX",
"NX) O d & T.,X%X>X|.M.F.F.l.@.w.7.0.@.+.X.+.o.{ } } } } } } } } } } } } } } } } {  .} { { {  ...8.+.7.7.+.7.7.7.9...5.%.&X:X:X:XR ; b + 6XSXjX  ",
"  ) + w l Q.,X%X,X}.N.S.P.x.@.8.4.+.@.8.0.5.F 5 1 1 1 1 1 1 1 1 < < < < < < < < 1 < 0 1 q 0 1 [ 8.+.7.7.+.+.+.+.@.O.7.%.&X:X<X:XG - N O 6XDXhX  ",
"  P 6 g l T.,X=X,X|.Z.D.D.l...5.+.+.8.5.7.9.F a w w w w w y y w r 0 0 r r r r r t 3 t 3 t , < [ q.@.8.8.+.@.+.+.0.0.7.$.-X:X&X&XE 4 u + 6XAXkX  ",
"  ) o e & W.,X&X,X}.V.K.U.m.8.9.@.@.O.+.9.w.F 2 0 e @ z y 1 2 , 2 2 r r r r r r 0 2 9 < q r a [ q.q.8.8.8.8.8.e.4.7.q.$.=X>X<X<XT , r X eXSXaX  ",
"  ~ @ u * R.#X5X#X.Xb.b.h.k.X.o.X.5.o.6.o.o.F , d ; j H j j j k f f f f f f f f k f G h @ e = K 5.5.5.X.X.X.5.5.X.o.X.*.XX-X#X#XT ; b X eXFXaXrX",
"  ) X 7 3 i j e M e t e m n n 7 0 n i p q i , t v c R.;X%X=X$X-X%X%X%X%X$X$X$X$X-X<X=XT z 0 r q i q q q q q q i r e u n d e e h y 7 w = qXBXkXpX",
"  P @ t 3 0 , 0 @ q e y # $ w a 0 a $ @ v 3 y # h : T.,X&X=X:X:X<X:X:X:X:X<X<X<X<X<X<XR * 8 q 3 w w w y w 0 0 y w w < 0 0 t 0 # 0 r u X tXAXkX  ",
"  ! @ t 3 r 0 y a 0 7 z v 0 y 8 0 1 b q t w 0 t 1 & T.,X&X&X:X:X&X&X&X&X&X&X&X&X<X&X,XE : w 7 w 1 1 3 3 1 1 , 0 1 u z w v q 0 v 0 y u X tXDXkX  ",
"  ) X e 2 t q q 0 9 6 v 1 1 v v 9 7 , 0 b a , 8 u 9 T.1X3X&X:X:X:X:X:X:X:X<X:X<X&X&X,XG 9 d 4 b e 0 r r 0 q q q 0 q 6 @ b v 0 y 0 7 r = qXBXkX  ",
"  P @ V - R.OXoXOXOXXX+XXXoXXXXX+XoXoXOXXXXXU c h - T.,X-X:X<X2X:X:X:X:X:X:X:X:X,X&X-XR l w = R.OXXXXXXXXXXXXXXXOXoXXXXXOXoXXXXXH : b X qXFXsX  ",
"  ( & e & W.,X<X:X1X:X<X,X1X<X>X,X<X>X1X:X,XT 9 e l W.,X%X:X:X&X:X:X:X:X:X:X&X&X&X<X<XH > d : E.,X,X:X<X1X,X,X<X,X;X,X,X,X2X,X1XT = b o wXSXaX  ",
"  ! O u * Q.,X&X*X=X:X%X2X%X=X&X;X&X;X$X=X1XU c d l T.>X&X=X2X:X:X:X=X<X:X:X=X$X*X&X<XR > i : (.<X%X&X=X=X%X&X;X=X;X&X:X%X&X&X:XU = e X qXDXaX  ",
"  ! O u * W.,X&X;X:X=X,X,X,X,X,X:X,X,X,X:X<XE : e + Q.,X,X,X1X&X<X&X<X:X:X=X&X,X1X,X1XE * g % (.,X:X:X,X,X:X,X,X:X,X,X&X,X<X=X<XU 2 g + wX  aX0X",
"  ! O u * W.,X&X<X@X8X7X[.[.[.].8X7X[.7X8X7XI + e 4 E Q Q W Q.,X:X:X:X%X:X3X#XW Q W Q j 0 a = :.7X[.[.7X7X[.7X7X].[.[.].&X;X&X:XY = u X qX  uX_ ",
"  ! O u - W.,X&X,X|.n.Z.Z.Z.M.b.N.M.V.N.B.C.L s t z z - z % E ,X<X&X:X:X:X&X#X0 % : - v e # y 3.P.Z.B.B.B.B.Z.Z.V.B.Z.G.$X,X:X<XT ; e X wX  uX  ",
"  ! O u - W.,X&X>X}.Z.J.D.F.S.H.c.S.P.S.v.v.L 4 r 7 y b e = Q ,X*X%X:X&X&X=X#Xe e q u w 0 n , 3.K.D.S.S.S.S.S.S.S.c.S.I.$X:X&X:XR ; r o qX  uX` ",
"  ! O u * W.,X&X,X|.Z.v.c.D.D.P.H.L.L.S.I.I.I > 1 6 1 g 8 + Q 2X;X,X,X,X,X,X#Xf 0 0 h # > z 5 :.K.F.F.G.G.G.G.G.L.c.S.I.%X<X=X:XR - r O qX  uX_ ",
"  ! O u * W.,X&X>X}.N.c.H.z.p.p.p.a.a.u.p.s.[ K K K i < w 9 R T.R.R.R.T.R.R.R.e r r o D K D K t.p.p.p.p.p.p.p.p.p.a.p.x.&X:X=X:XY ; u O wX  sXqX",
"  ! O u * Q.,X&X1X}.B.D.9Xl.X.@...O.5.0.O.&.O.w.&.e.K z 0 w , o * = : . - l & 0 r y 3 6.w.8.e...8.@.@.8.8.8.@.@...O.7.%.*X;X&X:XY ; u O Y.  aXyX",
"  ~ O y * E.,X%X,X}.B.D.G.m.8.7.7.7.7.7.7.7.7.7...e.D < i y 3 t u y y y y y y y t q < | 8.+.+.+.+.+.+.+.7.7.+.+.8.+.7.$.*X:X&X:XY ; u o 6X  aX  ",
"AX~ O r * E.,X%X,X}.N.M.F.m.8.7.7.7.7.7.7.7.7.7.q.e.D 5 1 > < 0 1 1 1 1 1 1 1 1 > < # | q.8.7.8.+.+.+.7.7.7.+.+.8.+.7.$.*X:X&X:XY 2 u X ' cXsXrX",
"VX~ O u * E.,X&X,X}.N.M.F.m.@.+.7.7.7.7.7.7.7.7...8.[ S D F J J S S S S S S S S S J D o.7.7.7.8.+.+.+.7.7.7.+.+.8.+.7.%.*X:X&X:XH = r O qXCXlXaX",
"VX~ O u * E.,X&X,X}.N.D.F.m.@.+.7.7.7.7.7.7.7.7.+.w.8.7.q.8.q.8.8.9.9.9.8.8.8.8.e.9...e.7.8.4.7.+.+.7.7.7.7.+.+.8.+.7.%.$X:X:X:XU ; e O qXSXxX  ",
"VX~ O u * E.,X&X,X}.B.D.F.l.@.+.7.7.7.7.7.7.7.7.+.@.8.8.7.+.8.7.+.+.+.+.+.+.8.8...+.+.7...@.7.8.+.+.7.7.7.7.+.+.8.+.7.%.$X:X:X:XY 2 w O qXVXxX  ",
"AX~ O u * E.,X&X,X}.B.D.G.l.@.+.7.7.7.7.7.7.7.7.7.7.7.7...+.8.8.7.7.7.7.7.7.8.8.8.8.q.q.8.7...+.7.7.7.7.7.7.+.+.8.+.7.%.=X:X:X:XU ; w O qXSXxX  ",
"  ~ O y * E.,X&X,X}.B.D.G.l.@.+.7.7.7.7.7.7.7.7.8.+.7.7.8.8.7.4.+.+.+.8.8.8.8.8.+.+.7.7.7.4.7.@.7.7.7.7.7.7.+.+.7.+.7.%.=X:X:X:XU ; r o qXSXlX  ",
"  ~ O y * E.,X&X,X}.B.D.G.l.@.+.7.7.7.7.7.7.7.7.8.7.7.7.@.8.+.+.7.7.7.+.7.7.7.7.7.8.7.+.8.+.@.@.7.7.7.7.7.7.+.+.7.+.7.%.=X:X&X:XU ; u O wXSXfXrX",
"  ~ O y * E.,X&X,X}.B.S.H.l.+.7.7.7.7.7.7.7.7.7.7.7.7.7.7.7.7.7.7.7.7.7.7.7.7.7.8.8.8.8.8.8.8.8.7.7.7.7.7.7.7.7.7.7.+.$.&X:X:X:XY = g o qXSXgXrX",
"  ~ O y * E.,X&X,X}.B.S.H.l.+.7.7.7.7.7.7.7.7.7.7.7.7.7.7.7.7.7.7.7.7.7.7.7.7.7.7.7.7.7.7.7.7.7.7.7.7.7.7.7.7.7.7.7.+.$.&X:X&X:XY = e X qXSXgX  ",
"  ~ O y * E.,X&X,X}.B.D.H.l.+.7.7.7.7.7.7.7.7.7.7.7.7.7.7.7.7.7.7.7.7.7.7.7.7.7.7.7.7.7.7.7.7.7.8.8.8.8.8.8.8.8.7.7.+.$.&X:X&X:XT = w X qXSXgX  ",
"  ~ O y * E.,X&X,X}.B.D.G.l.@.8.7.7.7.7.7.7.7.7.7.7.7.7.7.7.7.7.7.7.7.7.7.7.7.7.7.7.7.7.7.7.7.7.7.7.7.7.7.7.7.7.7.7.+.$.&X:X&X<XT = e o qXSX    ",
"  ~ O y * E.,X&X,X}.B.D.G.l.+.8.7.7.7.7.7.7.7.7.7.7.7.7.7.7.7.7.7.7.7.7.7.7.7.7.7.7.+.+.7.7.+.7.7.7.7.7.7.7.7.7.+.7.+.$.$X:X:X<XY = u o qXSX    ",
"  ~ O u * E.,X&X,X}.B.D.G.l.7.7.7.7.7.7.7.7.7.7.7.7.7.7.7.7.7.7.7.7.7.7.7.7.7.7.7.7.7.7.7.7.7.7.7.7.7.7.7.7.7.7.+.7.+.$.$X:X&X<XY = e X wXSXgX  ",
"  ~ O u * E.,X&X,X}.B.S.H.m.7.7.7.7.7.7.7.7.7.7.7.7.7.7.7.7.7.7.7.7.7.7.7.7.7.7.7.7.7.7.7.7.7.7.8.8.8.8.8.8.8.8.+.7.+.$.$X:X&X<XY = e X wXSXaXrX",
"  ~ O u * E.,X&X,X}.B.S.H.m.7.7.7.7.7.7.7.7.7.7.7.7.7.7.7.7.7.7.7.7.7.7.7.7.7.7.8.8.8.8.8.8.8.8.8.8.8.8.8.8.8.8.+.7.+.$.$X:X&X:XY = u X qXSXaXwX",
"  P @ y & Q.,X%X>X|.B.J.H.l...0.7.7.7.7.7.7.7.7.7.7.7.7.7.7.7.7.7.7.7.7.7.7.7.7.7.7.7.7.7.7.7.7.7.7.7.7.7.7.7.7.7.0.7.%.3X<X&X:XY = e X qXSXaXwX",
"  P O u : W.,X%X,X|.Z.F.L.x.#.+.#.#.#.#.#.#.+.+.#.+.+.+.#.#.#.#.#.#.#.#.+.+.#.#.#.#.#.#.#.#.+.+.O.O.O.O.#.#.#.#.O.@.@.%.$X>X;X:XY ; e X qXSXaXY.",
"  P O u & Q.,X&X<X|.b.V.Z.m.0.9.9.9.9.9.9.9.9.9.9.9.9.9.9.9.9.9.9.9.9.9.9.9.9.9.9.9.9.9.9.9.9.9.0.0.0.0.7.7.7.7.5.5.4.y.@X<X$X=XY 2 e + qXSXaXwX",
"  P O u : W.,X%X1X@X]. X X{.>.2.,.,.,.,.,.,.,.,.,.,.,.,.,.,.,.,.,.,.,.,.,.,.,.,.,.,.,.,.,.,.,.,.2.2.2.2.2.2.2.2.<.>.>.1.$X<X&X;XH 2 j @ qXVXaXrX",
"  ) = w & W.1X:X;X:X=X,X,X,X,X,X,X,X,X,X,X,X,X,X,X,X,X,X,X,X,X,X,X,X,X,X,X,X,X,X,X,X,X,X,X,X,X,X,X,X,X,X,X,X,X,X1X1X,X=X,X&X&X;XY z B w qXVXfXyX",
"MXP O 7 O W.1X-X%X&X:X;X&X%X%X&X&X&X&X&X&X&X&X&X&X&X&X&X&X&X&X&X&X&X&X&X&X&X&X&X&X&X&X&X&X&X&X&X&X&X&X&X&X&X&X&X$X-X%X&X%X*X&X4XR v B e eXSXfXyX",
"FX) = 7 O Q.,X,X,X,X,X>X<X<X1X,X,X,X,X,X,X,X,X,X,X,X,X,X,X,X,X,X,X,X,X,X,X,X,X,X,X,X,X,X,X,X,X,X,X,X,X,X,X,X,X,X,X1X>X1X,X,X,X4XT b V e eXDXkXyX",
"NXP = g l -.`._.`.'.^.^.`._.^.~._._._._._._._._._._._._._._._._._._._._._._._._._._._._._._._._.~.~.~.~.~.~.~.~.^._.`.'._.^.^._.H v V e qXDXzXyX",
"AX) @ w y , + = ; ; ; ; ; ; ; ; = = = = = = = = = = = = = = = = = = = = = = = = = = = = = = = = = = = = = = = = = = = = = = = = , u u y rXAXkXyX",
"AX~ o w w y y b w w w w w w w w r r r r r r r r r r r r r r r r y y y y y y y y y y y y y y y y y y y y y y y y u y 0 u B V M r u y M w rXAXaXiX",
"AX~ X 6 @ , 0 0 6 6 6 6 6 6 6 6 , , , , , , , , , , , , , , , , 0 0 0 0 0 0 0 0 0 0 0 0 0 0 0 0 , , 0 , , , 0 0 , , 0 y M M g w , @ N , tXDXkXiX",
"AX_ y V A N M B B B B B B B B B B B B B B B B B B B B B B B B B B B B B B B B B B B B B B B B B B B B N N N N B B A C C C C C C V N C A rXDXaX' ",
"AXlXxXlXkXlXlXlXlXlXlXlXlXlXlXlXlXlXlXlXlXlXlXlXlXlXlXlXlXlXlXlXlXlXlXlXlXlXlXlXlXlXlXlXlXlXlXlXlXlXlXlXzXzXzXzXlXlXlXlXlXlXlXlXzXzXkXkXcXCXdXZ ",
"mXcXvXvXmXvXmXnXvXvXvXvXvXvXvXvXbXbXbXbXbXbXbXbXbXbXbXbXbXbXbXbXbXbXbXbXbXbXbXbXbXbXbXbXbXbXbXbXbXbXbXvXvXvXvXvXnXnXnXnXnXbXvXcXlXvXlXvXlXvXpXZ ",
"AX  AXnXVXnXVX  BXBXBXBXnXnXnXnXVXVXVXVXVXVXVXVXVXVXVXVXVXVXVXVXVXVXVXVXVXVXVXVXVXVXVXVXVXVXVXVXnXnXnXnXnXnXnXnX                          AXpXC ",
"  uXuXpXpXpX              pXpXpXuXuXuXuXuXuXuXuXuXuXuXuXuXuXuXuXiXiXiXiXiXiXiXiXuXuXuXuXuXuXuXuXuXuXuXuXuXuXuXuXsXsXsX                      ' Z "
};
