/* XPM */
static char *f28bafbb44ca4510bf9d7e54f62cd5b3CYDSbvQXJOwtKc3A[] = {
/* columns rows colors chars-per-pixel */
"72 71 164 2 ",
"   c #0B0102",
".  c #130B07",
"X  c #150C0A",
"o  c #190E0C",
"O  c #15100C",
"+  c #1B110E",
"@  c #1E1412",
"#  c #1E1813",
"$  c #1F1418",
"%  c #221514",
"&  c #241916",
"*  c #281A17",
"=  c #22161A",
"-  c #261B19",
";  c #2A1D1A",
":  c #26211C",
">  c #2B211E",
",  c #30221F",
"<  c #261D20",
"1  c #281F20",
"2  c #2D2322",
"3  c #322524",
"4  c #332926",
"5  c #382A27",
"6  c #352C2A",
"7  c #392B2A",
"8  c #38322E",
"9  c #382F30",
"0  c #3C3432",
"q  c #413937",
"w  c #413B3A",
"e  c #46413E",
"r  c #49413F",
"t  c #483F40",
"y  c #454440",
"u  c #4B4643",
"i  c #4E4946",
"p  c #4F4B48",
"a  c #524D4A",
"s  c #56514E",
"d  c #59514F",
"f  c #565352",
"g  c #5A5552",
"h  c #5C5855",
"j  c #5D5C5A",
"k  c #625D5B",
"l  c #67625F",
"z  c #655F61",
"x  c gray40",
"c  c #696462",
"v  c #6A6967",
"b  c #6F6B6A",
"n  c #736E6B",
"m  c #77726F",
"M  c #767472",
"N  c #797573",
"B  c #7C7976",
"V  c #7E7D7C",
"C  c #827E7C",
"Z  c #7E807F",
"A  c #84807E",
"S  c #847F81",
"D  c #848483",
"F  c #898685",
"G  c #868887",
"H  c #8A8886",
"J  c #868689",
"K  c #898789",
"L  c #878988",
"P  c #898B8A",
"I  c gray54",
"U  c #8B8B8B",
"Y  c #898989",
"T  c #8C8A8B",
"R  c #8A8C8B",
"E  c #8D8C8A",
"W  c #898A8C",
"Q  c #8A8A8C",
"!  c #8B8B8D",
"~  c #8D8B8C",
"^  c #8B8C8E",
"/  c #8D8D8D",
"(  c #8D8D8F",
")  c #8E8E8E",
"_  c #8C8E8D",
"`  c #8B8B8B",
"'  c #918E8D",
"]  c #8E908F",
"[  c #91908E",
"{  c #92908F",
"}  c #8E8F91",
"|  c #8D8E90",
" . c #8F8F91",
".. c #918F90",
"X. c #8F9191",
"o. c #909193",
"O. c #959190",
"+. c #949391",
"@. c #979392",
"#. c #959490",
"$. c #919294",
"%. c #979797",
"&. c #939292",
"*. c #989493",
"=. c #989795",
"-. c #999997",
";. c gray62",
":. c #9C9C9B",
">. c gray64",
",. c #A2A3A5",
"<. c #A3A3A3",
"1. c #A8A8A6",
"2. c #A6A7A9",
"3. c #A7A8A9",
"4. c #ABABAB",
"5. c gray70",
"6. c #B6B6B6",
"7. c #B3B3B3",
"8. c #B9B9B7",
"9. c #B9B7B8",
"0. c #BCBBBB",
"q. c #C0BEBF",
"w. c #BFC3C4",
"e. c gray76",
"r. c gray76",
"t. c #CBCBCB",
"y. c #CDCDCD",
"u. c #CECECE",
"i. c #CCCDCC",
"p. c #D0CECF",
"a. c #CFD2D2",
"s. c #D1D1D1",
"d. c #D5D5D3",
"f. c #D5D5D5",
"g. c #D7D7D7",
"h. c #D4D4D4",
"j. c #D6D8D7",
"k. c #DADBD6",
"l. c #D8DAD9",
"z. c gray86",
"x. c #D8D8D8",
"c. c #DFDFDF",
"v. c gainsboro",
"b. c #DCDCDC",
"n. c #E2E2E2",
"m. c gray89",
"M. c gray88",
"N. c gray90",
"B. c #E7E7E7",
"V. c #E3E4E4",
"C. c #E8E6E7",
"Z. c #E6E8E7",
"A. c #E7E9E8",
"S. c #ECECEC",
"D. c #EEF0EF",
"F. c #F2F1EF",
"G. c #EFF1F0",
"H. c #F3F3F3",
"J. c #FBF7F6",
"K. c #F6F8F7",
"L. c #FCF8F6",
"P. c #F9F7F8",
"I. c #F7F9F8",
"U. c #F9F9F9",
/* pixels */
"o o @ + o + o + + + o + + + + + o + + + + + + + o + + o + + o + + + o + @ + + o o + + + o o o + o @ o o @ o + - - ; - # o o o @ % ; - 2 2 ; 0 h ",
"% & - & - ; - & - & & & - - - & & & & * * * - - & - & & - & & ; & % ; & @ & & ; - & & & & - & & & ; & & ; & - 4 3 4 3 > ; ; > 2 3 4 4 3 4 2 0 c ",
"% ; & % % @ @ % @ @ @ @ % % % @ % % % @ + @ @ @ @ % @ + @ @ + % & % % - % @ - @ % @ + @ % % @ @ @ % @ @ % + % > 2 3 3 > > > 2 3 3 2 2 ; 3 3 0 x ",
"@ - + ; 4 ; 2 2 > > > > 2 2 2 2 2 2 2 > > > > > > 2 > > > > > 2 - ; % % - : - 2 > > 2 2 > > > 2 > 2 > > 2 > > 4 6 6 6 6 6 6 6 8 9 6 6 4 3 > w v ",
"@ - # a A C D A D D D D D D D D D D D D D D D D D D D A D D D F m @ & % - N H C A D D D A A D D D D A D D C C D F K I I I I I I F *.a + 3 ; k d.",
"@ & O g #.I / I W W W W W W I W W W W W W W W W I W W I W W W / m % & @ - C H ~ I W W W I I W W W I I I I I J J W } X.&.$.$.&.} K @.a @ * @ l d.",
"& > o g [ A L I I I I I I I I I I I I I I I I I I I I I I I I / M - % % > B / D I I I I I I I I I I I I I I I F L W W W R R W I F / u + ; % c j.",
"+ - . g @.F / W F F H H F F H H F F F F H H H H F H F F H H H E M # - % - V R W H F F F H H F F I F F F F F H F F F F F F F F D J / a + ; & k z.",
"+ - @ s @.T D ,.N.g.c.u.I / I I s.n.z.N.;.D / D 6.N.z.n.r.V I / N & & % - C / W F t.n.g.n.4.V / D >.n.g.M.u.D I I F a.g.s.c.@.D J E p + 3 > g 5.",
"o - + s @.I D 3.U.H.U.n.I F F / A.H.S.H.>.F I V r.H.S.U.s.F I / N & & % - C / W F g.H.S.U.9.D I D 4.H.H.H.z.D F F / V.H.S.H.>.D D / f & 3 ; s 4.",
"+ - + s [ K F 4.H.S.H.c.I F I / n.H.S.H.>.F / D r.H.S.H.u.D F I N & & % - V / I I g.H.A.H.6.D I D 3.H.A.G.g.F I D I c.S.A.S.;.F W @.h - 7 ; a >.",
"% - + s @.F D 4.H.A.S.z.I I I I n.H.S.H.>.D / D 0.H.A.H.t.V I &.N & & % - V / I D s.H.A.H.6.D I V 3.H.A.S.g.F I F / n.S.A.H.>.I } -.g * 7 ; p >.",
"% - + s @.K D 4.H.S.H.c.I I I / N.H.S.H.>.D I D 0.H.S.U.s.F I / N & & % - V / I D s.H.S.H.6.D I F 5.H.S.H.z.F I D I c.S.A.S.;.D W @.h - 4 % s r.",
"% - o s @.I D 4.H.A.H.c.I F I / n.H.A.H.>.D / D 0.H.S.H.s.D I I N & & % - V / I F s.H.N.H.6.F &.I 5.H.A.H.z.I I I / n.S.A.H.>.F I @.h * > o g g.",
"+ & + s @.I D 4.H.S.H.c.I I I I N.H.S.H.>.F / D r.H.S.H.u.D I &.N & & % - V / I D s.H.A.H.9.I @.F 5.U.S.U.n./ I D I c.S.A.H.;.V J [ a + & X s s.",
"+ - @ s ' F D 4.H.S.H.c.I F I / n.H.S.H.>.D / D 0.H.S.H.u.D I / N & & % - V I I F s.H.N.H.9.I @.I 5.U.S.H.c./ &.F T c.S.A.H.;.D D [ a o * o h g.",
"% - + s @.H D 4.H.S.H.c.I I G R n.H.S.H.>.D / D 0.H.S.H.u.D I / M & & % - V T I D s.H.A.H.0.I @.D 3.H.A.H.n./ &.F I c.S.S.H.>.F J E a + * + s 0.",
"% - + s @.H D 4.H.S.H.c.I I L R n.H.S.H.>.D / D 0.H.S.H.u.D I / N & & % - V T J F s.H.A.H.0.F / V 3.H.S.H.c.I I F I n.S.S.S.>.D W E p + ; o u 3.",
"% - + s @.H D 4.H.S.H.c.I I L R n.H.S.H.>.D / D 0.H.S.H.u.D I / M # % % - V T J D u.H.A.H.0.F / V 3.H.S.H.z.F F F I n.S.A.S.>.D I E p + ; + u >.",
"% - + s @.H D 4.H.S.H.c.I I L R n.H.S.H.>.D / D 0.H.A.H.u.D I / M # % % - V T J F s.S.N.H.0.I &.F 5.U.S.H.g.F F I &.N.S.A.H.>.D J / a + * + p 3.",
"% - + s @.H D 4.H.S.H.c.I I L R n.H.S.H.>.D / D 0.H.A.H.u.D I / M & - % - V I J F s.H.N.H.0.I &.I 5.U.A.S.g.F I / &.Z.S.A.S.>.D J [ a + & o p 3.",
"% - + s @.H D 4.H.S.H.c.I I L R n.H.S.H.>.D / D 0.H.A.H.u.D I I M & - % - B K J D u.S.N.H.0.I &.I 5.H.N.A.s.F / / &.N.S.A.S.>.D I [ a + * + u >.",
"% - + s @.H D 4.H.S.H.c.I I L R n.H.S.H.>.D / D 0.H.A.H.u.D I I M # % % - V T I D u.S.V.H.9.I @.I 5.H.N.S.z.I &.&.&.N.S.S.D.>.D I / a + ; @ u >.",
"@ - + s @.H D 4.H.S.H.c.I I L R n.H.S.H.>.D / D 0.H.A.H.u.F I / M # % % > D &.} R g.H.N.H.9.I @.I 5.H.A.H.c...&.&.&.n.S.S.S.>.F I / a + & o u 3.",
"% - + s { H D 3.H.S.H.c.I I L R n.H.S.H.>.D R D 9.H.S.K.h.I / ~ n @ ; ; 4 D &.&./ z.H.S.H.9.F &.I 5.U.S.H.c./ X./ / n.S.S.H.>.D J [ a + & o p 3.",
"% - + s { H D 3.H.S.H.c.I I L R n.H.S.H.>.D I Z 0.H.A.H.s.I &.&.N & ; 2 4 F &.&.I g.H.S.H.9.F / I 5.U.S.H.c./ / I / n.S.S.H.>.D J [ a + ; o p >.",
"% - + s { H D 3.H.S.H.c.I I L R n.H.S.H.>.D I D 0.H.A.H.h.L &.@.V - 3 3 6 D &.} I z.H.S.H.0.D I F 5.H.S.H.c.I R F I n.S.S.H.>.D J [ a + ; o u >.",
"% - + s { H D 3.H.S.H.c.I I L R n.H.A.H.>.D / D 0.H.A.H.a.L &.&.C 2 4 4 4 D / I F g.H.S.H.0.F I D 3.H.A.H.z.F L F I n.S.S.S.>.F I [ p + * o p 3.",
"% - + s { H D 3.H.S.H.c.I I L R n.H.A.H.>.D / D 9.H.A.H.u.F &.&.C 2 4 3 2 C I F D s.H.S.H.0.F I V 3.H.N.S.g.F F F I n.S.S.S.>.D W &.a + ; + p >.",
"% - + s { H D 3.H.S.H.c.I I L R n.H.S.H.>.D I D 0.H.A.D.t.F &.@.C 2 3 ; > V F F D s.H.S.H.0.F / D 3.H.N.S.z.F I F R n.D.S.D.>.D J &.a + ; o e @.",
"% - + s { H D 3.H.S.H.c.I I L R n.H.A.H.>.D I D 0.H.C.H.t.D / @.C 2 4 2 2 V I F D a.S.A.H.0.F / D 3.H.A.H.z.F I F I n.S.S.H.>.F J &.a o ; o w / ",
"% - + s { H D 3.H.S.H.c.I I L R n.H.A.H.>.D / D 9.S.n.G.t.B F &.B 2 6 4 3 C I F Z t.N.N.H.0.I / D 3.H.A.H.z.F I J W n.S.S.H.>.F I #.a o ; @ e / ",
"% - + s [ I F 3.I.S.H.c.I I L R n.H.A.H.>.D F V w.U.L.J.u.F / ' C 3 6 2 6 F @.[ F k.J.L.U.q.I W V 3.H.A.H.z.F I F I n.S.S.H.>.F W [ a + & o r &.",
"% - + s ' I D 4.H.S.H.c.I L G R n.H.A.S.>.D I F N z k c k e w t w > 2 3 2 u a e y j c n M D &.R D 4.H.A.H.z.F I F I n.S.S.H.>.F F [ a o ; % 0 x ",
"@ & + s [ I F 4.H.S.H.c.I F F R n.H.A.S.>.D I / u . @ % % - % % + - - 2 2 ; 2 - - + @ - @ h @.F D 4.H.A.H.z.I I L / V.S.S.H.>.D W / a + ; + 6 j ",
"@ - + s [ I F 4.H.A.H.c.I F F R n.H.A.S.>.V F &.d - 6 7 2 4 7 3 - - & - 6 2 2 4 3 3 3 7 - k #.F V 4.H.A.H.z.I I L / V.G.S.H.>.D / / p + ; + 6 j ",
"% - + s { I F 4.H.A.H.c.I F G R c.H.A.S.>.V F &.h > 3 5 4 > 3 3 6 > - @ 2 4 3 4 , 4 3 5 - k T F V 3.H.A.H.z.I I I / N.H.S.H.>.D F [ a o ; % 6 f ",
"% - + s { I F 4.H.A.H.c.I F G R c.H.A.S.>.V / @.j : 3 > 4 4 2 3 3 3 2 & % ; 4 > 3 4 > 3 @ g / R S 4.H.A.H.z.F I I / V.H.S.H.>.D J [ a o * @ q V ",
"% - + s [ I F 3.H.A.H.c.I I G R n.S.A.S.>.D &.-.h - 3 - > 2 3 3 3 3 4 > @ - 2 3 3 3 3 2 + f / G D 4.H.A.H.z.K I I / V.G.S.H.>.F W &.p + ; o u 3.",
"% - + s ' K D 3.H.A.H.c.I I G I n.S.A.S.>.D &.@.k & - ; > @ 3 7 6 ; 4 3 % - % 3 > 2 ; - @ h &.G D 4.H.A.H.z.I I I / N.H.S.H.>.F F &.a o ; o u >.",
"% - @ s ' F D 4.H.A.H.M.&./ I R c.S.A.A.>.F &.;.d . . @ + + @ # : 4 4 2 > @ + @ - . o .   f @.H D 4.H.A.H.z.I I J / N.H.S.H.>.F I @.a + & o p 3.",
"@ - @ s ' F D 4.H.S.H.c.&./ R / c.A.A.A.>.I &.&.n g p a u 6 0 w w 2 4 3 ; 8 0 0 6 u g a a b F I D 4.H.A.H.z.F I K / N.H.S.H.>.F I [ p + ; o p 7.",
"+ - + s { K D 3.H.A.H.n.&.&./ X.n.A.N.A.>.I &.I t.H.F.H.i.F F H C 4 ; ; 4 C ' F H g.L.H.H.0.F L D 4.H.S.H.z.I I J / N.H.S.H.>.D J &.a + * o h g.",
"+ & + s { K D 3.H.A.H.n.&.&.X.&.V.S.N.A.;.I @.F r.U.A.A.r.V F I B 2 6 6 : M I H Z h.H.C.P.6.B R D 4.H.S.H.z.I I I / N.H.S.H.>.D W &.p + ; o g g.",
"+ & + s { K D 3.H.A.H.c./ / X.&.n.H.A.S.;.F &.I r.H.A.S.r.V D F B 2 2 3 - B R F D a.H.N.U.9.D ] D 4.H.S.H.z.I I I / V.G.S.H.>.D W &.p + ; X g g.",
"@ - + s { K D 3.H.A.S.z.I / ] &.N.H.S.S.;.D &.I r.H.H.U.t.D / %.V 4 3 3 > B G F J a.H.A.H.6.D G D 4.H.S.H.c.I I I / N.H.S.H.>.F J &.a + & . g s.",
"% - + s { K D 3.H.A.S.z.L / ] $.n.H.S.H.>.Z / F r.H.S.U.s./ I X.V 2 2 ; & B I R F s.H.S.H.8.F / D 4.H.S.H.c.J I I / N.H.S.H.>.F J [ p + ; o p 4.",
"% - + s { K D 3.D.Z.S.z.I / X.&.n.H.A.H.>.D L D q.U.A.H.p.T ' -.A - 2 - - C I I D g.H.S.H.8.V I D 4.H.S.H.c.J I I / N.H.S.H.>.F J &.a + & o p 3.",
"% - X s ' I D 3.G.N.S.c./ &.&.&.N.H.S.H.3.F I V 0.H.S.U.g.I &.@.V - - % - V I I F h.H.A.H.9.D / D 4.H.S.H.z.I I I / N.H.S.H.>.F J [ a o * + u 3.",
"% - o g ' I D 3.H.Z.S.c./ &./ / c.H.S.H.3.I &.D 9.H.A.H.u.F / &.N & % % & V I I F h.H.A.H.9.D / D 4.H.S.H.z.I I I / N.H.S.H.>.F L [ a + ; + u 3.",
"% - o g ' K D 3.H.A.H.c./ / I I g.S.A.H.>./ @.F 9.S.N.S.t.D I R M & % % - C T I F g.H.A.H.9.D / D 4.H.S.H.z.I I I / N.H.S.H.>.D I / p + ; + u 3.",
"% - o g ' F D 3.G.Z.H.n.&./ I L z.A.N.H.3.I &.I 0.H.N.S.t.D F I M & % % - C T I F g.H.A.H.9.D / D 4.H.S.H.z.I I I / N.H.S.H.>.D W [ a + * o u 3.",
"@ - o d ' F V 3.D.Z.H.n.&./ L G z.A.n.S.>.I &.I r.H.A.S.t.D F I M & % % - C I I F g.H.A.H.9.D / D 4.H.S.H.c.I I I / V.G.S.H.>.D I [ a + * o u 3.",
"% - o s ' F V 3.G.A.H.n.&./ I L z.S.N.A.>.I @.F r.H.A.S.t.D F I M & % % - C T I F g.H.A.H.9.D R D 4.H.S.H.c.I I I / N.H.S.H.>.F I [ a o ; + u >.",
"% - o s ' F V 2.G.A.H.n.&./ R R z.S.V.A.;.L @.I r.H.A.H.t.D F / M & % % - C T W F g.H.S.H.9.D / D 4.H.S.H.c.I I I / N.H.S.H.>.F I [ a o ; @ e -.",
"& ; o s ' F V 2.S.N.H.n.&.&./ / c.S.n.A.>.D &.I r.H.A.H.t.D I / N & % % - C T W F g.H.S.H.9.D / D 4.H.S.H.c.I I I / N.H.S.H.>.F I [ a o ; @ w / ",
"3 2 - g / F V 3.S.A.A.n./ / / @.N.S.N.H.>.I -.I r.S.Z.G.u.F I / N & % % - C I I F g.H.S.H.9.F / D 5.H.A.H.c.F I F &.n.H.H.H.>.D F &.a o ; o w / ",
"3 3 - k @.H V >.S.N.S.c.&./ / @.N.H.H.H.3./ @.F 0.H.N.H.u.D I I M & % % - C / W F z.H.N.H.9.D / D 4.H.S.H.z.I R J I N.H.S.H.>.F F &.a + ; o w [ ",
"3 3 - k -.I F 3.S.N.A.g./ &./ @.n.H.H.S.3.I / F 6.H.S.H.u.D I / M & % % - C ~ W D g.H.S.U.9.D / F 3.H.S.H.z.I I I I N.H.S.H.>.I F &.a + ; o e :.",
"3 2 - k =./ I 5.H.N.S.g.F / / &.A.H.G.H.3.I / D 0.H.S.G.u.F F &.N & % % - C I I I h.H.S.H.9.F I F 3.U.S.H.c.F L F / N.H.S.H.,.D I &.p + ; o u 1.",
"; ; > k @.[ I 5.H.A.H.c.V J I / N.H.N.I.>.D I V 0.H.A.H.u.D F / M & % % - C I I I s.H.A.H.9.D I D 3.U.N.G.c.F / I / N.S.S.H.>.D W &.p + * o p 4.",
"; - & g [ [ I 4.U.H.U.A.I I I I n.H.S.H.>.V L D 0.U.H.U.s.V / / M & % % - C / W D g.U.H.U.9.D / D 4.U.H.H.c.I / F / S.H.H.U.>.F I &.a + ; o u 3.",
"3 > + a E I / >.c.z.g.u.@./ / I t.g.g.a.;.D F I 5.z.s.z.9.D / I M & % % - C / W I r.c.g.x.3.F I F >.g.z.z.r./ F D / u.x.z.g.-.F J &.a o * o u >.",
"4 6 o s ' F I &./ / I &./ / &.&.I F F Z F I F F D F D D F F I T B & % % - C I I F F F V I I / F &.F F D F F I I R I F D D F I / J &.p o ; o p 3.",
"> 4 - a { I / X./ &.&.&.&.$.$.&.] L D G R I J W I I W R I L W / B # # % ; C / F I I I I I I L L J W L G / I F W W I I I W I L J W / s # - o p >.",
"4 2 - h :.#.&.&.[ E I I &.@.&./ / I F I / I I / K I I R I I ~ ' N @ ; & & C ..} I I I I I I I H I / I I / I I T I I I I I I I I I &.p . & o u 4.",
"3 3 2 g H F F F F A V C A F F A C C C C C C C A C C C A A C D F n - @ + > B D C C C C C C C C C A A C C S A A A A C C A A A C C S H p + ; @ y -.",
"2 4 2 4 0 4 6 2 : : : - - - > > - - > > - - : - > > > > - - - > - & & & + ; - - - - - - ; > > > : : - 1 < - : : > - ; ; ; > > : = 2 - @ ; @ 2 u ",
"2 6 4 > 2 2 2 @ # % % % @ @ % % % % % % # @ % + % % % % % % % % @ - % % - - & & % % % % % % % % # @ % = % % % # % % % % % % % # ; % & & % % 4 0 ",
"- ; 3 3 3 2 > % & % % - - - % % - % - - % - - % - & % & & & & - - % - * % ; - % - - - - - - = = % & & - - - - & & & & % % & & & ; % % & % % 2 w ",
"% - 3 2 2 - $ $ % $ @ $ % % % % % + % = % % - % % % % % % % % % % o % % % % % @ % % % % % % % % @ % % % % % $ = $ % % % % @ @ @ % % # % % % - w "
};
