/* XPM */
static char *_fbf82f98fad4b05e418c4ebac8cc0681U5bMMhwayRoc4fY[] = {
/* columns rows colors chars-per-pixel */
"72 71 236 2 ",
"   c #1DAA1E",
".  c #15AB2B",
"X  c #1BAA2C",
"o  c #17A52B",
"O  c #19B32F",
"+  c #0DAB39",
"@  c #1CA636",
"#  c #15AC35",
"$  c #1BAB34",
"%  c #16A63C",
"&  c #1CA53B",
"*  c #15AB3B",
"=  c #1CAC3B",
"-  c #17A736",
";  c #0DB134",
":  c #1EB33D",
">  c #1DB137",
",  c #25A52C",
"<  c #2AA62E",
"1  c #25AC2B",
"2  c #2BAC2C",
"3  c #32AB2D",
"4  c #3BAE2D",
"5  c #38AB24",
"6  c #2BB22E",
"7  c #33B12F",
"8  c #38B228",
"9  c #22A635",
"0  c #2BA433",
"q  c #23AC34",
"w  c #2CAC35",
"e  c #25A63A",
"r  c #2BA43B",
"t  c #23AC3B",
"y  c #2AAC3C",
"u  c #33AD32",
"i  c #3CAD33",
"p  c #33AC3B",
"a  c #3BAD3C",
"s  c #31A63B",
"d  c #22B133",
"f  c #2AB233",
"g  c #24B23B",
"h  c #2CB139",
"j  c #32B333",
"k  c #3AB334",
"l  c #3BB53C",
"z  c #36B33B",
"x  c #5CAE1C",
"c  c #6DBE1D",
"v  c #6EB21F",
"b  c #76B715",
"n  c #7BBC1B",
"m  c #77BA1C",
"M  c #43AD2C",
"N  c #44AA27",
"B  c #5DAF29",
"V  c #43B220",
"C  c #44B32E",
"Z  c #4CB42C",
"A  c #4CB728",
"S  c #54B426",
"D  c #5CB523",
"F  c #5DBA25",
"G  c #53B22B",
"H  c #5AB72C",
"J  c #52BA2B",
"K  c #5CBA2A",
"L  c #52BB21",
"P  c #42AD34",
"I  c #47AF3F",
"U  c #53AE37",
"Y  c #44B233",
"T  c #4CB532",
"R  c #46B43A",
"E  c #48B539",
"W  c #40B83C",
"Q  c #55B532",
"!  c #5BB932",
"~  c #52B33B",
"^  c #5ABA3C",
"/  c #63B524",
"(  c #6DB523",
")  c #64BB24",
"_  c #6DBC26",
"`  c #63B62C",
"'  c #6BB42C",
"]  c #63BA2C",
"[  c #6CBC2A",
"{  c #73B422",
"}  c #74BD24",
"|  c #7CBC24",
" . c #7AB42B",
".. c #73BD2B",
"X. c #7CBC2A",
"o. c #62B632",
"O. c #63B932",
"+. c #69BB33",
"@. c #69BB37",
"#. c #71BC34",
"$. c #7CB938",
"%. c #6CC21F",
"&. c #7DC31D",
"*. c #79C11A",
"=. c #5CC133",
"-. c #6DC129",
";. c #74C125",
":. c #7DC324",
">. c #74C22B",
",. c #7CC22B",
"<. c #70C826",
"1. c #65C232",
"2. c #6DC237",
"3. c #75C333",
"4. c #72C43B",
"5. c #1D9F45",
"6. c #0EAB43",
"7. c #0BAA4B",
"8. c #14A643",
"9. c #14AC43",
"0. c #1BAB43",
"q. c #1AAA4A",
"w. c #0EB144",
"e. c #0BB14B",
"r. c #1FB44A",
"t. c #17B146",
"y. c #1BA750",
"u. c #2EA741",
"i. c #23AB43",
"p. c #2AAC44",
"a. c #27AA4B",
"s. c #34AE44",
"d. c #32AE4E",
"f. c #23B243",
"g. c #2AB244",
"h. c #25B149",
"j. c #35B343",
"k. c #39B548",
"l. c #31AE50",
"z. c #42AF42",
"x. c #4CB544",
"c. c #4AB846",
"v. c #54B543",
"b. c #42AC50",
"n. c #91BD0E",
"m. c #99BE0D",
"M. c #8CBE15",
"N. c #84BD1C",
"B. c #8CBD1D",
"V. c #81B71B",
"C. c #94BD14",
"Z. c #99BD15",
"A. c #93BE1C",
"S. c #9ABE1D",
"D. c #96B71B",
"F. c #A1BE0C",
"G. c #84BD24",
"H. c #8CBE22",
"J. c #8BB72D",
"K. c #84BC2A",
"L. c #8CBE2B",
"P. c #8DB725",
"I. c #92BE23",
"U. c #9BBD22",
"Y. c #94BE29",
"T. c #9ABD2B",
"R. c #87BD35",
"E. c #93BE30",
"W. c #A3BF23",
"Q. c #A1BC2F",
"!. c #8DC30F",
"~. c #91C40E",
"^. c #9DC30C",
"/. c #85C415",
"(. c #8DC315",
"). c #8CC815",
"_. c #85C41D",
"`. c #8DC31D",
"'. c #86CB1E",
"]. c #8DC91C",
"[. c #94C315",
"{. c #9BC215",
"}. c #93C914",
"|. c #93C31C",
" X c #9BC21C",
".X c #92C91C",
"XX c #9BC91A",
"oX c #86D11E",
"OX c #A1C30E",
"+X c #A2C512",
"@X c #A2C31B",
"#X c #A9C41C",
"$X c #85C423",
"%X c #8DC322",
"&X c #85C923",
"*X c #8CC923",
"=X c #84C32A",
"-X c #8CC32A",
";X c #84CB2A",
":X c #8BC92B",
">X c #90C320",
",X c #92C221",
"<X c #91C422",
"1X c #92C126",
"2X c #91C425",
"3X c #92C322",
"4X c #9AC323",
"5X c #94C923",
"6X c #9AC924",
"7X c #96C42A",
"8X c #97C62C",
"9X c #94C42B",
"0X c #98C72D",
"qX c #99C62C",
"wX c #95C92C",
"eX c #99C82E",
"rX c #9AC92E",
"tX c #9AC92D",
"yX c #86C432",
"uX c #8DC432",
"iX c #8CCB34",
"pX c #8ACB3A",
"aX c #85C638",
"sX c #95C533",
"dX c #9BC533",
"fX c #94C932",
"gX c #9BCA32",
"hX c #92C63C",
"jX c #9BC738",
"kX c #98C939",
"lX c #94D032",
"zX c #A3C323",
"xX c #A8C827",
"cX c #A4C429",
"vX c #A6C728",
"bX c #A2C331",
/* pixels */
">X<XA.%X[.*X`.%X|.|.%X2X>X|.<X`.`.[.>X[.X.0.t q y C.S.`..XG.S.1X7X8X7X7XqXtXqX7X1X1X%XH.%X%X%X`.-X|.5 < s.0.1. X[.[.`.L.2XA.I.|.,X2X| t e q = ;.",
"'.*X4X%X>X$X%X1X|.|.%X>X>X>X<X`.9X X1X[...% 9 9 f.`.5X%X|.H.>X%X7X8XtXtXtXtXtX8X7X7X1X%X%X%X`.B.A.I.g.t g r K S.X.%XH.H.[.|.%X%X_.(.N.w u.y q n ",
"%X`.|.(.S.[.{.~.>X>X>X>X>X>X>X%X=X_.=X`...= w h t N.1XI.S.H.,X%X8XtXtX8X7X7XqXtXqXqX9X%XB.B.B.`.|.H.p.* * 5.) {.4X X|.A.M.].%X].|. X_.f = = q _.",
":X&X*X.X-X9X6X].%X<X>X>X>X%X`.>X+X^.|.`._ q $ * 4 N.1X%XA.%X,X5XgXtX7XH.H.1X7XtXgX8X1X%XH.H.%X`.U.B.P q q y / B.>X%X%X4X(.`.>X|.L.L.>.f = = q ..",
"`.I.U.%XY f j k $X<X|.|.<X%X%X|.H.H.I.|.I._ } } [ |.>X`.`.H.1XtXgX8X1XH.H.1X8XtXtX7XI.H.H.%X%X%X$X2X-. .| m Z j l j H 5X.X`.H.%X.X|.`.} X.X._ >X",
"*X5X4X$Xe # - @ | %X|.[.<X%X%X|.%X%X1X`. X<X6X6X%X X[.`._.H.I.dXqX7X1XI.1XqXtXqX2XI.H.H.>X1X%XH.H.4X).Y.<X(.T % q $ Z 5X`.%XI.>X`.I.*X%X|.4X'.5X",
"|.`.`._.y w h $ | %X[.[.<X%X%X|.>X%XH._.B.(.(.`.`.I.A.N.B.H.I.0X8X7X7X7XqXtXqX1XH.H.I.1X8X5X>XH.%X[.Z.I.,X:XT $ 3 9 G 6X`.%X|..XS.S.|.[.`.|.`.6X",
"].`.5X_.i.- = - | 2X|.[.2X%X%X|.[.`.>X:XI.A.H.-X`.-XI.B.H.I.1X5XqXqX8X8XqXqX7X1XB.H.1XtXtX8X1X%X[.[.=X>X).I.C 8.* 6.T zXC.>X>X$X;X|.].S.-X9X`.|.",
"].>XI.K._ ) ] ` T V J C G.&XS.U.B.B.`.`.%X%XH.%XL.P.I.Y.A.D.1XsXrXiXfXqX5X>XI.H.[.>.x.o.J ^ 1X$X(.[..X|.%XG.| { D ` ..=X2X X XZ.>X>X>X>X>X>X>X>X",
".X].|.|.|.[.[. Xz.* = 6.' %X%X|.B.B.`.%X%X%XH.H.`.`.%X%X_.B.%X-X6XwXqXrX5X2XI.G. X#.l.j.g s.P.I.1X%X|.`.`.%X*X:XXX X|..X].%X&X;X>X>X>X>X>X>X>X>X",
"2X%X%X1XI.U.4X1Xu t.p 0.( [.aXfX>X>XH.B.B.H.I.1X4X6X5X%X<X2X1XI.8X6XqXqX5X0XtXfX@X3.d.d.h.p H.[.-X%XH.|.|.|.|..X|..X|.|.|.>X1X1X>X>X>X>X>X>X>X>X",
"|.].`.%X%X%X%X$X4 w.@ 8.' W.fXqX8X1XI.B.B.>X5X8XkXhXdX1XcXqXcX#XyX9XqXqX-X9X8X9XqX4.p.p.= w G.,X%X`.`.|.|.|.B.B.-X-X1X1X,X|.[.A.>X>X>X>X>X>X>X>X",
"%X|.|.|.[.(.[.[.D A Z Y | qX0X6XtX7X1X%X%X1XtXtX0XuXdX7XjX2.@.1.Q X.7XgXfXtX6X7X7XaXQ S G S $X%X].`.N.`.|.A.>X1X|.|..X[..X(.].].>X>X>X>X>X>X>X>X",
"%X`.1X1XI.I.I.U.`. X X,X}.:X:XwX8X8X8X8X7XqXtXqXzX5XcX5XhXk.g.f.p ' %X9XsX6X6XtX1XfX%XS.U.I.|.B.%X`.H.`.|.|.|.|.`.`.`.`.`.`.>X1X>X>X>X>X>X>X>X>X",
".X.X].<X%X%X%X:X4XT.&.| %XuX9X}.7XtX0X8X8XfXqX7X-X=XT.|.sXR p z h.+.A.B.I.A.N.H.T.9X`.`.Y.H.`.I.I.>X1X>X<X|.`.`.1X1X7X2X<X%X`.`.>X>X>X>X>X>X>X>X",
"4X%X%X%X[.Z.[./.`.T.~.A.[.B.R.4X8XtX0X8X8X8X8X9XS.G.D.M.uXl a.g.r.#. XA.qX,X`.-XB.N./.`.9X%X/.(.|.,X4X%X%X2X2X%X`.`..X[..X|.|.|.>X>X>X>X>X>X>X>X",
"<XA. X,XA.%X2XA..X%X-X`.>X$X$XZ.H.3.=X=XyXtX9XK.B.n.Y.B.>.U E b.x.+.n n _ X. XM.B.H.`.`.%X%X>X>X%X%X|.|.|.>X>X>X[.5X=X} } | H.9X[.'.[.%X(.9X`. X",
"].(.|.%X%X-X-X-XA.I.H.A.S.H.H.S.' p.r.r.x.sXcX{.K.N.P.C.[.B.|.dX:Xx.i.& $ S S.%XH.H.B.`.%X%X>X>X%X>X>X|.>X>X>X>X:X6X/ 9 6.9.4 ~.-XyX4X,X[.I._.`.",
",X>X1X,XA.[.[.A.`.1X%X`.A.H._. X/ = p.g.~ 6XfX:X1XI.A.M.M.M.5XtXgXc.y 0 * Y S..X`.`.`.%X%X%X>X>X>X>X>X>X>X>X%X%X].XXS $ j y a .X`.`.C.A.(.I.%XuX",
"}.].`.[.`..X[.`.%X1X%X`.B.`._.>XD % e i.R 5XfXqX9X9X-XG.G.$X:XuXxXE * & 0.Z Z.`.B.`.%X%X%X>X>X>X>X>X>X>X>X%X%X%X`.6X! $ 9 & a 6X6X6X].9X`.S.[.[.",
"`.-X-X X,.-X-X-X%XI.I.B.I.A.B.I.' e < w ~ qXtX4XwX9X-XH.H.,X8XrXzX! w s y L `.H.>X>X>X>X`.>X>X>X>X>X>X>X>X%X%X%X|.2X] 2 $ g Y c B.H.G.qX%XS.>X1X",
"{. X%XN.u 2 , q | A.A.-X1X,X<X7X7XX.V.V.G.8XsXuX6X6X1X%XH.9X9XkXuX-X_.G.| *.|.>X>X>X>X>X>X>X>X>X>X>X>X%X%X>X>X|. XH.=X:.&.:X_ 5 : h j =X`.[.<X|.",
"%X`.%XN.i.e e r ;.`.2X:X9X5X5XfX6XtXrX4X-X$X,XkXsX9XhXfX7XjX5XfX8X,X_.%X,X,X1X/.>X>X>X>X>X>X>X>X>X%X>X>X%X>X|.|.%X%X6X6X4X X .0 y r w I.[.|.-X%X",
"9XA.A.M.0.= t , | I.6X9XdX8X7XkXS.qXiX6X7XG.Z.-XbX6XsX6X4XdX|.fX`.S.H.H.).B.T.].>X>X>X>X>X|.>X>X%X%X%X%X>X>X|.|.;XA.Z.`.`.|.1.t.6 t g %X.X`.yX[.",
";XS.n.G.2 0.* , G.9X8X7XtXqXqX8XqXqXqXqX1XtXH.B.5X4XhX6XkX*X`.Q.&.H.1X>X`.A.,X>X|.%X(.|.%XS.%X|.).|.Y.%X[.`.4X[.|.`.`.`.|.:X` N w.t N ,.|.[.M.].",
"-XH.H.L.( { _ v H.0X8X8X7X1X1X1X1X8XtXtX7XtXH.I.K.Z j.v.a uX5XG.4XS.I.I.%X<X%X%X].%X.X4X%XK.Y k j Y X.]. X|.1X%X|.%X%X|.[.<X,.' _ } m *X%X2X%X-X",
"[.H.-XI.[.m.|.%X9X8X0X8X1XB.H.H.%X1X8XtX7X0X%X1XK.u i.h.d.X.|.$XS.A.`.%X>X>X>X%X%X|..X4X.X$Xq = # = X.(.<X[.1X%X`.%X%X<XZ.[.5X:X X X[.].`.`.>XA.",
".X<X>XB.`.N.B.H.8X7X8XtXH.N.H.B.H.%X1X0X7XtX2X1XJ.9 9 + y b m.S.I.].].%X>X|.|.,X1XS.`.%X[.=Xt = $ = G.].:X`.>X|.>X%X%X>X[.[.[.|.`.<X1XI.1X|.|.[.",
"lX0XI.H.I.-XB.D.wX7X7XtXI.N.B.B.H.H.H.8X9X0X7X1XJ.q X p.o G.zX%XuX<X[.`.%X%X].%X].[.%XuX[.=Xt t t 0.G.).:X[.1X|.|.<X%X2X<X|.|.>X%X%X1X,X5X%X*X=X",
"wXwX1X%XI.`.B.I.7X8X8XtX1XB.H.B.H.B.H.8X9X8X0X%XB.S D o.S G Z Y Q | [.`.%X<X[.%X|.|.%X-X`.>XH ' ) ! |.(.:X`.|..X|.4X<X2X%X%X%X2X>X|.`.`..XM.%X%X",
"5X5XtX:X>XN.N.=X9X0X8XqX8XI.H.H.B.H.H.0X9X8X0X%X(.<XzX|.xX3 + i.o ) |.<X%XS.Z.1X>X>X[.%X(.{.|.#X+X<X X].>X`.A..X`.>X|.`.%X%X%X2X1X>X`.(..X[. XZ.",
"gX9XbX7XrX%XI.D.%X0X8XqXdX1XH.H.B.H.H.gX7X7XtX1XI.<X$XB.S.a = w 9.+. X|.=X|.[.:X%X%X[.S.:X[.$X`._.:X-X`.{.,X1X:X%X<X|.|.<X<X`.|.`.<X%X%X%X%X<X`.",
"fXsXqX6X5X5X1XB.4X6X5XdX6XqXwX%X1X1X8XqXqX8X1X%X/.C.:X%XB.P 7.$ X ] |..XH.`.`.I.&X].[.|.%X%X%X|.>X>X>X>X>X>X>X>X`.1XI.>X|.<X%X2X|.6X4X%X!.1XZ.qX",
"0XgXqX1X7X0X8XI.B ` [ 4.%X1XsXbX7XqXqXqXqX1X1X%X|.S.1XB.D./ k G R #.1X>X-X2X|.>XI.S.D.,XB.%X<X4X>X>X>X>X>X>X>X>X(.|.|.`.`.[.N.) ` ` ` -X`.-X(.=X",
"tX6X5XqXgX8X9XdXP % $ 0.$.dXdXcXtXtXtXqX1X1X%X%X| =X=XN. X|.<XzX-X|.{.[.`.`.|.(.|.<X%X9X`.|.|.|.>X>X>X>X>X>X>X>X>X-X>X`.%X6X| y # = j %X.X X X1X",
"tXwX1XqXgX8X1XtXY i.0 = $.tXpX5XtX8X8X7X1X%XB.`.S.4X.X(.%X_./.H.4X).(.%X%X%XH._.).`.:X%X`.|.|.|.>X>X>X>X>X>X>X>X[.%X.X(.%X4X} 6.2 t w >X$X`.[.].",
"5XtX1XH.9XtX8X5Xz.a.y + ' <X=X[.5X1X1X%X%X`.`.`.M./.(.|.-X].(.L.Y.%X$X-X[.4XqXXX XS.4XS.A.|.%X%X>X>X>X>X>X>X>X>X[.%X|.(.%X X} 6.q e w ,X5XXX>X[.",
"0X8XH.B.I.5X6X6X^ c.l y ( A.I.C.>XI.B.B.%X%X`.`.9X-X|.4XY.[.~.>X4X X>X|.{.N._ ;._ | 5X|.|.<X%X%X>X>X>X>X>X>X>X>X>X-X1X%X-X4X| l j a C ..>.} ..|.",
"wXH.B.B.B.H.1XgX&X5XxXqX{.N.G.L.B.B.H.%X`.`.`.`.`.|.A.>XI.,X|.1XN.[.-X:X5XK = q 1 V :.`.|.%X%X|.>X>X>X>X>X>X>X>X(.|.|.].(.[.`.>.{.,X..y = @ w :.",
"5XB.A.A.B.H.1XsXkX9X9XjX*X=XH.P.B.B.%X%X`.`.`.|.`.,X].*X`.<X].|.&X{.B.>X@X` 0.p.0.Y yX X|.%X`.[.>X>X>X>X>X>X>X>X%X1XI.%X|.|.|.6X%X5X$Xq O 9 q ,.",
"0X%XH.H.H.H.H.%X9XgX4XqX7X:X`.`.%X%XH.B.A.>XB.%X[.|.%X1XC.%X*X).=X6X$X].cXo.* $ 0.P %X%X9X X%XA.`.9X%X|.%X(.9X,X`.1X|.].%X<X(.%X<X{.G.t > = = B.",
"0X1XH.B.B.B.B.H.2XtXqXgXqXY.Y.I.|.`.>X>X>X>X>X%X`.%X`.4XZ.|.6X XS.zX`.(.[.F d g < Z =X(.$XN.*X:X,X2X%X-XH.XXH.G.`.$X$X5XB.%X[.S.aX:X,.w 2 < y | ",
"0X9X%X>XH.H.H.1X<X9XfXwX%XB.2X%XB.|.>X>XH.>X<X`.1X%X`.5X%X%XY.L./.%X:X>XzXI.G.L.$X) u 2 g k `.[.|.`.[.].%X.XZ t w q G |.[.>X,X%XS.XXXX&.%XB.:.XX",
"tXwX7X7X1X1X7X7XbXgXfX:X<XM.(./.|.|.|.>X%X%X<X`.|.[.[..X].(..X%X6X9X1X.X|.].).2X@X;.= 0 q y A.B.4X`.|.$X1X@XZ * w = G 6X.X%X<X*X>X:XH.`.<X X%X%X",
"tX0X8X8X7X8X8XtXzX4XI.A.4XD.A.>X%X>XB.<X%X%X<X[.,X,X>X%X%X`.`.`.[.`.C.[.%X%X|.sXZ.} 0.y = t |.<X4X`.,X=X9X@XZ * q * T 6X|.%X>X`..X*X1X>X`.B..X1X",
"0X0XtXtXqXqXqX8XpXpX-X%X9XB.B.|.$X%XB.|.2X%X<X|.$X%X-X4X#X X4XOX:.%X4X4X-X%XA.B.XX;.@ = 9.h `.[.>X`.[.].1X[.Z = # # A <X[.4X,X%XM.`.Y.9X%X%X].1X",
"9X7X8XqXtXtX8X9X4XZ.Z.$XD 4 j f ( :X`.[.<X%X%X[.}.}.&X$X`.C r.7 a [ `.(.(.5X5X<X=X:.b &.} n *X:X,X2XH.%XH.[.G.n *.} &.<XH.>X[.|.|.[.H.`.M.2X.XA.",
"%X%X1X7XqXqX7X1X-XB.S.:XN @ 0.% x iX<X[.4X%X<X|.I.S.-X4Xm.M 7.2 9 _ 5X>XA.1X%X(.5X1XF.tX-X X<X,X`.<X`.|.|.).-X].>XT.,X4XH.<X].%X-X[.-X%XC.1X`.2X",
"%XH.H.B.B.H.H.H.B.$X X1XA X w i.E +X_.%X|.'.,X<X%XS.E.4X[.M y.7 # ` 4X|.$XI.S.].|.|.>X>X>X>X>X%XI.|.I.`.|.%X`.-X:X<X[.(.%X-X,XZ.`.*XU.$X%X,X.X`.",
"9X9X2X1XI.H.H.H.|.$XA.H.Y $ = 8.Q {.{.4X4X<X1X%X}.~.%X%X&.j 7.$ 2 _ |.|.%X>X|.].>X>X>X>X>X>X>X%X`.].>X<X|.,X|.,XS.|.>XA.%X%X*X%X`.].U._.<XI.U.4X",
"0X0X0X7X1XB.H.H.>X$XA.I.-.K ` o.J A Q T ` [.`.'.S.[.>X[.[.c F c F :.>X|.%X|.|.%X>X>X>X>X>X>X>X%X<X$X<X%X%X|.<X X[.`.=X1XU.[.`.-X1X%X4X`.5X|.%X-X",
"0X0X7X1XI.H.B.%X%X%X[. X]..X+X+X] * i.6.a {.|.,XL.:X%XI.4X4X,X4X:X%X%X`.|.`.`.>X>X>X>X>X>X>X|.].qXL.|.%X'.[.=X>X|.'.$X1X4X[.[.U.:X`.4X|.|.`.].'.",
"wX7X1X>XI.%X%X`.>X].|.B.`.`.S. X] * y $ z |.%XI.,X%X`.`.-X%X<X1X X4X`.`.|.|.`.>X>X>X>X>X>X>X|.].,XH. X4X|.}.:X`.4X|.`.|.`.`.|. X].(.].|.|.|.|.[.",
"5X1X%XH.|.%X%X%XA.[.>X-X'.-X-X:X) $ q X k /.:X>XZ. X.X].>X5X].]. X>X`.`.|.>X`.`.>X>X>X>X>X>X>X%X).<X[.4XqX|.,X|.%X|.|..X/.`.2X<X4X|.%X,X%X%X1XU.",
">X%X>X|.|.%X%X%X2X[.2X:X(. XI.|.N.T E M ' [.4X X].|.:X:XI.1X=X-X|.1X>X.X<X1XI.(.>X>X>X>X>X>X>X%X).2X) o.O.K H.5X_.`.4X].(.,X=XD @.' ) 9X`.%X%X%X",
"B.B.>X>X>X`.%X%X%XB.2X:X(. XY.%X].%X5X XqX[.-X`.%XS.%X*XZ.Z.%X[.%X1X|.(.%XY.I.[.|.|.>X>X>X>X>X%XS.1Xj - * X ( :X].I.Y.>X[.6X'   e.- 8 -X[.|.(.|.",
"B.B.`.>X>X>X`.`.`.%X9X8X`.(.%X-X[.<X%X%X,X,X>X%X<XB.|.[.[.4XB.|.|.$X%X{.(.2XY.:XH.|.T.S.1X,.5XU.`.^.p f.f $ ;.|.>X%X%X'.|.{._ w q y 1 qX[.>X:XI.",
"`.`.`.>X>X>X`.`.4X X{.(.(.4X<XS.`.>X1X1X%X].`.`.>X%X2X%X%X2XA. XZ.%X-X1X<X4XS.{..XoX-X`.{.~.[.H.%X[.p 0.$ = _ 5X<XN.Z.S.P.|.;.8.* 0.d yX`.].%X[.",
"`.%X>X>X>X%X`.`..._ ,.c :.%X=XI.`.`.,X4X%X%X%X,X`.].(.(.].%X$X:X|.[.%X%X[.&.) <.m } U.-X9X1X-X7X`.G.G i k M } %X&X_. X4X$X).*.i 8 P A H.`.A.1XS.",
"`.%X>X>X>X%X`.`.i * i., [ W..X*X<X|.|.4X%X%X<X4X|.4X|.|.|.|.>X>X-X[.1X9X|.] t q - k A.].].`._.).{.4X[.[.*X`.[.6X%X|.H.=X5X|.|.%X|.I.H. X.X1X:X*X",
"`.`.%X>X>X>X|.|.i # = X O.T.`.(.9XI.`.[.S.|.[.(.|.-X=X=X%XA.Z. X$X[.%X%X6X] @ 9 = W ,X%XC.U.1X,X%X=X.X|.:X%X`.-X1X XB._.|.I.H.6X'.%X`.`.`.D.|.[.",
"`.`.%X>X>X>X|.|.P = f.g =.2X.XZ.,X|.).(.4XT.Y.%X[.|.5X5X[.[.%X=X&X|.`.(.|.] = t @ Y [.%X(.-X:XH. X%X|.[.%X|.[.|.-X(.}. X4X X.X/.-X%X1X%X*X2X%X.X",
"|.|.|.>X>X>X|.|.I t $ 2 D H.*X&.N.].].(.5X9XL.9X|.N.$X$XN.<X9X-X:X1X2X|.1X+.w e u.Y :.:X).,.].[.|.%X%X|.-X%X|.|.H.|.|.K.R.=X<X{.H.`.S.>X1X1X%XU.",
">X>X>X|.>X>X].].:.`.|.=XG w y q ' yX1XN.*X].(.}.3.N y t u -.(.m. X4X%X`.|.%X*.$X[.F 7 0.5 P &.1X-X>X%X|.S.%X|.%X].4X` w f y P |.2X].[.|.>X<X/. X",
"].`.].>X>X>X>X>X X2X).U.~ ; y q.T }.2X-XZ.B..X<XN.: q i.- ;.4X<X|.|.>X>X|.`.].5X X} = g t 2 '.I.B.5XB.`.<X`.<X>X/..XH = = $ P 9X%X%X<X>X|.|.>X>X",
"`.`.].>X>X>X>X>XB.%X).S.Q . 3 y C [.1X:X|.I.|.%XA.h 0 p.= ;.|.(.].`.>X,X>X`.].%X XX.q g t 3 &X1XA.4X`.>X<X`.<X>X@X@X] t > $ C >X%X%X<X<X|.>X>X>X",
"%X%X>X>X>X>X>X%X X8X].1X~ * i.y.J [.I.:X|.I.|.-X| h X $ O -.I.4X`.`.>X>X,X>X`.].[.} q = & u _.I.>X`.>X<X`.%X<X`.Y.Y.Q t $ q Y =X%X%X<X%X>X>X>X>X",
">X>X>X>X>X>X>X].$X$X(.{.$X%._.n >.[.%X1X X`.].1XI.2.} X.} [.S.1X].`.|.>X,X>X>X`.|.%X_ ;.X.} .X%X<X`.<X<X`.%X<X`.|.{.%X..} } :.{.>X>X>X>X%X%X%X%X",
"<X<X<X>X>X>X>X].5X,X[.@X6X%X4X,X=X|.].|.[.`.`.4X[.&X|. X[.[.B.:.|.>X|.>X>X>X>X|./.,X[.XXXX[.|.$X<X`.<X<X`.>X>X`._.].<X%X4X<X%X|.>X>X>X>X>X>X|.|.",
"<X<X>X>X>X>X>X<X`.`.`.[.`.`.].%X`. X|.|.|.|.[.]. X<X%X%X-X1XqXqX>X<X>X%X%X>X>X>X].1X%X%X:X-X|.%X].`.|.4X|.|.|.`.9X>X`.(.[.`.<X2X|.>X>X>X>X|..X.X",
"<X4X|.>X>X>X>X<X>X4X4X>X|.A.`.|.(.I.>X|.<X|. X|.[.{.S. X|.`._./.|.>X<X>X%X%X%X%X%X1X X[.4X[.[.%X`.4X[.|.4X|.|.|.,X>X%X]..X.X`.`.,X,X>X>X4X|.|.[."
};
