/* XPM */
static char *_70af50bd8eb4b86ad2bec789f3a6804VEiU7dEjqsWLlZbK[] = {
/* columns rows colors chars-per-pixel */
"71 71 251 2 ",
"   c None",
".  c #0C0705",
"X  c #150C0B",
"o  c #1B0C0B",
"O  c #160906",
"+  c #1C130D",
"@  c #1B1609",
"#  c #0D0312",
"$  c #1B0C13",
"%  c #1C0D1B",
"&  c #150815",
"*  c #1D1413",
"=  c #1D1A14",
"-  c #1D131B",
";  c #1B1719",
":  c #230D0D",
">  c #23150C",
",  c #241B0E",
"<  c #261909",
"1  c #240C17",
"2  c #231514",
"3  c #241B14",
"4  c #2B1C14",
"5  c #24151B",
"6  c #241B1B",
"7  c #291B1B",
"8  c #2A1418",
"9  c #321C19",
"0  c #321C0F",
"q  c #1E2211",
"w  c #25211B",
"e  c #2B211C",
"r  c #282516",
"t  c #32241C",
"y  c #342817",
"u  c #313312",
"i  c #1C1927",
"p  c #1B1126",
"a  c #241522",
"s  c #231B22",
"d  c #2A1B24",
"f  c #261B2A",
"g  c #331B27",
"h  c #261930",
"j  c #18242F",
"k  c #292526",
"l  c #342925",
"z  c #342828",
"x  c #37332B",
"c  c #282437",
"v  c #372C33",
"b  c #3A3435",
"n  c #433B39",
"m  c #3C4719",
"M  c #354B19",
"N  c #294D2A",
"B  c #1C6C2B",
"V  c #246D2E",
"C  c #1F4129",
"Z  c #464B17",
"A  c #485817",
"S  c #4F5818",
"D  c #566B15",
"F  c #495425",
"G  c #4A423C",
"H  c #515529",
"J  c #67702C",
"K  c #60741E",
"L  c #292A47",
"P  c #292C54",
"I  c #383858",
"U  c #30324A",
"Y  c #313769",
"T  c #2D356E",
"R  c #493C42",
"E  c #394575",
"W  c #2F5743",
"Q  c #504949",
"!  c #645756",
"~  c #645847",
"^  c #776256",
"/  c #676257",
"(  c #6B5C64",
")  c #6B6668",
"_  c #797676",
"`  c #726A6E",
"'  c #555761",
"]  c #8D796D",
"[  c #298C35",
"{  c #18A838",
"}  c #17B337",
"|  c #25AB36",
" . c #27B438",
".. c #1F9735",
"X. c #69832A",
"o. c #6EA61D",
"O. c #29A243",
"+. c #89B225",
"@. c #8DBB1A",
"#. c #95D01D",
"$. c #97CA23",
"%. c #94CA20",
"&. c #A3CE27",
"*. c #968877",
"=. c #1B3795",
"-. c #253C94",
";. c #2A3D94",
":. c #263C9B",
">. c #2B3D9C",
",. c #273797",
"<. c #323D97",
"1. c #2C3C8A",
"2. c #2A3DA2",
"3. c #333DA3",
"4. c #34458B",
"5. c #2C4395",
"6. c #2C439C",
"7. c #2E4A9B",
"8. c #284696",
"9. c #334595",
"0. c #344A95",
"q. c #33459C",
"w. c #3A449B",
"e. c #344A9C",
"r. c #394B9C",
"t. c #3A4A93",
"y. c #3C529D",
"u. c #365196",
"i. c #2F4A8F",
"p. c #2D44A2",
"a. c #2A46A4",
"s. c #3445A3",
"d. c #344AA3",
"f. c #3A4CA2",
"g. c #364BAA",
"h. c #3B4CAA",
"j. c #3946A8",
"k. c #3C53A3",
"l. c #3955A7",
"z. c #3B4FB3",
"x. c #1F408F",
"c. c #424C9D",
"v. c #43539D",
"b. c #48579B",
"n. c #465083",
"m. c #526499",
"M. c #72728F",
"N. c #434DA4",
"B. c #4758A7",
"V. c #515CAA",
"C. c #4657B3",
"Z. c #4C63A6",
"A. c #5868A8",
"S. c #5C70AF",
"D. c #636CA6",
"F. c #6672A9",
"G. c #6B77B7",
"H. c #737AAF",
"J. c #616BC2",
"K. c #7884AB",
"L. c #7985B3",
"P. c #6D81B6",
"I. c #7D8187",
"U. c #7082C4",
"Y. c #8E8B8A",
"T. c #989595",
"R. c #928E91",
"E. c #AF9487",
"W. c #8687A9",
"Q. c #9695A9",
"!. c #848DB4",
"~. c #868DB9",
"^. c #8993B6",
"/. c #959BB8",
"(. c #8F8EAA",
"). c #97A6B8",
"_. c #A9A8AB",
"`. c #B4A6AB",
"'. c #ABACB5",
"]. c #B5AAB5",
"[. c #BCBCB5",
"{. c #B4BABB",
"}. c #BCBCBC",
"|. c #B5B5B8",
" X c #B0B3B0",
".X c #B1A4A2",
"XX c #C2BCBC",
"oX c #C9B9B8",
"OX c #D7BAB9",
"+X c #C9B1AE",
"@X c #E4BBB5",
"#X c #BDC2BD",
"$X c #BBC4B9",
"%X c #C3C2BD",
"&X c #C9C8BC",
"*X c #DCC7B9",
"=X c #D9CAB5",
"-X c #E8CBAC",
";X c #EDD3AD",
":X c #F6D6AD",
">X c #E7CBB9",
",X c #F4CEB4",
"<X c #F7CDBA",
"1X c #EBD3B7",
"2X c #F4D3B4",
"3X c #FBD4B4",
"4X c #F4DAB3",
"5X c #FCDAB3",
"6X c #F4D2BB",
"7X c #FBD4BB",
"8X c #FDDBBC",
"9X c #F5DBBD",
"0X c #F2CEAC",
"qX c #FDE1B9",
"wX c #919AC2",
"eX c #ABB7C4",
"rX c #BDBDC3",
"tX c #B6BBC5",
"yX c #AAB4D8",
"uX c #A9B0D1",
"iX c #97A5C0",
"pX c #C2BDC3",
"aX c #C2BDCA",
"sX c #C8BDC7",
"dX c #C4BCD0",
"fX c #BCC2C3",
"gX c #BCC6C8",
"hX c #C3C3C4",
"jX c #CAC5C5",
"kX c #C4CAC3",
"lX c #CACAC5",
"zX c #C4C4CA",
"xX c #CBC4CA",
"cX c #C5CACB",
"vX c #CACBCB",
"bX c #D2CCC9",
"nX c #CCD1C9",
"mX c #CBCCD1",
"MX c #C8C7D3",
"NX c #D1D1D1",
"BX c #DAD8D6",
"VX c #D0D2CF",
"CX c #EBD5C6",
"ZX c #F8D9C3",
"AX c #EBCCC2",
"SX c #FEE5C6",
"DX c #FCFCF6",
"FX c #FDFDFD",
"GX c #F7F8F8",
"HX c #F7F4EB",
"JX c #D4D8E4",
/* pixels */
"                                                                                                                                              ",
"                                                                                                                                              ",
"                                                          u u u u u u x x O.                                                                  ",
"                                                          o i 7 % - 1 > 1 [                                                                   ",
"                                                          6 = 7 = r 3 3 g [                                                                   ",
"                                                          , 8 > < 2 : @ 3 [     {                                                             ",
"                          S S A           S S H S A S S A Y Y T Y T Y Y E W N N N M H J H X.        S A A A                                   ",
"                        r & + &         D & % & & - - % f f.l.B.C.z.C.k.C.I 9 g * = g 7 % F         2 % % +                                   ",
"                        u 7 r -         D $ k 3 d d r y v k.l.c.u.B.y.v.C.U t k k v l l z F         a 6 4 4                                   ",
"                        < & X O           O < @ @ 2 4 < z N.z.y.B.N.B.c.B.U y e e l e l 3 A         X & & 2                                   ",
"                      K ~ ! ) ( J       F P P P L P P P Y N.N.v.B.N.l.N.l.E I Y I I I I P N     X.J / / ! ! K K                               ",
"        { { } [ 5 O # =  XNXmXBXQ # ; & Y z.g.j.r.d.d.f.f.N.r.N.f.c.e.f.g.g.B.B.l.l.l.y.h.T 6 d a b MXvXvX%Xb # $ @ % % * O                   ",
"        { |  ...5 3 6 4 `.pXrX&XQ ; e < P g.6.7.9.e.r.9.e.q.u.e.d.r.0.t.k.N.C.b.v.B.e.5.p.T t t t b hXhX{.[.v 5 4 5 6 3 w * D                 ",
"        { | } ..i = = 5 `.xX$X&XQ O + < P s.r.f.6.>.>.6.6.>.8.-.-.;.5.e.e.f.f.l.e.e.s.p.g.T @ 4 , G zXzXhX}.x 2 2 5 = X X . D                 ",
"                = 2 d s '.jX#XkX' i c f Y j.e.s.l.A.A.A.A.G.F.G.F.G.G.U.G.G.S.A.D.b.9.9.r.T j c c Q hXhXjX}.x + d @ b Q G n J                 ",
"                0 2 @ q ].xXfXMXD.3.h.j.e.s.q.;.S.&XjXpXxXFXFXFXFXFXFXGXFXBXzX%XlXK.5.e.q.s.g.q.j.m.gXcXxXXXx > 7 $ T.bXhXJX) . 3 # m         ",
"                2 3 a 8 `.kXfX&Xm.s.7.7.u.d.f.8.S.&XaXhXcXGXGXGXGXFXFXGXDXVXrX XhXK.8.e.0.e.q.9.s.V.XXhXzXrXx 2 7 X Y.lX|.mX_ o 9 % Z         ",
"                , = ; 7 `.hXfXlXA.3.e.q.i.9.w.:.S.&XXX[.kXFXDXFXGXFXFXFXDXVX{.{.lXL.2.e.;.;.d.0.8.V.zXMXzXhXx o 6 + Y.lX{.mX` . 4 + Z         ",
"                4 3 ; 6 _.zXsXjXD.<.r.d.k.N.N.e.F.fXpX%XcXHXGXFXFXGXGXHXHXlXrXxXbX!.q.r.v.c.<.i.0.Z.}.cXhX}.v 2 7 X Y.vX{.vX` $ 9 - Z         ",
"                3 8 2 3 _.kXpXzXA.>.r.>.P.gXtXeXrXzXaXkXtXlXaX#XkXhXrXzXzXpXaXzXlXgXeX{.rX(.<.N.f.Z.xXcXhXhXb X 7 * Y.jX{.vX` O 4 $ Z         ",
"                2 5 5 2 '.zXrXkXA.6.e.;.L.bXXX%XoX#XpX[.$XpXhXtXhXXXsX}.}.}.pXjX%XjXxX%XhX).7.B.k.V.hXkXhX}.x 2 7 X Y.vX}.lX` O 7 % Z         ",
"                2 3 3 3 _.zXXXhXD.p.g.6.K.kXaXgXhXhXsXXXjXrX$XaXpX}.gX}.{.pXsXhXkXkXhX%XmXiXk.k.l.Z.#XcXpX|.b 7 z 7 T.vX{.lX` X 6 % Z         ",
"                5 5 5 3 '.zXpXmXD.;.j.2.K.lXrX$X&X#XlXjX}.jX$XaX{.gX{.fXXXXX%X&XgXzXMXhXxX/.f.N.r.A.pXzX}.%Xn l l 7 T.NXfXvX_ o 4 % Z         ",
"                6 ; 2 0 `.zXfX$X|.).'.iXoX1X>XCX].V.B.V.D.>XCX,X6XAX6X-XCXH.B.Z.V.Q.CX6X1X*X'.|.eXuXoXrXpXlXb 7 l 7 T.vXkXNX_ X 4 $ M         ",
"                7 2 7 3 '.zXzXXXzXkXpXgX>X3X2X8X`.>.s.2.B.6X7X<X3X;X8X6X8XD.:.q.=.Q.ZXZX5X-XcXxXhXgXfXxXzXfXn t l 6 T.vXhXNX_ 5 4 2 C         ",
"                3 ; * w _.pXpXpXrX}.jXrX*X4X1X5X].2.0.0.V.,XZX9X9X4X,X2X5XF.6.f.2.Q.4X;X6X=XtXpX|.fX{.}.hX#Xn e e + Y.jXrXNX_ 5 w 2 C         ",
"                < : 1 2 |.NXcXvXMX#X%X}.*X2XZX8X`.a.e.6.V.,X2X:X3X<X<X7X8XD.2.u.a.(.8X-X<X-X[.sXXX}.BXBXbXbXn 3 3 X Y.jX}.NX_ s l : C         ",
"                B V V B ' ! / ! _.hX#XfXAX3X,X5X+X8.f.6.b.,X7X2X6X6XZX1X5XD.q.y.:.Q.3X6X6X>XtXXX}. X) ) / ) k 2 3 * Y.jX}.vX_ 4 z % m         ",
"                }  . . .@ o $ . R.bXpXrX*X2X4XqX`.8.h.2.b.,X4X7X<X4X:X:X5XF.:.f.:.Q.qX-X3X-X}.rXfX Xd * e 2 3 2 7 * Y.hX{.NX_ 4 x p Z         ",
"                { | | { l 2 6 > Y.jXpXtXbX5X;X8X+X8.r.s.V.<X3X2X7XZX<X<X8XH.9.y.6.Q.4X-X7X>X|.XXfX_.v l x 7 2 2 3 + Y.jXrXNX_ 6 l $ Z         ",
"                 .}  .| q 2 7 O T.BXvXmXCX3X3X5X].=.p.=.r.CX2X7X7X0X3X6XZXF.=.p.=.W.SX;X3X>XvXxXcX Xk k w e 6 2 3 X Y.vXfXNX_ 2 e - Z         ",
"                V V V V w = 7 2 ( ] _ _ .X8X1X7XOXW.W.W.Q.0X4X2X7X7X3X1X3X/.W.(.H.+X7X2X3X+X_ _ I._ l k z k 6 3 3 X R.vXfXmX_ 5 t 5 F         ",
"                1 8 : o = 3 = 3 : O $ . ] SX3X5X3X8XZXqXZX3X3X6X4XZX6X7X7X8XqX8X8X5X6X;XqXE.. $ X O 9 t l g z e t 3 T.NXfXmX_ = 4 X H         ",
"                7 5 = 6 d 5 7 6 d 3 r o ] SXAX6X7X2X0X;X;X<X6X7X4X2X4X2X2X6X6X6X>X4X2X;XSXE.% t = 6 e z l l z k v s T.vXgXcX_ X 3 - m         ",
"                > @ @ 2 o $ + o 2 O O . ] qX7X7X8X7X8X8X5XZX7X7X5X7X6X6X3X7X5X5X8X3X3X6XZXE.. + $ $ X - 6 w t t 9 6 T.VXvXvX` o 3 $ Z         ",
"                c c c L n Q N Q G Q Q b *.CX-X>X>X+X+X+XoX-X>X6X1X6X1X>XAXoX+X+XoXOX6XAX6X.Xn G Q n G R G G b U b v R.eX/.eX) f c c H         ",
"        & * - i s.g.d.u.tXlXlXzXkXlXxXhXhXpXhXlX/.-.a.a.k.rXpXfX{.rXfX#XfXA.;.p.:.L.kXrX[.}.MXjXzXMXzXgXlXzXB.g.h.e.d.6.q.8.9.5.e.z.E e z 6 n ",
"        a 4 4 6 0.k.q.d.'.oXpXfXfX#X}.zXhXrXgXpX/.s.d.s.b.#XjXhXrXxXsXXXlXA.6.u.8.L.kXaXhXsXhXaX$XaX%X X[.}.C.9.f.e.0.0.r.e.0.c.w.C.E 4 l r u ",
"        & 3 * i 7.s.d.7.tXlXgXrXhXkXrXzXhX#X#XNX/.>.e.p.b.#XrXzXfX%XpXrXvXA.>.j.3.H.bXzX}.aXfXrX%X}.%XhXxX}.B.5.5.e.e.k.f.l.d.N.v.C.E g g h k ",
"      X.t y t v e.q.e.e.'.}.tXtXXX#XgX%X}.tX{.XX/.e.d.5.b.#XcXkXfX%XlX#XlXS.s.d.8.H.%X|.{.tXfX$XhXhX{.tX].tXZ.f.v.v.B.V.V.B.B.f.u.C.E y y 3 u ",
"= r = ~ 1X-X1XoX0.e.s.r.k.k.y.e./.&X}.lX!.s.N.c.f.<.f.s.B.GXFXFXFXDXFXFXFXH.;.g.g.e.v.u.e.F.hXpXXX Xk.v.t.N.oX2X>X>X1X1X>XCX] 6 x d H         ",
"% 4 $ ! qX7X8X*Xe.q.w.s.p.s.q.6./.kXtX%XK.>.r.7.6.d.p.p.Z.FXFXFXFXDXFXDXFXG.:.e.k.e.q.r.p.D.MXfXzX].g.7.a.e.OX5X6X6X4X7X6XSX*.= x s F         ",
"$ 4 X ~ ZX2X7XOXf.q.d.d.0.9.r.9./.xXdXbXW.:.f.e.0.g.e.;.Z.DXFXDXFXDXDXDXDXH.>.9.0.e.j.d.>.D.jXXX&X'.r.s.e.9.=X5X6X<X,X2X2XSX] 2 l 8 Z         ",
"$ 3 X ~ ZX;X4X*Xr.6.0.8.i.d.l.w./.lX[.vXK.7.g.r.9.3.j.w.V.FXGXDXGXDXFXFXGXP.;.f.s.q.e.r.2.D.kXpXzXeXq.q.w.y.+X8X6X,X,X1X>XSX] @ 7 $ Z         ",
"% 7 & ! qX3X5X*Xr.d.s.h.L d h j n.Z.Z.V.B.p.g.d.e.e.0.9.g.A.J.S.S.S.A.A.S.k.d.q.e.g.g.5.0.v.V.Z.A.B.e.e.0.q.>X5X2X2X2X2X0X9X] X k - m         ",
"$ 4 $ ! qX<X8X>Xw.7.q.9.6 2 = < T g.>.5.0.p.9.s.6.d.d.d.a.4.:.;.-.5.7.>.>.p.g.d.s.9.e.0.g.s.<.6.s.9.j.0.9.0.@X5X,X6X7X3X0X8X] . 4 * Z         ",
"% 7 X ~ ZX0X4XOXc.7.j.s.k 5 a @ Y k.t.r.e.g.r.f.d.r.s.q.g.w.g.f.e.f.r.f.r.e.e.d.q.r.f.9.s.f.f.e.u.0.r.q.w.d.OXZX2X0X,XAX>XZX] @ e * F         ",
"# 2 # ! SXZXSX>Xh.p.r.d.w @ 3 8 T a.2.2.5.>.:.>.>.5.>.q.-.<.:.,.:.2.-.-.>.:.6.6.6.9.>.2.s.5.-.8.:.p.j.z.j.l.>XSXSX9XSXSX4XSX] # a # Z         ",
"K K K J ^ ^ ^ / P P P L s 2 3 @ M./.!.^.^.^.^.^.^.^.^.^./.yXyXyXyXyXyXyXyXwX^.W.!.^.^.^.^.^.^.~.wXK.U L L L ~ ^ ^ ( ^ ^ ^ ^ J                 ",
"$.#.#.  . X X o @ 3 @ 2 7 2 8 : T.VXlXjXlXlXlXlXlXjXlXjXVXFXFXDXDXFXFXFXFXBXhXlXlXkXlXlXjXlXlXlXVX X, @ 5 = o $ O X O o o # D                 ",
"@.%.$.  $ r d 6 4 d 2 d , , 5 O R.zX}.pXhX}.XXrXrXrXhXrXzXFXGXFXFXGXGXGXFXNX|.pXpX}.}.pXrXXX}.[.pX`.7 < a , = w 6 6 k w 3 i                   ",
"$.%.    O 2 1 X o $ a $ o 3 4 O T.NX&XjXlXlXlXlXlXlXlXhXVXDXDXDXFXDXFXDXDXBX%XlXlXlX&XlXlX&XlXvXvX Xs 3 8 2 ; % & 2 & $ 8 #                   ",
"o.o.    A A A         S 4 5 a @ M./.!.!.!.~.^.!.!.!.~.!.wXyXyXyXyXyXyXyXuX/.!.!.~.~.!.!.!.!.~.!.^.I.i ; 3 5 A A                               ",
"{  .                    t - @ = T 6.2.q.;.:.:.5.5.5.5.;.;.;.;.:.:.:.:.>.>.>.6.5.>.p.5.6.5.;.p.1.6.1.s 5 2 7                                   ",
"O. .                    r 2 < 5 T k.f.r.r.f.f.f.e.e.d.e.f.r.r.r.r.r.r.r.e.q.r.e.d.d.e.d.d.d.g.r.d.4.3 4 2 4                                   ",
"{ |                     u a = = T p.p.>.q.>.>.q.6.d.d.d.q.q.e.e.e.q.s.d.d.q.d.d.g.5.5.6.>.q.6.q.a.;.6 ; ; 3                                   ",
"                        u 5 , = ' A.A.Z.A.A.Z.A.b.6.0.d.p.g.e.e.e.s.d.7.d.e.q.d.q.B.D.A.Z.A.A.Z.Z.m.3 - = 7                                   ",
"                ; X * 3 5 7 d $ T.nX$XgX&X&X#XkX).q.q.s.w.w.w.q.e.s.q.e.q.f.q.q.>.K.VXfXjX%XjX&XvX`.0 5 3 3                                   ",
"                a 7 4 5 5 @ d & R.lXaXzXoXXXfXxXwX>.e.7.e.d.7.g.e.s.d.f.6.e.q.k.2.L.&X}.hXfXgXrXkX|.7 2 = ,                                   ",
"                = @ 2 8 2 w < @ R.mXaXgX%XhXfX%X/.>.0.g.q.s.s.d.e.d.e.e.g.e.d.5.-.L.lXfX%XpXzXxXkX'.a 2 6 3                                   ",
"                f w 6 h 5 = d X Y.zX|.eXrXsXhX&X).q.y.k.t.r.5.9.4.9.4.t.<.y.y.N.r.L.rX|.[.rXeXrXtX_.t , 2 3                                   ",
"        6 w 4 k <.0.9.5.i.0.9.9.0.y.k.7.L.MX[.XX}.tXrXhX_.d 6 s 6 s 6 6 5 Y.zX}.hXK.e.l.y.e.y.y.u.4.* , 2 5                                   ",
"        & 6 < k e.7.g.d.g.j.p.g.s.s.j.>.K.lXhXdXpX%XhXlX].3 > 2 3 3 3 7 $ T.cX}.bXK.-.e.q.0.d.s.p.9.s 5 5 7                                   ",
"        1 2 @ k 0.d.s.e.0.w.e.e.d.e.r.:.L.lX$XgX#XhXrXkX_., 5 7 3 2 4 7 $ R.mX{.bXK.p.r.j.i.s.f.d.1.= 7 2 6                                   ",
"        o 7 2 j 4.g.p.e.e.e.d.7.7.d.g.4.K.mXhXzXfXjXgXzX X4 2 @ 7 = + - O R.bX[.VXL.;.r.r.g.e.f.0.4.i @ 3 7                                   ",
"        @ 3 - 2 c c k c c k k h k c c c v n n b n x n R b 2 2 d , X.o.o.+.F v n n v h c k k c h f h 2 5 2 4                                   ",
"        $ 2 6 8 8 + @ 2 2 2 2 2 > > 2 = 2 o $ + > @ + > @ 2 2 * 6 +.#.%.&.m & 2 o > > 2 + > 5 > , 3 > 3 3 3                                   ",
"        * 4 4 3 q q w 3 3 w w 6 = 6 6 = 4 4 4 3 w 3 6 7 6 ; 6 , 6 +.%.+.$.m 8 4 3 6 s a 7 3 = = q w 5 w 3 @                                   ",
"        # & p $ $ $ % 1 o : % X $ % - % $ & $ 1 $ 5 $ : ; & 1 % X         m # % : + + : 1 - : p 1 $ $ $ % *                                   ",
"                                                  B   V B                                                                                     ",
"                                                                                                                                              "
};
