/* XPM */
static char *be06975989ee4618b5a2190339d8e280[] = {
/* columns rows colors chars-per-pixel */
"72 72 255 2 ",
"   c #000000",
".  c #0C0406",
"X  c #140B04",
"o  c #150B0B",
"O  c #18080A",
"+  c #1B0E0C",
"@  c #0E1708",
"#  c #181509",
"$  c #1C130C",
"%  c #1C1A0C",
"&  c #0B0714",
"*  c #140614",
"=  c #120B15",
"-  c #1B0D16",
";  c #18061A",
":  c #130A18",
">  c #1A0D19",
",  c #0D1816",
"<  c #141516",
"1  c #1E1412",
"2  c #151C11",
"3  c #1C1A13",
"4  c #1D131B",
"5  c #1D1B1A",
"6  c #271807",
"7  c #21150C",
"8  c #261B0D",
"9  c #32110A",
"0  c #240C1B",
"q  c #221614",
"w  c #2A1514",
"e  c #241916",
"r  c #2A1B15",
"t  c #25161A",
"y  c #2B151C",
"u  c #251A1B",
"i  c #2A1C1B",
"p  c #341917",
"a  c #16220E",
"s  c #1B2115",
"d  c #25240B",
"f  c #372C0E",
"g  c #3D320D",
"h  c #262217",
"j  c #2B211D",
"k  c #362617",
"l  c #040020",
"z  c #170625",
"x  c #1B1623",
"c  c #220C26",
"v  c #231523",
"b  c #291A23",
"n  c #351225",
"m  c #272121",
"M  c #2C2422",
"N  c #2D2627",
"B  c #312926",
"V  c #332827",
"C  c #3A362D",
"Z  c #3D3532",
"A  c #3E383C",
"S  c #4C151A",
"D  c #54101D",
"F  c #5B131D",
"G  c #493507",
"H  c #493C0C",
"J  c #493F12",
"K  c #531421",
"L  c #721024",
"P  c #4A2527",
"I  c #4E312E",
"U  c #483C39",
"Y  c #4B4901",
"T  c #4C420D",
"R  c #534B0F",
"E  c #4D4312",
"W  c #4A4515",
"Q  c #534413",
"!  c #534519",
"~  c #69640A",
"^  c #756B08",
"/  c #78730D",
"(  c #47413B",
")  c #4B413D",
"_  c #6B5B2B",
"`  c #383D40",
"'  c #4A3D4C",
"]  c #4C4345",
"[  c #534A52",
"{  c #900C2D",
"}  c #A6082E",
"|  c #AB0731",
" . c #B20634",
".. c #B70736",
"X. c #D2002C",
"o. c #C80539",
"O. c #D70539",
"+. c #DD033D",
"@. c #E30435",
"#. c #E50935",
"$. c #E4023D",
"%. c #EA013E",
"&. c #F4073D",
"*. c #EB163C",
"=. c #E81838",
"-. c #DA2333",
";. c #ED372A",
":. c #826C09",
">. c #867815",
",. c #9F6031",
"<. c #F06E1A",
"1. c #F16F23",
"2. c #FC6629",
"3. c #EF7024",
"4. c #F17224",
"5. c #9B3E48",
"6. c #CA0642",
"7. c #DD0442",
"8. c #DA0645",
"9. c #E60141",
"0. c #EA0142",
"q. c #E50449",
"w. c #EA0149",
"e. c #EA0F4A",
"r. c #F30143",
"t. c #FA0044",
"y. c #F20349",
"u. c #FD024B",
"i. c #D33645",
"p. c #E62749",
"a. c #E5274B",
"s. c #E9264C",
"d. c #F4364D",
"f. c #EA3A55",
"g. c #EC3C62",
"h. c #B64E54",
"j. c #926346",
"k. c #CE4E55",
"l. c #CA5657",
"z. c #C85659",
"x. c #E94D56",
"c. c #EA4D5E",
"v. c #E7565C",
"b. c #F55157",
"n. c #D56B5E",
"m. c #E5665A",
"M. c #F1635D",
"N. c #DB5A65",
"B. c #D1546F",
"V. c #E94D63",
"C. c #E65E65",
"Z. c #E45B6B",
"A. c #E95868",
"S. c #EA5A6C",
"D. c #F35668",
"F. c #EA5774",
"G. c #E46365",
"H. c #EB6264",
"J. c #EB646B",
"K. c #E66869",
"L. c #EB696A",
"P. c #F26665",
"I. c #F56869",
"U. c #EE726A",
"Y. c #ED6875",
"T. c #F26673",
"R. c #1AA938",
"E. c #35AD2E",
"W. c #23AC34",
"Q. c #2BAD33",
"!. c #26AA3B",
"~. c #29B337",
"^. c #58B72A",
"/. c #45B030",
"(. c #48B233",
"). c #67BB27",
"_. c #7BBC25",
"`. c #79BD28",
"'. c #6BC22F",
"]. c #1D9F45",
"[. c #17AC42",
"{. c #2BA942",
"}. c #2AB143",
"|. c #948C0D",
" X c #9C9A06",
".X c #A59C06",
"XX c #AA9B05",
"oX c #A59C0B",
"OX c #B3951C",
"+X c #9CA410",
"@X c #8ABE1C",
"#X c #93BE1D",
"$X c #99BD1A",
"%X c #ADA90C",
"&X c #BAB704",
"*X c #BDB509",
"=X c #86BE27",
"-X c #8CBE22",
";X c #8DBF2A",
":X c #92BD24",
">X c #9BBE24",
",X c #F38D17",
"<X c #C1AB0C",
"1X c #C1B707",
"2X c #C6B904",
"3X c #EBB41B",
"4X c #ED993A",
"5X c #F29333",
"6X c #F2953D",
"7X c #FAB727",
"8X c #F3BA22",
"9X c #F3AC35",
"0X c #97C30E",
"qX c #85C41C",
"wX c #8EC319",
"eX c #8CC31D",
"rX c #95C617",
"tX c #94C21C",
"yX c #99C21D",
"uX c #A1C61A",
"iX c #84C523",
"pX c #8DC223",
"aX c #89C925",
"sX c #91C321",
"dX c #9AC324",
"fX c #93C926",
"gX c #93C32E",
"hX c #98C72D",
"jX c #99C82E",
"kX c #9BCA30",
"lX c #D5CD03",
"zX c #DACC01",
"xX c #DAD303",
"cX c #D9D212",
"vX c #EFD20E",
"bX c #DDE001",
"nX c #EAE505",
"mX c #FCE604",
"MX c #F4EC01",
"NX c #F3E806",
"BX c #FCEC02",
"VX c #FBE60A",
"CX c #FDEB0A",
"ZX c #F5F401",
"AX c #FDF302",
"SX c #F5FA02",
"DX c #FEFD02",
"FX c #F6F60B",
"GX c #F3F60D",
"HX c #FDF30B",
"JX c #FCFD0B",
"KX c #FBE914",
"LX c #ED9347",
"PX c #F69843",
"IX c #EE6380",
/* pixels */
"sXsXyXpXtXaXeXeXtXeXpXsXsXtXsXeXeX0XsX0X`.[.!.W.!.yX#XeXrX=X#XsXgXgXgXgXhXeXhXgXgXgXpX-XpXpXpXeXpXtXE.W.{.[.'.yXtXrXyX=XsX#X:XyXsXsX_.W.yXW.R.gX",
"qXaXdXpXsXiXpXsXtXtXpXsXsXsXsXeXgXyXgXtX`.R.W.W.}.eXsXpXyX=XtXeXgXhXjXjXjXeXjXhXgXgXsXpXpXpXeX@X#X:X}.W.~.!.^.$X`.pX-X-XtXtXpXpXqXwX@XQ.{.!.W.gX",
"pXeXtXwX$XtXyX0XsXsXsXsXsXsXsXpXiXqXiXyXyX{.Q.~.W.@XgX:X#X;XsXpXhXjXeXhXgXgXhXjXhXhXgXpX@XeX@XeXyX-X{.R.R.].).rXdXyXyX#X#XeXpXeXtXyXqXyXR.R.W.gX",
"yXyXaXeXyXgXdXeXpXsXsXsXsXpXeXsXuX0XtXeX).W.R.R.E.@X:XpX#XpXsXfXjXjXgX;X-XsXgXjXkXhXsXpX-X-XpXeX>X@X/.W.W.!.).@X;XpXpXsXwXeXsXtX;X;X'.~.R.R.W.gX",
"eXsXyXpX/.~.E.yXiXsXtX;X;XpX;X;X;X;X;X;X;X;X;X;X;X;X;X;X;X;X;X;X;X;X;X;X;X;X;X;X;X;X;XgX;X;X;X;X;X;X;X;X;X;X;X;X;XE.^.fXrXeX-XpXeXyXeX_.`.`.).gX",
"yXfXdXiX!.R.R.R._.pXtXtXsX  m q j u m M j j M M m m m m m m m i m m m m m m m m i m m m m m m i N i m i i j ;XgX;XR.(.fXeXpXyXsXeX>XaXpXtXdXqXgX",
"yXeXeXqX!.Q.~.R._.pXtXtXsX  o i q 1 q q 1 1 1 1 1 1 1 1 q q q 1 1 1 q q q 1 1 1 1 q q 1 1 1 1 1 q 1 q q q q $     W.^.fXeXpXyXrX$X$XtXtXwXtXwXgX",
"eXeXfXqX{.R.R.R._.sXtXtXsX  1 e e q q e q e u u e e e e r e e e e e q q q e e e q e e q q e e e q r u q q e $     [.(.uX$XsXyXiXaXtXeX#XpXgXeX`.",
"eXsX:X=X).).).).(./.^.      9 3 4 i 5 u y 1 t u q e e e q q q q q q q q q q q q q q q q q q q q t q 8 q v y 7 `         sXyXyX$XtXtXtXsXpXsXtX`.",
"eXeXtXtXtXtXtXyX(.  B U U ] z.z.z.l.z.l.l.z.l.z.l.l.l.l.l.l.l.l.l.l.l.l.l.l.l.l.l.l.l.l.l.l.l.l.z.z.l.l.z.l.l.h.C A C     aXiXiXsXsXsXsXpXpXtX`.",
"yXpXpXsX:X>XdXsXE.  # i . P T.M.I.I.P.P.P.L.P.P.P.P.P.P.P.P.P.P.P.P.P.P.P.P.P.P.P.P.P.P.P.P.P.P.P.L.H.I.L.P.I.z.1 # $ b   sXsXyXsXyXsXsXyXpXpX`.",
"tXeXeXpXpXpXaXiXE.  X 6 5 P M.H.v.C.H.H.C.G.C.H.C.C.C.C.C.C.C.C.C.C.C.C.C.C.C.C.C.C.C.C.C.C.C.C.G.C.C.J.G.v.T.h.% b e B   yXtX#XsXsXsXsXpXsXpX`.",
"pXtXtXtXtXwXrXrX    . O ; P T.m.K.K.J.Y.J.T.J.T.J.J.J.J.J.J.J.J.J.J.J.J.J.J.J.J.J.J.J.J.J.J.J.J.J.J.Y.J.L.I.Y.h.= - ; v         sXsXsXsXsXsXsX`.",
"pXeXsXsX:X:X      _ *X<X%XOXS.P.M.D.a.a.a.s.a.s.a.a.a.a.a.a.a.a.s.s.s.s.s.s.s.s.a.a.a.a.a.a.a.a.s.a.s.a.a.s.a.i.%X%X%X%X          sXsXsXsXsXsX`.",
"rXrXeXsXsX    $ & ^ DXAXDXKXY.m.I.D.q.$.$.%.+.9.9.9.9.9.9.9.9.9.9.9.9.9.9.9.9.9.9.9.9.9.9.9.9.9.0.$.0.0.$.9.$.d.DXDXDXbX6 & . X     sXsXsXsXsX`.",
"dXpXaXpXyX  1 j 0 :.DXNXBXvXA.T.m.A.8.9.%.%.+.9.0.0.0.0.0.0.0.0.9.9.9.9.9.9.9.9.0.0.0.0.0.0.0.0.0.$.0.0.$.w.O.;.HXmXCXnXk i j w     sXsXsXyXsX`.",
"fX#XyXsX    * > & ~ DXGXDXKXY.m.K.K.@.%.w.7.0.$.9.9.9.9.9.9.9.9.$.$.%.%.%.%.%.%.+.$.$.+.$.$.$.r.9.$.$.0.w.+.#.d.JXSXDXNX< : - .           `.eX`.",
"gX        j./ |./ OX8X9X7X5Xf.f.f.f.%.9.9.7.9.q.9.9.9.9.9.9.9.9.9.9.9.9.9.9.9.9.0.r.r.0.0.%.9.9.0.$.$.9.0.$.@.*.,X,X,X,X>./ >.>.          `.`.`.",
"gXZ . o .  XDXSXDX9XS.F.D.V.%.w.$.0.$.q.y.w.%.%.0.0.0.0.0.0.0.0.q.q.9.9.9.9.9.9.9.9.0.9.9.0.0.7.0.0.%.$.9.0.$.#.8.9.$.-.KXJXSXDXg . $ .   `.`.`.",
"gXU 7 j c oXAXKXZX7XA.P.H.V.@.q.7.0.0.$.%.$.9.7.$.$.$.$.$.$.$.$.9.9.$.$.$.$.$.$.7.$.$.%.$.0.0.$.0.$.%.$.0.0.9.$.+.w.0.e.mXMXMXCXQ 1 i -   `.`.`.",
"gX' - r z .XDXKXJX7XZ.G.K.Z.O.$.7.w.0.0.$.%.r.0.w.0.0.0.0.0.0.0.y.t.t.t.t.t.t.t.y.r.y.y.0.0.0.y.9.$.$.$.9.0.9.9.0.0.0.e.VXAXAXHXQ - u -   `.`.`.",
"gX] + d *  XDXMXSX7XC.J.J.x.%.t.9.q.%.$.O.$.o.|  . . . . . . . . . . . . . . . .| }  .| | | } +.0.$.9.9.$.9.9.9.w.+.8.=.BXAXAXAXQ > b     `.`.`.",
"gX] O e z .XDXMXDX8XZ.G.T.b.%.0.7.$.%.0.q.8.S @ 1 1 1 1 1 1 1 1 2 2 2 2 2 2 2 2 3 2 q 1 w q 1 { 0.$.9.9.$.$.$.$.%.@.9.=.BXAXHXAXH : N     `.`.`.",
"gXU 7 j z  XDXVXDX7XF.H.H.x.+.8.$.$.0.8.9.w.S s e e e e e u u e q q q t t t t y y 5 y 5 y 1 2 { r.%.0.0.$.%.$.$.q.q.9.*.NXAXBXBXR < i     `.`.`.",
"gX] o r * oXDXBXDX8XA.I.n.V.0.w.%.%.@.$.w.t.S 4 q r $ x u 1 4 1 4 4 t t t t t t 1 4 0 2 w u s { y.r.0.0.0.0.0.y.7.9.r.*.CXSXHXHXW 1 u     `.`.`.",
"gX( $ i = |.nXbXnX3XN.N.l.k.O.o.O.8.o.6.o.X.S 1 d > k g k k k g f f f f f f f f g f G h $ r - L 8.8.8.O.O.O.8.8.O.O.O.-.vXNXnXnXW > b     `.`.`.",
"gX] X 8 5 p k r M r y r m n n 8 q n p 9 w p 1 t v c |.ZXMXCXmXNXMXMXMXMXmXmXmXmXNXHXCX! x q v w p w w w w w w p t r i n d r r h e 8 e -   `.`.`.",
"gXU $ y 5 q 1 q $ w r u % # e s q s # $ v 5 5 % h :  XDXBXCXAXAXHXAXAXAXAXHXHXHXHXHXAX! = 6 w u e e e e e q q u e q 2 q q y q % q u i X   `.`.`.",
"gX) $ y 5 t q u s q 8 x v q u 6 q 3 b w y e q y 3 *  XDXBXBXAXAXBXBXBXBXBXBXBXBXHXBXDXR ; e 8 e 3 3 5 5 3 3 1 q 3 i x e v w q v q u i X   `.`.`.",
"gX] X r 4 y w w q 0 7 v 1 3 x v 0 8 1 q b s 1 6 i 0 .XJXCXBXAXAXAXAXAXAXAXAXAXAXBXBXDXH 0 d < b r q t t q w w w q w 7 $ b b q u q 8 u -   `.`.`.",
"gXU $ N : |.xXlXxXxXzXcXzXlXzXzXcXlXlXxXvXzXT c h :  XDXNXAXHXFXAXAXAXAXAXAXAXAXDXBXNX! z e - |.xXzXzXzXzXzXzXzXxXxXzXzXxXlXzXzXJ > b X   `.`.`.",
"gX' * r * oXDXHXAXJXAXHXDXJXHXSXDXAXAXJXAXDXW 0 r z oXDXMXAXAXBXAXAXAXAXAXAXBXBXBXAXHXJ , d ; XXDXJXAXHXJXJXJXHXDXZXDXDXDXFXJXJXW - b o   `.`.`.",
"gX) + i = .XDXBXVXCXAXMXFXMXCXBXZXBXMXmXCXJXY c d z .XSXBXCXFXAXAXAXCXAXAXAXCXmXVXBXHX! , p ; +XHXMXBXCXCXMXBXZXCXZXBXAXMXBXBXAXT - r     `.`.`.",
"gX) + i = oXDXBXZXAXCXDXDXDXDXJXAXDXDXDXAXHXR > h X .XDXAXDXJXBXHXBXHXAXAXCXBXDXJXDXJXR = m . +XDXAXAXDXDXAXDXDXAXDXDXBXDXHXCXHXT 4 j     `.`.`.",
"gX) + i = oXDXBXHXvXLXPX6X6X6X4XLXPX6XPXLXPXI O r < R ^ ~ ~  XJXAXAXAXMXAXKXnX^ ~ ^ ^ k q s - ,.PX6X6XPXPX6XPXPX4X6X6X4XBXZXBXAXE - i     `.`.`.",
"gX) + i : oXDXBXDX7XB.F.F.F.C.N.Z.C.A.Z.S.D.P a y x x * x l ~ DXAXBXAXAXAXBXnXq & ; : v r % u 5.T.F.S.F.S.S.F.F.A.S.F.L.mXDXAXHXW > r     `.`.`.",
"gX) + i : oXDXBXSX8XF.P.H.J.G.K.m.G.T.G.M.M.P < t 8 u b r - / DXVXMXAXCXBXCXnXr r w i e q n 1 5.I.H.G.G.G.G.G.G.G.m.G.U.mXAXBXAXQ > u     `.`.`.",
"gX) + i = oXDXBXJX7XF.M.m.H.H.T.K.Y.Y.G.U.U.I , 3 7 1 j 6 O / SXZXDXDXJXDXDXnXf q q h % , x @ ,.I.J.J.L.L.L.L.L.Y.m.G.U.MXAXCXAXQ : u O   `.`.`.",
"gX) + i = oXDXBXSX8XZ.m.K.v.f.f.f.d.d.s.f.g.{ L L L p 2 e 0 !  X|.|.|. X|.|.|.r u u o F L F L i.f.f.f.f.f.f.f.f.f.d.f.b.BXAXCXAXE > i O   `.`.`.",
"gX) + i = .XDXBXJX8XS.H.IXc.O.%.+.@.8.q.@.%.@.u.&.u.L x q e 1 o = - ; . : z * q t u 3 6.u.0.u.+.0.%.%.0.0.0.%.%.+.@.9.=.VXZXBXAXE > i O   `.`.`.",
"gX) + u = XXDXMXDX8XS.H.L.V.0.9.9.9.9.9.9.9.9.9.+.y.F 2 p u 5 y i u u u u u u u y w 2 ..0.$.$.$.$.$.$.9.9.9.$.$.0.$.9.*.VXAXBXAXE > i +   `.`.`.",
"gX) + u = XXDXMXDX8XZ.C.J.V.0.9.9.9.9.9.9.9.9.9.r.y.F @ 3 , 2 q 3 3 3 3 3 3 3 3 , 2 % ..r.0.9.0.$.$.$.9.9.9.$.$.0.$.9.*.VXAXBXAXE 4 i X   `.`.`.",
"gX) + i = XXDXBXDX8XZ.C.J.V.%.$.9.9.9.9.9.9.9.9.+.0.{ D F S K K D D D D D D D D D K F o.9.9.9.0.$.$.$.9.9.9.$.$.0.$.9.=.VXAXBXAXH > u +   `.`.`.",
"gX( + i = XXDXBXDX8XZ.H.J.V.%.$.9.9.9.9.9.9.9.9.$.t.0.9.r.0.r.0.0.w.0.w.0.0.0.0.y.w.+.y.9.0.7.9.$.$.9.9.9.9.$.$.0.$.9.=.mXAXAXAXT > r +   `.`.`.",
"gX) + i = XXDXBXDX8XS.H.J.c.%.$.9.9.9.9.9.9.9.9.$.%.0.0.9.$.0.9.$.$.$.$.$.$.0.0.+.$.$.9.+.%.9.0.$.$.9.9.9.9.$.$.0.$.9.=.mXAXAXAXQ 4 e O   `.`.`.",
"gX) + i = XXDXBXDX8XS.H.L.c.%.$.9.9.9.9.9.9.9.9.9.9.9.9.+.$.0.0.9.9.9.9.9.9.0.9.0.0.r.r.0.9.+.$.9.9.9.9.9.9.$.$.0.$.9.=.VXAXAXAXT > e +   `.`.`.",
"gX) + u = XXDXBXDX8XS.H.L.c.%.$.9.9.9.9.9.9.9.9.0.$.9.9.0.0.9.7.$.$.$.0.0.0.0.0.$.$.9.9.9.7.9.%.9.9.9.9.9.9.$.$.9.$.9.=.VXAXAXAXT > u +   `.`.`.",
"gX) + u = XXDXBXDX8XS.H.L.c.%.$.9.9.9.9.9.9.9.9.0.9.9.9.%.0.$.$.9.9.9.9.9.9.9.9.9.0.9.$.0.$.%.%.9.9.9.9.9.9.$.$.9.$.9.=.VXDXBXAXT > i     `.`.`.",
"gX) + u = XXDXBXDX8XS.G.K.c.$.$.9.9.9.9.9.9.9.9.9.9.9.9.9.9.9.9.9.9.9.9.9.9.9.9.0.0.0.0.0.0.0.0.9.9.9.9.9.9.9.9.9.9.$.*.BXAXAXAXE - i o   `.`.`.",
"gX) + u = XXDXBXDX8XS.G.K.c.$.9.9.9.9.9.9.9.9.9.9.9.9.9.9.9.9.9.9.9.9.9.9.9.9.9.9.9.9.9.9.9.9.9.9.9.9.9.9.9.9.9.9.9.$.*.BXAXBXAXE - r X   `.`.`.",
"gX) + u = XXDXBXDX8XS.H.K.c.$.9.9.9.9.9.9.9.9.9.9.9.9.9.9.9.9.9.9.9.9.9.9.9.9.9.9.9.9.9.9.9.9.9.0.0.0.0.0.0.0.0.9.9.$.*.BXAXBXAXW - e     `.`.`.",
"gX) + u = XXDXBXJX8XS.H.L.c.%.0.9.9.9.9.9.9.9.9.9.9.9.9.9.9.9.9.9.9.9.9.9.9.9.9.9.9.9.9.9.9.9.9.9.9.9.9.9.9.9.9.9.9.$.*.BXAXBXAXW - r     `.`.`.",
"gX) + u = XXDXBXJX8XS.H.L.c.$.0.9.9.9.9.9.9.9.9.9.9.9.9.9.9.9.9.9.9.9.9.9.9.9.9.9.9.$.$.9.9.9.9.9.9.9.9.9.9.9.9.$.9.$.*.mXAXAXHXE - i     `.`.`.",
"gX) + i = XXDXBXJX8XS.H.L.c.9.9.9.9.9.9.9.9.9.9.9.9.9.9.9.9.9.9.9.9.9.9.9.9.9.9.9.9.9.9.9.9.9.9.9.9.$.9.9.9.9.9.$.9.$.*.mXAXBXAXE - r X   `.`.`.",
"gX) + i = XXDXBXJX8XS.G.K.V.9.9.9.9.9.9.9.9.9.9.9.9.9.9.9.9.9.9.9.9.9.9.9.9.9.9.9.9.9.9.9.9.9.9.0.0.0.0.0.0.0.0.$.9.$.*.mXAXBXAXE - r X   `.`.`.",
"gX) + i = XXDXBXJX8XS.G.K.V.9.9.9.9.9.9.9.9.9.9.9.9.9.9.9.9.9.9.9.9.9.9.9.9.9.9.0.0.0.0.0.0.0.0.0.0.0.0.0.%.0.0.$.9.$.*.mXAXBXAXE - i X   `.`.`.",
"gXU $ u * .XDXMXSX7XS.P.K.x.+.q.9.9.9.9.9.9.9.9.9.9.9.9.9.9.9.9.9.9.9.9.9.9.9.9.9.9.9.9.9.9.9.9.9.9.9.9.9.9.9.9.9.q.9.=.KXHXBXAXQ - r X   `.`.`.",
"gXU + i ; oXDXMXDX7XF.J.Y.b.#.$.#.#.#.#.#.#.$.$.#.$.$.$.#.#.#.#.#.#.#.#.$.$.#.#.#.#.#.#.#.#.#.$.@.@.@.@.#.#.#.#.@.%.%.=.mXSXZXAXE > r X   `.`.`.",
"gXU + i * .XDXBXAX7Xv.A.F.V.q.w.w.w.w.w.w.w.w.w.w.w.w.w.w.w.w.w.w.w.w.w.w.w.w.w.w.w.w.w.w.w.w.w.q.q.q.q.9.9.9.9.8.8.7.a.vXAXmXCXE 4 r X   `.`.`.",
"gXU + i > oXDXMXJXvX4X9X9X5X<.3.1.1.1.1.1.1.1.1.1.1.1.1.1.1.1.1.1.1.1.1.1.1.1.1.1.1.1.1.1.1.1.1.4.4.4.4.4.4.3.3.2.<.<.4.mXHXBXZXH 4 j     `.`.`.",
"gX] - e * oXJXAXZXAXCXDXDXDXDXDXDXDXDXDXDXDXDXDXDXDXDXDXDXDXDXDXDXDXDXDXDXDXDXDXDXDXDXDXDXDXDXDXDXDXDXDXDXDXDXDXJXJXDXCXDXBXBXZXJ 4 B     `.`.`.",
"gXU + 8 + oXJXNXMXBXAXZXBXMXMXBXBXBXBXBXBXBXBXBXBXBXBXBXBXBXBXBXBXBXBXBXBXBXBXBXBXBXBXBXBXBXBXBXBXBXBXBXBXBXBXBXmXNXMXBXMXVXBXGX! v B     `.`.`.",
"gX[ - 8 + .XDXDXJXDXJXSXHXHXJXJXDXDXDXDXDXDXDXDXDXDXDXDXDXDXDXDXDXDXDXDXDXDXDXDXDXDXDXDXDXDXDXDXDXDXDXDXDXDXDXDXDXJXSXJXDXJXDXGXW b B     `.`.`.",
"gXU - j z >.2X1X2X<X&X&X2X1X&X*X1X1X1X1X1X1X1X1X1X1X1X1X1X1X1X1X1X1X1X1X1X1X1X1X1X1X1X1X1X1X1X1X*X*X*X*X*X*X*X*X&X1X2X<X1X&X&X1XH v B     `.`.`.",
"gX] 1 e u 1 O - > > > > > > > > - - - - - - - - - - - - - - - - - - - - - - - - - - - - - - - - - - - - - - - - - - - - - - - - 1 i i     `.`.`.",
"gX( o e e u u b e e e e e e e e t t t t t t t t t t t t t t t t u u u u u u u u u u u u u u u u u u u u u u u u i u q i B B M u i u M     `.`.`.",
"gX( X 7 $ 1 q q 7 7 7 7 7 7 7 7 1 1 1 1 1 1 1 1 1 1 1 1 1 1 1 1 q q q q q q q q q q q q q q q q 1 1 q 1 1 1 q q 1 1 q i M M j e 1 $ N 1   `.`.`.",
"gX[ u B C N M B B B B B B B B B B B B B B B B B B B B B B B B B B B B B B B B B B B B B B B B B B B B N N N N B B C Z Z Z Z Z Z B N Z C   `.;X`.",
"gXgXgXgX`.`.`.`.`.`.`.`.`.`.`.`.`.`.`.`.`.`.`.`.`.`.`.`.`.`.`.`.`.`.`.`.`.`.`.`.`.`.`.`.`.`.`.`.`.`.`.`.`.`.`.`.`.`.`.`.`.`.`.`.`.`.`.`.`.;X;X`.",
"`.`.`.`.`.`.`.`.Q.Q.`.`.`.pX`.pXpXpX`.`.`.`.`.`.`.`.`.`.`.`.`.pX`.`.`.Q.`.Q.`.pX`.`.`.`.`.`.`.`.`.`.`.`.;X`.`.`.`.Q.Q.`.`.`.`.`.`.`.`.`.;X;X;X`.",
"`.`.`.`.Q.Q.`.`.Q.`.`.`.pX`.`.`.`.`.`.pXpX`.`.gXgX`.`.`.gX`.`.pX`.pXpXQ.Q.Q.pXpXpXgXgX;X;X;X;X;X;X;X;X;X;X;XgX`.Q.Q.Q.Q.Q.Q.;X;X;X;XQ.Q.;XgX;XgX",
"`.`.`.`.`.`.Q.Q.Q.`.`.`.`.hXhX`.`.`.`.`.`.pXpX`.`.`.`.`.`.`.`.`.`.`.`.Q.Q.Q.`.`.`.`.`.`.`.`.`.`.;XgX`.`.`.`.;X;X;XQ.Q.`.Q.Q.`.`.`.`.Q.`.Q.`.`.`."
};
