/* XPM */
static char *_8324c59399f4b69aea41924d3c8f638[] = {
/* columns rows colors chars-per-pixel */
"71 71 175 2 ",
"   c #0D0505",
".  c #130606",
"X  c #130A07",
"o  c #1C0E05",
"O  c #150A09",
"+  c #190E0C",
"@  c #1D120D",
"#  c #1C180C",
"$  c #1E1311",
"%  c #1E1A14",
"&  c #1F1919",
"*  c #220E0B",
"=  c #220E05",
"-  c #23140E",
";  c #28150F",
":  c #23180E",
">  c #240F14",
",  c #221614",
"<  c #291515",
"1  c #231816",
"2  c #281B15",
"3  c #23161A",
"4  c #251A19",
"5  c #291C1B",
"6  c #311E1C",
"7  c #27211C",
"8  c #2B211E",
"9  c #30231D",
"0  c #2A1E20",
"q  c #321D24",
"w  c #172929",
"e  c #1D2C2D",
"r  c #1B2527",
"t  c #1E2A32",
"y  c #252420",
"u  c #2D2422",
"i  c #2B2924",
"p  c #222C2D",
"a  c #2D2C2E",
"s  c #322523",
"d  c #322826",
"f  c #382A27",
"g  c #36272A",
"h  c #332C2A",
"j  c #392C2A",
"k  c #2D3027",
"l  c #2B302A",
"z  c #31312F",
"x  c #39332E",
"c  c #262733",
"v  c #222B33",
"b  c #2C2D33",
"n  c #262539",
"m  c #202938",
"M  c #28293B",
"N  c #332D33",
"B  c #322B39",
"V  c #203234",
"C  c #2B3633",
"Z  c #2D313B",
"A  c #27393B",
"S  c #353233",
"D  c #3B3433",
"F  c #303A3C",
"G  c #3C3938",
"H  c #413635",
"J  c #413837",
"K  c #403738",
"L  c #463E3D",
"P  c #493F3E",
"I  c #49413F",
"U  c #483F40",
"Y  c #4C4342",
"T  c #524847",
"R  c #574D4C",
"E  c #5B5453",
"W  c #5F5C5D",
"Q  c #635B5A",
"!  c #65615E",
"~  c #6B6564",
"^  c #6F6A67",
"/  c #6E6E6E",
"(  c #636564",
")  c #726E6D",
"_  c #6F716E",
"`  c #72716F",
"'  c #7A726F",
"]  c #6E6E71",
"[  c #716F70",
"{  c #6F7072",
"}  c #757474",
"|  c #7A7674",
" . c #7D7976",
".. c #767679",
"X. c #797779",
"o. c #74797A",
"O. c #7C7A7B",
"+. c #817977",
"@. c #827D7C",
"#. c #84817F",
"$. c #7F7F81",
"%. c #858585",
"&. c #898685",
"*. c #868887",
"=. c #898788",
"-. c #8A8A8A",
";. c #908788",
":. c #918E8F",
">. c #8E908F",
",. c #928F90",
"<. c #919191",
"1. c #989B9C",
"2. c #A09B9F",
"3. c #A4A3A2",
"4. c #AEAEAE",
"5. c #ABA8A4",
"6. c #B1ABAA",
"7. c #B5B2AF",
"8. c #AFB1B0",
"9. c #B3B3B3",
"0. c #B6B6B6",
"q. c #B4B4B4",
"w. c #B4B4B4",
"e. c #B9B4B5",
"r. c #B7B9B7",
"t. c #B8B8B6",
"y. c #B5B6B8",
"u. c #B4B8B9",
"i. c #B9B9B9",
"p. c #BABAB9",
"a. c #B9B9B9",
"s. c #C1C1BF",
"d. c #C5BFC1",
"f. c gray77",
"g. c #C2C2C1",
"h. c #CECBC6",
"j. c #C7C7C9",
"k. c #CDCDCD",
"l. c #D2CECC",
"z. c #CCD3CF",
"x. c #D5D2CD",
"c. c #D1CFD0",
"v. c #D1CFD0",
"b. c #CFD1D0",
"n. c #D3D3D3",
"m. c #D9D5D6",
"M. c #D7D9D6",
"N. c #D6D8D7",
"B. c #D9DAD7",
"V. c #D6D6D8",
"C. c #D9D7D8",
"Z. c #D7D9D8",
"A. c #D9D9D9",
"S. c #DADADA",
"D. c #DFDFDF",
"F. c #DDDDDD",
"G. c #DCDCDC",
"H. c #E2DEDD",
"J. c #DEE0DF",
"K. c #E4E0DF",
"L. c #DEDEE0",
"P. c #E3DFE2",
"I. c #DEE4E2",
"U. c #E2E2E2",
"Y. c #E5E5E5",
"T. c #E6E6E6",
"R. c #E3E3E2",
"E. c #E8E6E4",
"W. c #E7E9E6",
"Q. c #E8E9E7",
"!. c #EBEBE9",
"~. c #E9E9E9",
"^. c #ECEBEA",
"/. c #F1EEEC",
"(. c #FAF6F5",
/* pixels */
"= 2 , , , - - , , - - , , - - , , , , , , , , , , $ $ , , $ $ , , , , , , , , , $ $ $ , , $ $ $ @ @ - , , , , - , , $ $ , , , $ 2 , , : , # n ",
"* 2 1 1 1 2 1 4 1 1 1 1 1 1 1 1 1 1 1 1 1 , 1 , 1 1 1 4 4 1 1 4 1 , 1 1 1 1 , , 1 1 1 1 1 1 1 1 , , 1 1 1 1 1 1 1 1 1 1 1 1 1 1 2 , , 2 5 : M ",
"* 5 3 3 4 , , 1 , , , , , , , , 1 1 1 1 1 1 1 1 1 , , , , , , 1 1 1 1 1 1 1 1 , 1 1 1 1 1 1 1 1 1 1 1 1 1 1 1 1 1 1 1 1 1 1 1 1 1 3 1 2 4 # n ",
"* 5 3 , 1 , , , , , , , , 1 1 , , , , 1 1 , , , 1 1 1 1 1 1 1 1 , , , 1 1 , , , , , , , , , , , 1 1 1 1 1 1 1 1 , , , , , , , , 1 3 1 2 3 # n ",
"o 2 4 1 1 2 2 1 , 1 1 , , 1 1 , 1 1 1 1 1 1 1 1 1 1 1 1 1 1 1 1 1 1 1 1 1 1 1 1 1 1 1 1 1 1 1 1 1 1 1 1 1 1 1 1 1 1 1 1 1 1 1 1 , 3 1 2 3 : B ",
"o 1 1 , 2 2 1 1 , 1 1 , , 1 1 , 1 1 1 1 1 1 1 1 , , , , , , , , 1 1 1 1 1 1 1 1 , 1 1 1 1 1 1 , 1 1 1 1 1 1 1 1 1 1 1 1 1 1 1 1 , 4 1 2 3 : B ",
"o 1 3 , , , 1 , < < 2 2 2 2 < < , , , , , 1 , 4 1 1 4 1 1 4 1 1 , , , , , , 1 1 , 1 1 , , 1 1 , , , , , 1 , , , , 1 1 1 1 , 1 1 4 4 1 , 3 - N ",
"+ 4 3 , , , , $ $ $ $ $ $ $ $ $ $ $ $ , , 1 3 3 , , 4 , , 4 , , 4 4 , , , , 4 4 , 1 1 , , 1 1 , , 1 1 1 1 1 1 1 , , 4 , , , , 4 , 1 , , 3 - N ",
"o 4 X R p.p.e.p.p.p.0.p.p.p.p.p.0.0.9.f.^ + 5 , 1 1 1 1 1 1 1 1 1 1 1 1 1 1 1 1 1 1 1 1 1 1 1 1 1 1 1 1 1 1 1 1 1 1 1 1 1 1 1 1 1 % , 2 3 @ m ",
"- 4 O Q !.~.P.R.Y.Y.Y.Y.Y.Y.Y.Y.Y.~.Y.^.@.+ , 1 1 1 1 1 1 1 1 1 1 1 1 1 1 1 1 1 1 1 1 1 1 1 1 1 1 1 1 1 1 1 1 1 1 1 1 1 1 1 1 1 , & , 2 3 @ m ",
"o 1 O E !.S.n.Z.Z.S.S.S.S.S.S.S.C.S.N.~.@.O 4 5 1 1 1 1 1 1 1 1 1 1 1 1 1 1 1 1 1 1 1 1 1 1 1 1 1 1 1 1 1 1 1 1 1 1 1 1 1 1 1 1 , & < 2 3 # v ",
"- 4 + Q ^.U.Y.Y.Y.Y.R.J.Y.U.U.D.U.D.N.~.@.O , , 1 1 1 1 1 1 1 1 1 1 1 1 1 1 1 1 1 1 1 1 1 1 1 1 1 1 1 1 1 1 1 1 1 1 1 1 1 1 1 1 , & < 1 3 # v ",
"* 4 X Y 3.1.2.1.4.4.4.4.g.f.f.g.m.D.B.~.@.O 5 1 1 1 1 1 1 1 1 1 1 1 1 1 1 1 1 1 1 1 1 1 1 1 1 1 1 1 1 1 1 1 1 1 1 1 1 1 1 1 1 1 1 & , , 3 # c ",
"* 5 @ G / ( ^ / %.%.%.-.4.0.0.9.c.D.S.^.@.O 5 1 1 1 1 1 1 1 1 1 1 1 1 1 1 1 1 1 1 1 1 1 1 1 1 1 1 1 1 1 1 1 1 1 1 1 1 1 1 1 1 1 , & , , 3 : Z ",
"- 1 @ H } } } } -.-.-.-.4.0.0.9.c.D.N.~.@.O 5 , 1 1 1 1 1 1 1 1 1 1 1 1 1 1 1 1 1 1 1 1 1 1 1 1 1 1 1 1 1 1 1 1 1 1 1 1 1 1 1 1 , % , , 3 2 Z ",
"* , , D } ` ) } -.-.*.-.4.0.p.0.n.D.B.^.@.. 5 4 1 1 1 1 1 1 1 1 1 1 1 1 1 1 1 1 1 1 1 1 1 1 1 1 1 1 1 1 1 1 1 1 1 1 1 1 1 1 1 1 , % , , 3 : Z ",
", 1 $ G } { ] } -.-.-.-.4.p.0.0.n.U.S.^.%.O 4 1 $ 3 4 , , 4 1 , , 1 1 1 , , 1 1 , , 4 4 $ 4 1 1 1 1 1 1 1 1 1 1 1 1 1 1 1 1 1 1 , 3 , 5 , 1 Z ",
", 1 $ G } } [ } -.-.-.-.4.p.0.0.n.U.N.~.@.. 4 , 5 4 $ 1 5 , , 1 , 1 1 1 , , 1 1 5 , , 4 1 1 , , 1 1 1 1 1 1 1 1 1 1 1 1 1 1 1 1 , 4 , 4 , % b ",
", 1 $ G } } [ } -.-.-.-.4.p.0.0.c.D.Z.~.@.O 5 1 $ 1 5 5 1 1 4 1 1 4 4 4 4 1 4 4 , 5 5 , , 1 4 , 1 1 1 1 1 1 1 1 1 1 1 1 1 1 1 1 2 3 - 1 $ % c ",
", 4 $ D } _ / } -.-.-.-.4.p.0.0.n.U.S.~.@.O 5 1 4 O + @ + @ + + + + + + + + + + @ @ @ 5 5 , , 4 1 1 1 1 1 1 1 1 1 1 1 1 1 1 1 1 2 4 , 4 , $ c ",
", 4 $ D } _ / } -.-.-.-.4.p.0.0.c.D.S.~.@.O 5 $ 5 T I Y Y Y Y Y Y Y Y Y Y Y Y Y P D , 5 , , 4 , 1 1 1 1 1 1 1 1 1 1 1 1 1 1 1 1 2 4 , 4 4 $ c ",
"3 4 $ D } ` } } -.-.-.-.4.p.0.0.n.D.S.^.@.O 5 + Q /.R.H.R.F.E.H.K.K.K.K.K.R.H.H./.@.X $ 5 , , 1 1 1 1 1 1 1 1 1 1 1 1 1 1 1 1 1 2 3 , , , $ B ",
", 4 $ D } ` } } -.-.-.-.4.p.0.0.n.D.S.^.@.O 5 O E /.n.D.U.S.D.D.D.D.D.D.D.D.S.S.~.@.X 5 , , , , 1 1 1 1 1 1 1 1 1 1 1 1 1 1 1 1 2 3 , , , @ B ",
", 4 $ D } _ ] ..-.-.-.-.4.p.0.0.n.D.S.^.@.+ 5 O W ~.G.I.S.U.D.L.D.D.D.D.L.D.G.G.^.O.  u , 1 4 1 1 1 1 1 1 1 1 1 1 1 1 1 1 1 1 1 , 3 4 4 4 @ B ",
", 4 $ D } { / } -.-.-.-.4.p.0.q.n.D.S.^.@.O 5 $ W H.m.m.m.m.S.m.m.D.m.D.m.D.S.D.!.@.O 5 1 1 1 , 1 1 1 1 1 1 1 1 1 , , 1 1 1 1 , 4 1 , 1 , $ a ",
", 4 $ D } { / } -.-.-.-.4.p.0.0.n.D.S.^.@.O 5 $ S %.} } X.*.-.-.<.9.p.0.0.m.D.S.~.@.O 5 1 1 1 , 1 1 1 1 1 1 1 1 1 1 1 1 1 1 , , $ , 1 4 1 , N ",
", 4 $ D } { / } -.-.-.-.4.p.0.0.n.D.S.^.@.O 5 $ G } / } } -.-.-.*.4.0.0.9.n.U.S.~.@.O 5 1 1 1 , 1 1 1 1 1 1 1 1 1 1 1 , , 1 1 1 4 4 4 1 , $ h ",
", 4 $ D } { / } -.-.-.-.4.p.0.0.n.D.S.^.@.O 5 $ D } } / } -.-.*.-.4.0.0.0.k.S.S.~.@.O 5 1 1 1 , 1 1 1 1 1 1 1 1 1 1 , , 1 4 5 8 s u u 8 1 , a ",
", 4 $ D } { / } -.-.-.-.4.p.0.0.n.D.S.^.@.O 5 $ D O.} / } -.-.-.-.4.0.0.0.m.U.S.~.@.O 5 1 1 1 , 1 1 1 1 1 1 1 1 1 , , 1 4 8 u d s d d d 8 4 h ",
", 4 $ D } { / } -.-.-.-.4.p.0.0.n.D.S.^.@.O 5 $ S O./ } X.*.*.*.*.4.0.0.4.b.D.m.~.@.O 5 1 1 1 , 1 1 1 1 1 1 1 1 1 , , 4 8 u d d s u u d u 8 S ",
", 4 $ D } { / } -.-.-.-.4.p.0.0.n.D.S.^.@.O 5 $ D X./ / } *.-.-.-.4.p.p.0.n.D.D.~.@.O 5 1 1 1 , 1 1 1 1 1 1 1 1 1 1 1 5 u d u u s u d d d u G ",
", 4 $ D } { / } -.-.-.-.4.p.0.0.n.D.S.^.@.O 5 $ D } ) / } -.-.*.-.4.0.0.0.m.D.S.~.@.O 5 4 1 1 , 1 1 1 1 1 1 1 1 1 1 4 8 d d u 4 @ 4 u d d 8 S ",
", 1 $ D } { / } -.-.-.-.4.p.0.0.n.D.S.^.@.O 5 $ D X.) [ } =.-.-.-.4.0.0.9.n.D.S.~. .O 5 , 1 1 1 , , 1 1 1 1 1 , , 1 5 d s d 4 1 , 8 u s 8 6 C ",
", 1 $ D } { / } -.-.-.-.4.p.0.0.n.D.S.^.@.O 5 $ D X.) [ } =.-.-.-.4.0.0.9.n.D.S.~.@.O , , 1 $ , 1 4 4 1 1 4 4 1 4 , 5 s d u 4 4 u d d s 7 < p ",
", 1 $ D } { / } -.-.-.-.4.p.0.0.n.D.S.^.@.O 5 $ D X.) [ } =.-.-.-.4.0.0.9.n.D.S.!.O.+ 5 , 1 1 1 , , , , , 1 1 1 , 5 8 s s u u 8 u u d s 4 > r ",
", 1 $ D } { / } -.-.-.-.4.p.0.0.n.D.S.^.@.O 5 $ D X.) [ } =.-.-.-.4.0.0.9.n.D.S.W.@.O 5 1 4 1 4 5 4 4 4 4 4 4 4 5 4 u h h s f s d u 8 4 % < p ",
", 1 $ D } { / } -.-.-.-.4.p.0.q.n.D.S.^.@.O 5 $ D X.) [ } =.-.-.-.4.0.0.9.n.D.S.W.#.. , 5 $ + O O O O O O O O O O   O 1 , $ 5 s s 8 1 , 1 5 C ",
", 1 $ D } { / } -.-.-.-.4.p.0.0.n.D.S.^.@.O 5 $ D X.) ) } =.-.-.-.4.0.0.9.n.D.S.!. .O s $ D ` ^ ^ ^ ^ ) ) ) ) ) ^ ^ ) ) ` +.E u 8 7 1 2 8 6 C ",
", 1 $ D } { / } -.-.-.-.4.p.0.0.n.D.S.^.@.O 5 $ D | ) ) } =.-.-.-.4.0.0.9.n.D.S.W.| + j $ ~ /.!.Y.Y.Q.~.!.~.~.!.^.~.R.U.~.(.;.$ j d u 8 u s F ",
", 1 $ D } { / } -.-.-.-.4.p.0.0.n.D.S.^.@.O 5 $ D | ) [ } =.-.-.-.4.0.0.9.n.D.S.R.&.$ h 3 ! G.k.m.m.N.S.G.S.S.G.S.S.S.n.n.!.%.3 d d u d d q Z ",
", 1 $ D } { / } -.-.-.-.4.p.0.0.n.D.S.^.@.O 5 $ D X.) [ } &.-.-.-.4.0.0.9.n.D.m.!.&.3 h , ) /.G.D.U.Y.D.U.U.Y.U.U.U.H.D.m.R.@.4 d u u s i u A ",
", 1 $ D } { / } -.-.-.-.4.p.0.0.n.D.S.^.@.O 5 $ D X.) [ } &.-.-.-.4.0.0.9.n.D.m.!.#.$ d 4 ~ c.j.k.k.m.n.k.k.m.S.n.m.D.U.S.R.X.+ f d d d y 3 V ",
", 1 $ D } { / } -.-.-.-.4.p.0.0.n.D.S.^.@.O 5 $ D | ) [ } &.-.-.-.4.0.0.9.n.D.m.Y.@.@ h 5 U @.} } } -.-.-.-.4.9.0.p.n.D.S.!.X.O 5 4 5 5 4 , w ",
", 1 $ D } { / } -.-.-.-.4.p.0.0.n.D.S.^.@.O 5 $ D | ) [ } &.-.-.-.9.0.0.9.n.D.m.~. .X u 5 Y @.O.X.%.<.-.%.*.4.4.9.p.n.U.D.~.X.O 1 , , < 1 , e ",
", 1 $ D } { / } -.-.-.-.4.p.0.0.n.D.S.^.@.O 5 $ D X.) [ } &.-.-.-.9.0.0.9.n.D.m.U.| O u 4 Y @.} } X.-.-.%.*.4.9.9.0.n.U.S.~.| O 4 1 , < 1 < e ",
", 1 $ D } { / } -.-.-.-.4.p.0.0.n.D.S.^.@.O 5 $ D X.) [ } &.-.-.-.4.0.0.9.n.D.m.Y. .X 1 @ L @.O.O.O.-.-.-.*.4.9.4.4.k.D.S.^. .O 1 , , < 1 , p ",
", 1 $ D } { / } -.-.-.-.4.p.0.0.n.D.S.^.@.O 5 $ D X.) [ } &.-.-.-.4.0.0.9.n.S.m.Y.@.X 1 $ K X.X.X.X.-.-.-.*.4.9.8.9.m.U.S.^. .O 2 1 4 5 1 < a ",
", 1 $ D } { / } -.-.-.-.4.p.0.0.n.D.S.^.@.O 5 $ D X.) [ } &.-.-.-.4.0.0.9.n.S.m.R.@.X 5 1 D ) } X.%.<.-.<.-.4.4.8.4.n.U.S.^. .O 2 1 , , % , b ",
", 4 $ D } { / } -.-.-.-.4.p.0.0.c.D.Z.~.@.O 5 $ D X.` [ } =.-.-.-.4.0.9.9.k.S.m.U.O.O 5 @ H } [ } O.<.-.<.<.0.9.8.9.n.U.G.^.| X 5 , 1 , , $ z ",
", 4 $ D } { / } -.-.-.-.4.p.0.0.c.D.Z.^.@.O 5 $ D X.) [ } =.-.*.-.4.0.9.9.k.S.Z.~.#.$ s 4 L X.] ) } <.<.<.<.0.p.0.0.n.U.S.~.| O 4 , 1 , , $ a ",
", 4 $ D } { / } -.-.-.-.4.p.0.0.c.D.Z.~.@.O 5 $ D X.) ) } =.-.*.-.4.0.9.9.k.S.S.^.&., f u Y O.} ) } -.<.<.-.0.p.p.p.m.U.Z.~.| O 1 , 4 , , $ b ",
", 4 $ D } { / } -.-.-.-.4.p.0.0.c.D.Z.~.@.O 5 $ D | ) ) } =.-.-.-.4.0.9.9.n.D.D.^.&.1 f 5 Y @.O.} } &.-.<.<.0.p.p.p.m.U.Z.~.| O 1 , 4 , 1 $ N ",
", 4 $ D } { / } -.-.-.-.4.p.0.0.c.D.Z.~.@.O 5 $ D | / / } &.-.-.-.4.0.9.9.n.D.D.^.&., d 5 Y @.X.O.} *.*.-.<.p.p.p.p.n.D.N.~.| O 1 , 4 , , $ S ",
", 4 $ D } { / } -.-.-.-.4.p.0.0.c.D.Z.~.@.O 5 $ D | ) [ } *.-.-.-.4.9.9.0.m.U.D.^.@.+ 8 5 Y @.X.X.X.-.*.*.-.0.p.p.0.n.S.n.!.| O 5 , 4 , , $ N ",
", 4 $ D } { / } -.-.-.-.4.p.0.0.c.D.Z.~.@.O 5 $ D X.} } } *.*.*.-.4.9.9.0.m.U.D.Y. .O 5 , P @.X.X.O.:.*.*.*.9.p.0.0.k.S.n.!.| O 1 , 1 , 1 $ N ",
", 4 $ D } { / } -.-.-.-.4.p.0.0.c.D.Z.~.@.O 5 $ D O.X.X.X.&.-.*.-.4.9.9.0.m.U.S.R.O.O 2 + G X.O.X.X.:.-.*.*.4.0.9.9.k.S.N.~.X.O 1 , 4 1 1 @ h ",
", 1 $ D } { / } -.-.-.-.4.p.0.q.n.D.N.~.@.O 5 $ G O.X.X.O.:.-.*.-.4.9.9.0.m.U.S.Y.O.O 5 , D } X.X.O.<.-.*.-.4.9.9.9.z.D.m.!. .O 2 1 3 3 3 < k ",
", 1 $ D } { / } -.-.-.-.4.p.0.0.n.D.N.~.@.O 5 $ G O.X.X.O.:.-.-.-.4.4.9.0.m.I.S.Y.O.O 5 , D } } X.O.,.-.*.*.4.0.0.9.z.D.m.!. .O 2 1 1 4 1 < l ",
", 1 $ D } { / } -.-.-.-.4.p.0.0.n.D.N.~.@.O 5 $ D X.} X.O.<.<.-.-.4.4.9.0.n.U.D.~.@.O 2 @ G } } X.O.,.-.*.-.4.0.0.9.b.D.m.!. .O 2 1 1 1 % < p ",
", 1 $ D } { / } -.-.-.-.4.p.0.9.n.D.N.~.@.O 5 $ D } ` } O.,.<.-.-.4.9.9.0.n.U.D.^.%.+ 5 $ J X.} X.O.,.-.-.-.4.0.0.9.b.D.m.!. .X 5 1 1 1 % , p ",
", 1 $ D } { / } -.-.-.-.4.p.0.9.n.D.N.~.@.O 5 $ D } / } X.:.<.-.>.0.0.4.4.n.U.G.^.&., 9 , L O.X.O.O.-.-.*.-.4.0.0.9.n.J.m.!. .X 5 1 , 2 % , e ",
", 1 $ D } { / } -.-.-.-.4.p.0.9.n.D.m.~.@.O 5 $ D } / } X.:.<.-.<.p.p.9.4.k.D.S.~.&.1 f 5 Y O.X.O.X.-.*.*.*.4.0.0.9.n.J.m.!. .O 2 1 , 2 1 , e ",
", 1 $ D } { / } -.-.-.-.4.p.0.9.c.D.m.~.@.O 5 $ D } ` } O.:.<.>.<.0.p.p.9.k.S.S.!.&.1 f 8 Y O.X.X.} =.*.*.-.9.0.0.9.n.J.S.!. .O 1 1 , 2 1 , e ",
", 1 $ D } { / } -.-.-.-.4.p.0.9.c.D.m.~.@.O 5 $ S } } } O.:.<.>.-.0.p.p.0.k.m.S.^.&.$ d 5 Y O.X.} } =.*.-.-.9.0.0.9.n.J.S.!. .O 2 1 1 2 1 , p ",
"% 4 $ D X./ { o.-.-.-.*.4.r.9.9.z.G.m.^.O.O 5 @ G } } o.$.-.-.-.-.0.a.u.p.V.S.n.I.#.+ d 1 L O./ / } *.%.-.-.9.0.9.9.n.L.n.^. .+ 2 3 : < 1 , t ",
"1 3 $ D | } } { -.-.-.-.8.p.0.0.z.U.n.!.#.. 5 $ D X.O.X.O.-.-.%.%.0.s.t.t.G.R.m.I.} + s + D X.} / } -.-.-.-.4.p.r.p.m.P.G.^. .. 2 3 : , 1 , t ",
"$ 3 3 G ^ / ` / @.O.%.&.3.4.6.6.g.F.n.B.X.+ , + H } X.} X.#.#.O.&.3.6.q.7.h.x.l.U.| + , , J ^ ~ ~ ) @.%.%.&.3.7.5.4.d.l.m.F.' O 2 3 , 4 % - p ",
"$ 3 $ 3 u 5 8 4 h u u 8 h u u 5 h i 4 d 5 , 5 1 , j h h h d y y 0 u 8 D x x D D D u $ 5 5 4 8 7 8 8 u u 5 4 y u 8 u x h y h 8 $ 1 3 % 3 & - p ",
"$ 5 4 1 1 $ , , , $ $ $ , $ , $ $ 1 1 4 $ 1 $ , 5 s 7 u u 4 $ $ 5 4 , 4 5 u u 8 u u 4 $ , , $ $ , $ $ 1 , 1 $ $ 4 $ $ $ $ @ , 4 , 3 1 4 3 - p ",
"@ , 1 1 4 , 5 5 1 5 4 2 5 1 5 5 , 4 , 5 < , 1 4 , u 8 s s 8 5 4 , , , 1 5 s h g s 1 5 4 1 , 5 1 5 4 5 1 1 1 1 4 , , 4 1 5 1 1 1 , 3 , < 1 - v ",
"- , , , 1 , , , @ , - , 2 1 5 2 , % @ < < , $ , - 8 s 9 9 6 5 , , 2 - 2 8 5 5 d 6 + $ , , , < : , - , @ @ @ @ $ @ @ , @ - , , % - , : < , < v "
};
