/* XPM */
static char *_63a92da00d24c8b8c662be4ad02f2b6[] = {
/* columns rows colors chars-per-pixel */
"71 71 255 2 ",
"   c #0C0706",
".  c #160906",
"X  c #150C0B",
"o  c #1B0C0B",
"O  c #1B1609",
"+  c #1C130D",
"@  c #0D0312",
"#  c #150815",
"$  c #1B0C13",
"%  c #1C0D1B",
"&  c #1D1413",
"*  c #1D1A14",
"=  c #1D131B",
"-  c #1B1719",
";  c #230D0D",
":  c #23150C",
">  c #261909",
",  c #241B0E",
"<  c #321C0F",
"1  c #240C17",
"2  c #231514",
"3  c #241B14",
"4  c #2A1C14",
"5  c #24151B",
"6  c #2A1418",
"7  c #241B1B",
"8  c #291B1B",
"9  c #321C19",
"0  c #1E2210",
"q  c #262318",
"w  c #2B211C",
"e  c #33251B",
"r  c #313311",
"t  c #1C1627",
"y  c #241925",
"u  c #2A1B24",
"i  c #331B27",
"p  c #261930",
"a  c #18252F",
"s  c #292526",
"d  c #342827",
"f  c #37332B",
"g  c #282437",
"h  c #372C33",
"j  c #3A3435",
"k  c #433B39",
"l  c #3A4919",
"z  c #1F4129",
"x  c #294D2A",
"c  c #1C6C2B",
"v  c #246D2E",
"b  c #464A17",
"n  c #485817",
"m  c #4F5818",
"M  c #566B15",
"N  c #60741E",
"B  c #4A5425",
"V  c #54592B",
"C  c #4A423C",
"Z  c #67702C",
"A  c #2C2D48",
"S  c #292C54",
"D  c #383858",
"F  c #2E356C",
"G  c #493C42",
"H  c #2F5743",
"J  c #394575",
"K  c #514949",
"L  c #645847",
"P  c #645756",
"I  c #676257",
"U  c #776256",
"Y  c #555761",
"T  c #6B5C64",
"R  c #6F686B",
"E  c #797676",
"W  c #8D796D",
"Q  c #298C35",
"!  c #1EA12A",
"~  c #19A937",
"^  c #1CAB3B",
"/  c #19B338",
"(  c #28A82D",
")  c #23AB34",
"_  c #27AB3A",
"`  c #36AF30",
"'  c #27B437",
"]  c #6F8B1D",
"[  c #76AB1B",
"{  c #69822A",
"}  c #5AB729",
"|  c #47B231",
" . c #68BA27",
".. c #78BB26",
"X. c #6BBC3B",
"o. c #7DC21C",
"O. c #68C22C",
"+. c #77C128",
"@. c #2D9745",
"#. c #0EAD46",
"$. c #1AAA43",
"%. c #27AD42",
"&. c #97BE0F",
"*. c #88BE19",
"=. c #8CBD1D",
"-. c #92BE1C",
";. c #99BD18",
":. c #86AF27",
">. c #8CBE23",
",. c #89BD29",
"<. c #92BE23",
"1. c #98BE25",
"2. c #84C41D",
"3. c #8BC518",
"4. c #8DC31D",
"5. c #94C315",
"6. c #95CA14",
"7. c #96C719",
"8. c #93C31C",
"9. c #9AC21C",
"0. c #A2C319",
"q. c #87C625",
"w. c #8DC322",
"e. c #8BC32A",
"r. c #91C322",
"t. c #9AC323",
"y. c #93C923",
"u. c #94C42B",
"i. c #99C52D",
"p. c #96CA2A",
"a. c #91CC2B",
"s. c #9AC92E",
"d. c #9AC932",
"f. c #A2C928",
"g. c #968877",
"h. c #1B3795",
"j. c #2C3C8A",
"k. c #253C94",
"l. c #2A3D94",
"z. c #263C9B",
"x. c #2B3D9C",
"c. c #323D97",
"v. c #2A3DA2",
"b. c #333DA3",
"n. c #2F4A8F",
"m. c #34458B",
"M. c #2C4395",
"N. c #2C439C",
"B. c #2B4898",
"V. c #334595",
"C. c #344A95",
"Z. c #33459C",
"A. c #3A4698",
"S. c #344A9C",
"D. c #394B9C",
"F. c #39529A",
"G. c #2D44A2",
"H. c #2A46A4",
"J. c #3445A3",
"K. c #344AA3",
"L. c #3A4CA2",
"P. c #3949A9",
"I. c #3C53A3",
"U. c #3955A7",
"Y. c #3B4FB3",
"T. c #465083",
"R. c #424C9D",
"E. c #45559C",
"W. c #526499",
"Q. c #72728F",
"!. c #434DA4",
"~. c #4758A7",
"^. c #515CAA",
"/. c #4657B3",
"(. c #5369AA",
"). c #5868A8",
"_. c #636CA6",
"`. c #6D76AC",
"'. c #6B77B7",
"]. c #616BC2",
"[. c #7D8187",
"{. c #7884AB",
"}. c #6D81B6",
"|. c #7985B3",
" X c #7082C4",
".X c #8E8B8A",
"XX c #928E91",
"oX c #989595",
"OX c #B09C94",
"+X c #8687A9",
"@X c #9291AA",
"#X c #858DB5",
"$X c #8993B5",
"%X c #959BB8",
"&X c #97A6B8",
"*X c #A9A8AB",
"=X c #B4A6AB",
"-X c #ABACB5",
";X c #B5AAB5",
":X c #B0B3B0",
">X c #B8B8B7",
",X c #B4BBBB",
"<X c #BCBCBC",
"1X c #CEB4B2",
"2X c #C2BCBC",
"3X c #C9B9B8",
"4X c #E4BBB5",
"5X c #BBC4B9",
"6X c #BDC2BD",
"7X c #C3C2BD",
"8X c #C9C8BC",
"9X c #D9CAB5",
"0X c #DCC8B9",
"qX c #E8CBAC",
"wX c #F1D3AD",
"eX c #E8CBB9",
"rX c #F5CDB7",
"tX c #EBD3B7",
"yX c #F4D3B4",
"uX c #FBD4B4",
"iX c #F8DAB5",
"pX c #F4D2BB",
"aX c #FBD4BB",
"sX c #FDDBBC",
"dX c #FDE1B9",
"fX c #919AC2",
"gX c #97A5C0",
"hX c #AAB3CA",
"jX c #B6BBC5",
"kX c #BDBDC3",
"lX c #AAB4D8",
"zX c #C2BDC3",
"xX c #C5BDC8",
"cX c #C4BCD0",
"vX c #BCC2C3",
"bX c #BCC6C8",
"nX c #C3C3C4",
"mX c #CAC5C5",
"MX c #C4CAC3",
"NX c #CACAC5",
"BX c #C4C4CA",
"VX c #CBC4CA",
"CX c #C5CACB",
"ZX c #CACBCB",
"AX c #D2CCC9",
"SX c #CFD2CD",
"DX c #CACAD2",
"FX c #D5D4D3",
"GX c #EBD1C4",
"HX c #F8D9C3",
"JX c #FEE5C6",
"KX c #D4D9E4",
"LX c #F7F4EB",
"PX c #F9F9F7",
"IX c #FDFDFD",
/* pixels */
"r.r.-.w.;.w.4.4.8.8.w.r.r.8.r.4.4.5.r.5...$._ ) _ &.-.4.8.,.-.r.u.u.u.u.i.s.i.u.u.u.w.>.w.w.w.4.e.8.` ( %.$.O.9.8.5.4.,.r.-.<.8.r.r...) _ ) ^ ",
"2.w.t.w.r.q.w.u.8.8.w.r.r.r.r.4.u.9.u.8...~ ) ) %.4.t.w.8.,.8.4.u.i.s.s.s.s.s.i.u.u.u.w.w.w.4.=.-.<.%.) ' _  .;...w.>.>.8.8.w.w.2.3.*.( %._ _ ",
"w.4.8.3.;.8.9.5.r.r.r.r.r.r.r.w.q.2.q.4...^ _ ' ) *.u.<.-.r r r r l r f f @.s.s.i.s.u.w.=.=.=.4.8.>.%.~ ~ $. .9.t.9.8.-.-.4.w.4.r.9.2.' ^ ^ ) ",
"q.q.w.8.e.u.t.4.w.r.r.r.r.w.4.r.0.5.8.3. .) ~ ~ ` =.<.w.-.o t 8 % = 1 : 1 Q u.s.d.s.t.w.>.>.w.4.1.=.| ) ) %. .=.u.w.w.r.3.4.r.8.,.,.+.' ^ ^ ) ",
"4.r.1.w.| ' ` ` q.r.8.8.r.w.w.8.,.>.<.8.<. ..... .8.r.4.4.7 * 8 * q 3 3 i @.i.s.s.u.<.>.>.w.>.w.q.r.O.......| ` ` ` } y.8.4.>.w.8.8.4....... .",
"w.y.t.q._ / ~ ~ ..w.8.8.r.w.w.8.w.w.u.4.9.r.t.t.w.9.8.4.2., 6 : > 2 ; O 3 Q s.i.$.<.>.>.r.r.r.>.,.r.3.1.r.3.| ~ ) ~ | a.4.w.<.r.8.1.w.w.8.t.2.",
"8.4.4.2._ _ ' / ..w.8.8.r.m m n r.w.w.2.=.m m V m n m m n F F F F F D F J H x x x l V Z V { u.>.w.5.m n n n | ~ ` ) } p.4.w.8.8.;.;.8.8.3.8.3.",
"4.3.y.2.%.~ ^ ~ ..r.8.8.q # + # 8.4.r.q.M # % # # = = % p L.U.~./.Y./.I./.D 9 i & * i 8 % B u.w.8.8.2 % % + | $.~ #.| t.&.r.r.q.q.8.4.-.e.u.2.",
"4.r.<.,. . . . .| | } | r 8 q = =.=.4.4.M $ w 3 u u q e j I.U.R.F.~.I.E./.A e s s h d d d B r.q.5.5.u 7 4 4 ....}  ...e.r.9.9.;.w.8.8.8.8.r.w.",
"4.4.8.8.8.8.8.9.| ~ ^ #.> # X . =.=.4.w.w.. > O O 2 4 > s ~./.F.I.!.~.R.~.A e w w d w d 3 n ,.<.u.w.X # # 2 w.q.9.9.8.8.4.q.q.q.w.w.8.8.r.r.w.",
"r.w.w.u.1.1.t.r.` #.` N L P T T Z r.>.=.B S S S A S S S F !.!.E.~.!.U.!.U.J D D D D D D S x >.5.{ Z I I P P N N 8.8.8.8.8.r.w.w.w.w.r.r.r.r.r.",
"r.4.4.w.~ ~ / Q 5 . @ * :XFXDXFXK @ - X F Y.L.P.D.K.J.L.L.!.D.!.L.R.S.L.U.L.~.~.U.U.U.F.P.F 7 u y j DXZXNX7Xj @ $ O % % & . 8.-.w.w.r.r.r.r.r.",
"w.8.8.8.^ ( ' ! 5 3 7 4 =XzXkX8XK = 8 > S P.N.B.V.S.D.V.S.Z.C.S.S.D.C.C.I.!./.E.E.~.S.M.G.F e e e j zXvX,X<Xh 5 4 5 7 3 q & M 4.8.r.r.r.r.r.r.",
"w.4.r.r.~ ) / Q t * * 5 ;XVX5X8XK . + > S J.D.L.N.x.x.N.N.x.N.k.k.l.M.S.S.L.L.U.S.S.J.G.P.F O 4 , k cXBXnX<Xf 2 2 5 * X X   M u.8.8.r.r.r.r.r.",
"7.8.4.r.w.w.w.q.* 2 u y -XmX6XMXY t g p F L.S.J.U.).).).).'._.'._.'.'. X'.'.).)._.E.V.C.D.F a g g K nXnXVX<Xf + u O j K C k Z 4.8.r.w.w.r.r.8.",
"t.w.q.w.8.;.5.3.< 2 O 0 ;XVXvXDX_.b.Y.P.S.J.Z.l._.8XmXzXVXIXIXIXPXIXIXPXIXFXBX7XZX{.M.S.Z.J.P.Z.P.W.bXBXVX2Xf : 8 $ oXAXnXKXR   3 @ l w.r.r.r.",
"y.-.9.r.-.w.r.-.2 2 y 6 =XMXvX8XW.J.N.S.C.K.L.N.).8XxXnXCXPXPXPXPXIXIXPXPXSXkX:XnX{.M.S.C.S.Z.V.J.^.7XnXBXkXf 2 8 o .XCX:XDXE o 9 % b w.3.e.4.",
"3.3.8.w.w.e.e.e., * - 8 =XnXvXNX(.b.S.Z.n.V.A.z.).8X2X>XMXIXPXIXPXIXIXIXIXSX,XvXZX|.v.S.c.l.K.C.N.^.BXCXBXnXf o 8 + .XZX,XDXE   4 + b r.5.u.2.",
"r.r.u.r.-.8.8.-.4 3 - 7 *XBXxXmX_.c.D.K.I.E.!.S.`.vXzX7XCXPXPXPXPXPXPXLXLXZXkXVXAX#XZ.D.E.R.c.C.C.W.<XCXnX>Xh 2 8 X .XZX,XZXR $ 9 = b -.4.<.w.",
"6.4.4.8.4.8.8.4.3 6 2 3 *XMXzXCX).x.D.x.}.bXjXjXkXBXxXMXjXNXcX6XMXnXkXnXBXzXxXBXNXbXhX,X<X@Xc.!.L.(.VXCXnXnXj X 8 & .XmX,XZXR . 4 $ b u.4.8.5.",
"4.e.e.9.+.e.e.e.2 5 5 2 -XBXkXMX).N.D.l.|.AX2X7X3X6XzX>X5XzXnXjXnX2XxX<X,X<XxXmX7XmXVX7XnX&XB.~.I.~.nXMXnX<Xf 2 8 X .XZX>XZXR . 8 % b i.w.;.r.",
"9.9.w.*.` ( ( ) 2 3 2 3 *XBX2XnX_.G.P.N.{.MXxXbXnXnXxX2XmXkX5XBXkX<XbX<X,XzXxXnXMXMXnX7XSXgXI.I.U.^.6XCXzX>Xj 8 d 8 oXZX,XZXR X 7 % b q.3.5.r.",
"w.4.w.*.%._ _ _ 5 5 5 3 -XBXzXDX_.l.J.v.{.ZXkX5X8X6XNXmX<XmX5XBX,XbX,XnX2X2X7X7XbXBXDXnXZX%XL.!.D.).zXBX>X7Xk d d 8 oXFXvXZXE o 4 % b 1.8.8.e.",
"u.-.-.-.$.^ _ ) 7 - 2 < =XBXvX5X-X&X-XgX3XtXeXGX;X^.~.^._.eXGXrXpXGXpXeXGX`./.).~.oXHXpXtX0X-X-XhXhX3XkXzXNXj 8 d 8 oXZXMXFXE X 4 $ l w.8.4.e.",
"q.;.&.,.( $.~ ( 8 2 8 3 -XBXBX2XBXMXzXbXeXuXyXsX=Xx.J.v.~.pXaXuXuXwXsXpXsX_.z.Z.h.@XHXHXuXqXCXVXnXbXvXVXBXvXk w d 7 oXZXnXFXE 5 4 2 z +.8.8.-.",
"e.>.,.,. ... .[ 2 - & q *XzXzXzXkX<XmXkX0XiXtXiX;Xv.C.C.~.wXHXtXpXtXyXyXiX_.N.L.v.@XyXwXpX0XjXzX>XvX,X<XnX6Xk w w + .XmXkXFXE 5 w 2 z q.w.r.w.",
"8.>.e.<.8.&.7.w.> ; 1 2 >XFXCXZXDX6X7X<X0XyXHXsX=XH.D.N.^.rXyXwXuXrXrXaXsX_.v.C.H.@XiXqXrXqX>XzX2X<XFXFXAXSXk 3 3 X .XmX<XFXE y d ; z 4.4.4.r.",
"7.r.r.=.4.*.=.,.c v v c Y P I P *XnX6XvXGXuXrXiX1XM.L.N.E.rXaXyXpXpXHXtXiX_.Z.F.z.@XuXpXpXeXjX2X<X:XR R I R s 2 3 & .XmX>XZXE 4 d % l <.r.8.9.",
"a.p.<.>.<.e.=.-./ ' ' _ O o $   XXAXzXkX0XyXtXdX=XB.P.v.E.rXiXaXpXyXwXwXiX_.z.L.z.@XdXqXuXqX<X<XvX:Xu & w 2 2 2 8 & .XnX,XSXE 4 f % b r.t.w.q.",
"p.a.u.w.<.=.=.<.~ _ ) ~ d 2 7 : .XmXzXjXAXuXwXsX1XM.D.J.^.rXuXyXaXHXaXrXsX`.V.F.N.@XiXqXaXeX>X2XvX*Xh d f 8 2 2 3 + .XmXkXFXE 7 d $ b 4.8.*.w.",
"y.y.s.a.r.*.=.e.' / ' ) 0 2 8 . oXFXZXDXGXuXuXiX;Xh.G.h.D.GXyXaXaXwXuXpXHX_.h.G.h.+XJXwXuXeXZXmXCX:Xs s w w 7 2 3 X .XZXvXFXE 2 w = n 3.8.8.9.",
"d.u.f.u.i.w.1.-.v v v v q * 8 2 T W E E =XsXtXaX1X+X+X+X@XwXiXyXaXaXuXtXuX%X+X+X`.1XaXyXuX1XE E [.E d s d s 7 3 3 X XXZXvXDXE 5 w 5 B w.w.w.r.",
"d.i.i.s.t.t.u.=.1 6 ; o * 3 * 2 : . $   W JXuXiXyXsXHXdXHXuXuXpXyXHXpXaXaXsXdXsXsXiXpXwXdXOX  $ X . 9 e d i d w e 3 oXFXvXSXE * 4 X B w.5.u.&.",
"p.s.i.u.u.i.i.<.8 5 * 7 u 5 8 8 u 3 w o W JXGXpXaXyXwXtXwXaXpXsXyXyXyXyXyXpXpXpXtXyXyXwXJXOX$ w * 7 w d d d d s h y oXZXbXCXE X 3 = l e.4.e.3.",
"p.p.t.i.d.i.u.d.: O O 2 o $ + o & . .   W dXaXaXsXaXsXsXiXHXaXaXiXaXpXpXuXaXiXiXsXuXuXpXHXOX  + $ $ X = 7 w w e 9 7 oXFXZXZXR o 2 $ b w.8.9.9.",
"p.p.u.i.d.i.u.s.g g g A k K x K k K K j g.HXqXeX0X1X1X1X1XqXeXpXtXpXtXeXGX3X1X1X3X1XpXGXpXOXk C K k C G C C j A j h XXhX%XhXR y g g V r.q.4.8.",
"a.s.u.>.X = = a J.P.K.S.jXNXNXBXMXNXVXnXnXzXnXNX%Xk.H.H.I.kXzXvX,XkXvX6XvX).l.G.z.|.MXkX5X<XBXVXBXDXBXbXNXBX~.P.P.D.K.N.Z.B.V.M.D.Y.J w d 7 k ",
"p.u.>.=.y 4 4 7 C.I.Z.K.-X3XzXvXvX6X<XBXnXkXbXzX%XJ.K.J.E.6XmXnXzXVXxX2XNX).N.C.M.|.MXxXnXzXnXxX5XxX7X:X>X<X~.V.L.S.C.C.D.S.C.R.D./.J 4 d q r ",
"s.>.=.=.# 3 & y B.J.K.N.jXNXbXkXnXMXkXBXnX6X6XSX%Xx.S.G.E.6XkXBXvX7XzXkXZX).x.L.b.`.AXBX<XxXvXkX7X<X7XnXVX<X~.M.M.S.S.I.P.U.K.!.E./.J i i p s ",
"y.=.-.{ e e e h S.Z.S.D.-X>XjXjX2X6XbX7X>XjX,X2X%XS.K.M.E.6XCXMXvX7XNX6XNX).J.K.N.'.7X,X,XjXvX5XnXnX,XjX;XjX^.L.E.E.~.^.^.~.~.K.F.~.J r e 3 r ",
"* q * L tXqXtX1XC.S.J.D.I.I.F.S.%X8X<XNX#XJ.!.R.L.c.L.J.~.PXIXIXIXPXIXIXIX'.l.P.K.S.E.F.S._.nXzX7X:XU.E.A.!.1XyXeXeXtXtXeXGXW 7 f u B ) / ^ ^ ",
"% 4 $ P dXaXsX0XS.Z.A.J.G.J.Z.N.%XMXjX7X|.x.D.N.N.P.G.G.~.IXIXIXIXPXIXPXIX'.z.S.L.S.Z.D.G._.DXvXBX;XP.N.H.S.1XuXpXpXyXaXpXJXg.* f y B ( ( ( _ ",
"$ 4 X L HXyXaX4XL.Z.K.K.C.Z.D.Z.%XVXcXAX+Xz.L.S.C.L.S.l.~.PXIXPXIXPXPXPXIX'.x.V.C.S.P.K.x._.mX<X8X-XF.K.S.V.9XuXpXrXrXyXyXJXW 2 d 5 b o.w.=.+.",
"$ 3 X L HXwXiX0XD.N.C.B.n.K.U.A.%XNX>XZX{.N.P.D.V.b.P.Z.^.IXPXIXPXPXIXIXPX}.l.L.J.Z.S.D.v._.MXzXBXhXZ.Z.A.F.1XsXpXyXyXtXeXJXW O 8 $ b 4.r.9.w.",
"% 8 X P dXyXiX0XD.K.J.P.g u p a T.(.(.^.~.G.P.K.D.S.C.V.P.).].'.(.).).).).I.K.Z.S.P.P.M.C.E.^.^.).~.D.S.C.Z.eXiXyXyXyXyXwXsXW X s = l r.4.=.8.",
"$ 4 $ P dXrXsXeXA.C.Z.V.7 2 * > F P.x.N.C.G.Z.K.N.K.K.K.H.m.z.l.k.V.N.x.x.G.P.K.J.V.S.C.P.J.c.N.J.Z.P.C.V.C.4XuXrXpXaXuXwXsXW   4 & b u.w.w.3.",
"% 8 X L HXqXiX4XR.N.P.J.s 5 y O F I.C.D.S.P.D.L.K.D.J.Z.U.A.P.L.S.L.D.L.D.D.S.K.Z.D.L.V.J.L.L.D.F.C.D.Z.A.K.4XHXyXwXrXGXeXHXW O w & B 4.-.r.8.",
"@ 2 @ P JXHXJXeXP.G.D.K.7 O 2 6 F H.v.v.M.N.z.x.x.M.x.Z.k.c.z.k.z.v.k.k.x.z.N.N.N.Z.x.v.J.M.k.M.z.G.P.Y.P.U.eXJXJXsXJXJXiXJXW @ y @ b w.&.r.4.",
"N N N Z U U U I S S S A y 2 3 O Q.%X#X$X$X$X$X$X$X$X$X$X%XlXlXlXlXlXlXlXlXfX$X+X#X$X$X$X$X$X$X$XfX{.A S A A L U U T U U U U Z ;.4.w.1.q.w.r.8.",
"y.y.f.u.  X X o O , O 2 8 2 6 ; oXSXNXmXZXZXNXZXMXmXNXmXSXIXIXIXIXIXIXIXIXFXnXNXZXMXNXZXBXNXNXNXSX=X, O 5 * o $ . X . o o @ M w.4.4.1.2.r.1.1.",
"=.w.p.u.$ w u 7 4 u 2 u , , 5 . XXCX<XzXnX<X2XkXkXkXnXkXBXIXPXIXIXPXPXPXIXFX>XzXzX<X<XzXkX2X<X>XzX=X8 > y , * q 7 7 s q 3 t w.e.u.w.t.3.y.8.w.",
"7.4.u.r.. 2 1 X o $ y $ o 3 4 . oXFX8XmXZXZXNXNXNXNXNXnXSXIXIXIXIXIXIXIXIXFX7XNXNXNX8XNXNX8XNXZXZX=Xy 3 6 2 = % # 2 X $ 5 @ 8.1.q.4.r.8.8.4.3.",
" . .w.r.n n n 4.r.4.8.m 4 5 y O Q.%X#X#X#X$X$X#X#X#X$X#XfXlXlXlXlXlXlXlXlX%X#X#X#X$X#X#X#X+X#X#X$X[.t - 3 5 n n t.8.4.8.4.3.8.9.4.3.4.8.8.8.8.",
"~ ' w.>.4.w.w.w.-.8.r.e.e = O * F N.v.Z.l.z.z.N.N.M.M.k.l.k.k.z.z.z.z.x.x.x.N.M.x.G.M.N.N.l.G.j.N.j.y 7 2 8 r.8.w.8.8.8.3.4.r.r.t.8.w.r.w.w.r.",
"%._ r.8.4.w.w.w.r.8.r.q.q 2 > 5 F L.L.D.D.L.L.L.S.S.K.S.L.D.D.D.D.D.D.D.S.Z.D.S.K.K.D.K.K.K.P.D.K.m.3 4 2 4 >.y.2.4.r.4.3.r.e.} X. . .u.4.w.w.",
"! ) r.r.r.4.w.w.e.-.r.q.r y * * F G.G.x.Z.x.x.Z.N.K.K.K.Z.Z.S.S.S.Z.J.K.K.Z.K.K.P.M.M.N.x.Z.N.Z.H.l.7 - - 2  .a.3.-.1.r.8.t. .! #.~ ` e.8.7.3.",
"=.=.4.r.r.r.w.w.4.w.u.i.r 5 , * Y ).).(.).).(.).E.N.C.K.G.P.S.S.S.J.K.N.K.S.Z.K.Z.~._.).).).).(.(.W.3 = * 8 +.7.r.w.w.2.7.9. ._ ) _ ( i.5.r.e.",
"4.4.=.r.r.r.4.w.- X & 3 5 8 u $ oXNX5XbX8X8X6XMX&XZ.Z.J.A.A.A.Z.S.J.Z.S.Z.L.Z.Z.x.{.SXvXmX7XVX8XZX=X< 5 3 3  .t.r.=.;.;.>.8.+.$.~ $.) e.3.4.w.",
"4.w.w.r.r.w.w.4.y 8 4 5 5 O u # XXZXxXBX3X2XvXVXfXx.D.N.D.K.B.P.S.J.K.L.N.S.Z.I.v.|.8X<XnXvXbXkXMX:X8 2 * , ..w.q.2.9.t.q.3.o.` ` | | ,.4.-.u.",
"4.w.4.r.r.4.w.4.* O 2 6 2 7 > O XXDXxXbX7XnXvX7X%Xx.C.P.Z.J.J.K.S.K.S.S.P.S.K.M.k.|.NXvX7XzXBXVXMX-Xu 2 7 3 8.t.w.8.>.q.y.8.8.w.r.<.w.9.8.u.a.",
"4.4.w.r.r.r.8.w.y q 7 p 5 * u X XXBX>XjXkXxXnX8X&XZ.F.I.C.D.M.V.m.V.m.V.c.F.F.!.D.|.kX,X>XkXhXkXjX*Xw , 2 2 4.e.u.9.=.2.8.<.,.p.2.w.4.4.3.-.8.",
"4.4.w.r.7 q 4 s c.C.V.M.n.C.V.V.C.F.I.C.|.DX>X2X6XjXkXnX*Xu 7 y 7 y 7 7 5 .XBX<XnX{.D.U.F.D.F.F.C.m.& , 2 5 5.8.e.3.6.9.t.9.8.3.w.w.r.w.q.r.w.",
"4.4.8.r.# 7 > s S.N.P.K.P.P.G.P.J.J.P.x.{.NXnXcXzX7XnXZX;X3 : 2 3 2 3 8 $ oXCX<XAX{.k.S.Z.C.K.J.G.V.y 5 5 8 7.8.,.8.8.,.,.e.r.9.>.4.-.r.u.u.w.",
"r.r.r.8.1 2 O s C.K.J.S.C.A.D.S.K.D.D.z.|.NX5XbX6XnXkXMX*X, 5 8 3 2 8 8 $ XXDX,XAX{.G.D.P.n.J.L.K.j.* 8 2 7 8.w.4.r. ._ ' _ | 8.r.2.8.8.r.r.3.",
"4.4.4.r.o 8 2 a m.P.G.S.S.S.K.N.N.K.P.m.{.DXnXBXvXmXbXBX*X4 2 O 8 * + = . XXAX>XSX|.l.D.D.P.S.L.C.m.a O 2 8 r.r.3.7.} ^ ^ ~ | u.w.4.r.r.r.8.8.",
"4.4.4.r.O 3 = 2 g g s g g s s p s g g g h k k j k f k G f 2 2 u 2 ] [ [ :.B h k k h p g s s g p p p 2 5 2 4 r.r.0.0. .) / / | r.w.4.r.r.r.r.8.",
"w.w.r.r.$ 2 7 6 6 + O 2 2 2 2 2 : : 2 2 2 o $ + : O + : O 2 2 & 7 :.y.y.f.l # 2 o : : 2 + : 5 : , 2 : 3 2 3 r.4.1.<.} _ ~ ) | q.w.w.r.w.r.r.r.",
"r.r.r.r.& 4 4 3 0 0 q 3 3 q q * * 7 7 2 4 w 4 3 q 3 7 8 7 - 7 , 7 :.w.,.9.l 6 3 3 7 y y 8 3 O * 0 q 5 q 3 : r.4.7.9.w.+.....+.9.w.w.r.w.w.w.w.",
"r.r.r.r.@ # % $ $ % % 1 o ; % X $ % = % $ # $ 1 $ 5 $ ; - # 1 % X 8.8.8.r.l @ % ; + + ; 1 = ; % 1 $ $ $ % & r.4.2.4.r.w.r.r.w.8.r.r.r.r.r.r.8.",
"r.r.r.r.r.r.r.r.4.4.4.8.4.4.4.w.2.9.8.4.8.8.8.4.9.c w.v c r.i.i.8.r.8.4.w.r.r.r.4.r.w.w.e.e.8.w.4.4.8.r.8.8.8.4.u.r.4.3.5.4.r.r.8.r.r.r.r.8.8.",
"r.r.8.r.r.r.r.r.r.r.r.r.8.-.4.8.3.1.r.r.r.8.9.8.5.;.;.9.8.4.2.2.8.r.r.r.w.w.4.w.w.r.9.5.r.8.8.w.4.r.8.8.r.8.8.8.r.r.w.4.8.8.4.4.r.r.r.r.r.8.8."
};
