/* XPM */
static char *a480252c80584bfceb121d236948299fHGIbcNpj79HdeXMj[] = {
/* columns rows colors chars-per-pixel */
"72 71 252 2 ",
"   c #5D3701",
".  c #692D07",
"X  c #663502",
"o  c #6C3504",
"O  c #653A01",
"+  c #6B3A05",
"@  c #6C350A",
"#  c #6D3A0B",
"$  c #663609",
"%  c #723402",
"&  c #733A0A",
"*  c #6D3810",
"=  c #793A16",
"-  c #732E00",
";  c #753222",
":  c #29561B",
">  c #02651B",
",  c #045C2D",
"<  c #025E32",
"1  c #025D3A",
"2  c #075936",
"3  c #265624",
"4  c #016925",
"5  c #01642C",
"6  c #016B2C",
"7  c #056529",
"8  c #03742D",
"9  c #0B752A",
"0  c #026534",
"q  c #0A6534",
"w  c #026A34",
"e  c #0A6B35",
"r  c #02653B",
"t  c #026A39",
"y  c #0B6A3B",
"u  c #0B623B",
"i  c #146A36",
"p  c #027233",
"a  c #057A33",
"s  c #0C7B34",
"d  c #04733C",
"f  c #0B7737",
"g  c #197836",
"h  c #14712B",
"j  c #396835",
"k  c #396736",
"l  c #257837",
"z  c #2F7A2C",
"x  c #5F4400",
"c  c #6A4208",
"v  c #74420C",
"b  c #754409",
"n  c #744212",
"m  c #784412",
"M  c #6C4F0C",
"N  c #085E4E",
"B  c #036542",
"V  c #026A42",
"C  c #0A6743",
"Z  c #087443",
"A  c #167544",
"S  c #096949",
"D  c #257D45",
"F  c #8D5C2B",
"G  c #915E2E",
"H  c #9C592D",
"J  c #935F32",
"K  c #9B5B36",
"L  c #8D5B36",
"P  c #A15E33",
"I  c #956134",
"U  c #996335",
"Y  c #97613B",
"T  c #986638",
"R  c #8D6233",
"E  c #A36138",
"W  c #A75943",
"Q  c #A06140",
"!  c #9F5C42",
"~  c #368D1C",
"^  c #0B852D",
"/  c #13892D",
"(  c #1B9C2B",
")  c #0C8335",
"_  c #0E8239",
"`  c #0D8A34",
"'  c #128535",
"]  c #138C33",
"[  c #12833A",
"{  c #178E3B",
"}  c #1C9C34",
"|  c #1C9B3A",
" . c #189537",
".. c #0E933A",
"X. c #398929",
"o. c #3A912B",
"O. c #288832",
"+. c #398A34",
"@. c #229D3B",
"#. c #298727",
"$. c #1DAC2C",
"%. c #1AA82C",
"&. c #1CA433",
"*. c #13AB33",
"=. c #1DAB34",
"-. c #1EA43A",
";. c #1EAB3A",
":. c #12A731",
">. c #1CB338",
",. c #1DB32E",
"<. c #23AB2D",
"1. c #26AC2C",
"2. c #23B12D",
"3. c #27B42A",
"4. c #23A534",
"5. c #23AC35",
"6. c #29AC35",
"7. c #23A53B",
"8. c #23AC3A",
"9. c #29AD3B",
"0. c #2AA538",
"q. c #32AC3B",
"w. c #23B234",
"e. c #29B234",
"r. c #24B13B",
"t. c #2AB13B",
"y. c #27B93A",
"u. c #38B43C",
"i. c #18800D",
"p. c #569D1C",
"a. c #7E9317",
"s. c #7D8816",
"d. c #7AB61C",
"f. c #6BAF1A",
"g. c #569A2C",
"h. c #569A26",
"j. c #48952D",
"k. c #56A32D",
"l. c #6AAA28",
"z. c #6BB325",
"x. c #79B723",
"c. c #73AC2C",
"v. c #5BA129",
"b. c #7EC218",
"n. c #7CC226",
"m. c #1B9745",
"M. c #108545",
"N. c #3B8A4D",
"B. c #249945",
"V. c #2C8C4E",
"C. c #1BA846",
"Z. c #24AC42",
"A. c #2AAC43",
"S. c #27A645",
"D. c #38AD45",
"F. c #25B142",
"G. c #2CB444",
"H. c #37B344",
"J. c #4D9B54",
"K. c #4C954F",
"L. c #48B54B",
"P. c #52B74E",
"I. c #4DBA52",
"U. c #59B855",
"Y. c #4FA753",
"T. c #66BA57",
"R. c #72B05D",
"E. c #6CB266",
"W. c #73B266",
"Q. c #7DBD6B",
"!. c #73BA68",
"~. c #6EB16C",
"^. c #5DA269",
"/. c #54C85C",
"(. c #65C25E",
"). c #77C55F",
"_. c #7AC569",
"`. c #858718",
"'. c #869B18",
"]. c #8E9012",
"[. c #88A51B",
"{. c #8CBE1C",
"}. c #89BA19",
"|. c #94BE1C",
" X c #97BD18",
".X c #89B10B",
"XX c #899D20",
"oX c #8EA721",
"OX c #8CBE22",
"+X c #87BB27",
"@X c #92BE23",
"#X c #93BD2B",
"$X c #98B927",
"%X c #98A828",
"&X c #88C50D",
"*X c #93C50E",
"=X c #8DC413",
"-X c #86C31C",
";X c #8EC21E",
":X c #8CCA1C",
">X c #89C914",
",X c #93C513",
"<X c #99C414",
"1X c #92C31D",
"2X c #9AC51C",
"3X c #94CB1C",
"4X c #9ACB1B",
"5X c #98CA16",
"6X c #93D319",
"7X c #A2D31C",
"8X c #A1CE15",
"9X c #8EC222",
"0X c #8CC922",
"qX c #88C427",
"wX c #91C321",
"eX c #99C524",
"rX c #93CB23",
"tX c #96C62D",
"yX c #94C42B",
"uX c #98C62C",
"iX c #95CA2B",
"pX c #99C92E",
"aX c #9AC924",
"sX c #98D426",
"dX c #9AC631",
"fX c #97C932",
"gX c #91CE2E",
"hX c #A3C926",
"jX c #81BE6B",
"kX c #89BD6B",
"lX c #8AB974",
"zX c #91BD70",
"xX c #83C36C",
"cX c #8CC46D",
"vX c #8BCA6D",
"bX c #85C667",
"nX c #96C76A",
"mX c #85C672",
"MX c #8CC572",
"NX c #8DCA74",
"BX c #8ECB79",
"VX c #87C877",
"CX c #93C473",
"ZX c #93CB73",
"AX c #94C979",
"SX c #9BCB7A",
"DX c #99C676",
"FX c #96D377",
"GX c #90D46F",
"HX c #88CA5E",
"JX c #94C683",
"KX c #8DD082",
/* pixels */
"wXuXdXdXtXtXtXiXtXtXpXpXtXyXwX9X{.;X9X=X0X XqXwX-Xe 0 u V 6 t 0 0 0 0 0 w 0 0 0 6 r 6 t t 6 ;X}.tX>X1X0X-XwX1XwXwXwXwXwXwXwXwXwX1XwXwXwXwXwXwXwX",
"{.wXtXdXdXdXtXtXtXtXuXtXtXyX9X9X@X;XOXeXqX X-XeX+XA q 7 r 0 0 y t t t t t w w t r r q r 1 C d.iX$X9X@XwX:X1X;XqXwXwXwXwXwXwXwXwXwXwXwXwXwXwXwXwX",
"OXOXyXtXpXpXpXtXpXpXtXyXwX9XOX{.wXeXOX@X+X1X:X:X&X7 t d V w w t 0 0 0 0 0 0 0 0 t 6 w p w q qX|..X:X1X@XeX1X1XwXwXwXwXwXwXwX;X;XwXwXwXwXwXwX9X1X",
"yXOXOX9XwXtXpXdXuXtXyXwX9X9X{.{.{.:X1X<X2X@XeX|.x.h < 0 1 0 w < r r r r r r r r 0 0 r r 0 h x.:XyXqXeXwXOX{.:X0XwXwXwXwXwXwXwXwXwXwXwXwXwX9XwXwX",
"tXyXOX{.{.@XwXyXwX9X9XOX{.;XwXwX1X1XyX=Xx.g g g l E.!.W.W.E.~.!.W.W.W.W.W.W.W.W.~.~.R.W.W.~.l l l h x.rX9XeX@X|.wXwXwXwXwXwXwXwXwXwXwXwXwXwXwXwX",
"pXtXwXOXOXOXOXOX9X;X{.{.{.{.1X1X{.+XyX*Xd., 2 , y _.GXDXnXvXZXnXZXZXZXZXZXZXZXZXHXZXZXSXAXmX9 w S , z.3X+XwXqX:X1X1X;X;X;XwXwXwXwXwXwXwXwXwXwXwX",
"iXiXtXyXwXOX{.;X9X9X;X;X;X1X1X1X{.9XyX,Xx.V C 0 f Q.BXJXlXmXBXBXMXMXMXMXMXMXMXMXvXMXxXmXVXlXA 1 w 4 z.5X9X1X|.=XwX1X1X1X;XwXwXwXwXwXwXwXwXwXwXwX",
"eXtXtXtXyXOX{.;X{.{.;XwXeXeXeXaX3X4X3X4Xx.0 4 4 7 jXvXbXnXAXcXZXAXAXAXAXAXAXAXAXJXDXAXZXZXAX6 0 r C c.5XrX5XiXrXrXeXwX1X1XwXwXwXwXwXwXwXwXwXwXwX",
"tXdXdXuXyXwX9X;X$X;X9X1Xv.X.~ +.~ X.+.o.o.^.^.J.Y.mXMXcXDX/.L.P.P.P.P.P.P.P.P.P.I.I.I.I.I.L.@./ ] { O.X.o.X.X.+.X.j.p.@X0X=X@X0X;X;XwXwXwXwXwXwX",
"tXdXdXyXwX{.}.}.wX;X}.4Xj.< r r r B B 0 g VXFXZXAXCXxXAXCXG.*.*.=.&.&.&.&.&.=.&.5.5.&.&.=.;.;.Z.,.r.s r r r B 0 q 2 X.hX;X=XuX0XwXwXwXwXwXwXwXwX",
"tXuXtXyXwXwXwXwX{.#X$X4X~ w Z t y 7 0 r A BXnXnXSXcXmXNXcXD.0.9.0.0.0.0.0.0.0.0.5.5.5.6.6.8.8.8.8.y.6 B w y B 6 p N +.2X}.#X#X{.wXwXwXwXwXwXwXwX",
"pXuXtXwXOX{.;X;X4X3X5X7Xj.< 1 7 0 7 7 < g VXvXcXcXNXSXDXZXL.5.8.8.8.8.8.8.8.8.8.8.5.6.6.6.6.4.4.A.t.p C 6 5 1 4 6 1 o.7X4XrXyX<XwXwXwXwXwXwXwXwX",
"iXtXwX9X{.{.;X1Xl.j.h.h.K.K.N.K.V.N.N.N.K.VXCXAXvX(.U.T.U.G.:.*.8.8.8.8.8.8.8.5.;.8.r.8.8.5.8.t.&.;.] s ^ _ M._ ^ s O.p.v.h.k.wXwXwXwXwXwXwXwXwX",
"wXwX9X9X;X;XwXeXl r B 2 J.GXGXNXGXZXZXFXZXCXcXBXbX9.:.>.5.5.9.q.5.5.5.5.5.5.5.5.=.;.8.8.8.;.=.=.w.>.9.6.w.e.9.5.q.H.m., r , g OXwXwXwXwXwXwXwXwX",
"wX;X;X;X;X;X{.|.l w p 1 J.NXcXAXbXCXCXbXbXvXmX_.cXF.8.r.0.0.8.=.8.8.8.8.8.8.8.8.r.8.5.4.8.9.r.r.3.$.4.A.;.5.4.6.8.$...e t 5 9 ,XwXwXwXwX;X;X;X;X",
";X{.;XwXyXwXeXeXz 5 4 2 J.FXCXCXNXAXAXVXVXDXDXSXxXG.0.4.t.=.=.r.8.8.8.8.8.8.8.8.5.6.8.8.8.5.5.5.Z.F.8.9.$.>.Z.Z.8.w.] 7 1 C g 2XwXwXwXwXwXwX;X;X",
"|.1X0XqXx.c.l.z.V.D D g ^.SXxXZXbX(._.!.(.).)._./.G.4.8.8.8.r.=.w.&.| @.| | w.;.8.-.6.8.=.2.m.| @.m.=.,.7.7.F.1.6.S.| 8 f d i.z.z.f.c.;X0X$X1X0X",
"qX}. X0X7 t y 2 E.SXnXMXBXzXcXnXT.8.8.7.=.5.4.0.q.0.5.r.=.5.r.r.7.' 0 0 0 _ 9.A.r.8.w.8.8.%.p > w t } w.e.<.=.<.6.9.e.4.6.G.B.u N 0 q x.3X$X@XeX",
";X{.fX}.A 7 y r T.SXCXmXvXvXmXBXT.=.&.8.8.9.0.>.0.5.8.r.5.=.5.5.r.' 0 r w ) 2.$.8.5.5.5.A.0.V q 6 6 } 5.8.8.C.8.Z.&.$.Z.;.=.4.5 7 e q n.0XyXqX}.",
"wX*X1X{.C q u > E.KXVXmXMXSXBXAX(.=.w.9.8.9.4.>.9.8.=.=.8.8.8.=.9.' 0 u r _ e.6.8.5.w.5.8.4.t 0 w t m.Z.7.r.=.5.=.r.=.F.r.2.4.r y w q +X1X*X0X4X",
"+X{.=Xd.h V Z d E.KXmXFXcXbXcXcXU.&.;.4.*.>.6.2.5.8.8.=.8.8.8.8.8.' w w w ) 8.8.A.4.6.5.=.&.a 6 t w  .r.6.3.&.S.S.S.-.$.=.9.B.d t 4 g c.#X}.x.+X",
"y t d i Q.kXcXQ.nXCXzXcXP.w.5.G.V.w t y a C.S.S.5.8.8.5.5.5.5.;.y.8.7.0.-.;.w.;.A.<.8.5.=.w.C.S.9.7.6.w.7.5.` y w 7 ' e.Z.S.8.=.8.=.C.9 w 9 f y ",
"5 5 r B zXZXAXvXBXxXFXZXI.;.} t. .4 0 0 9 ;.w.5.5.5.5.8.8.9.8.8.6.4.A.6.5.8.<.S.5.e.Z.8.8.w.8.t.2.9.<.;.Z.G.] , e 0 M.e.=.5.8.>.5.6.8.q q < w r ",
"0 C q 8 zXNXbXMXCXMXmXAXU.&.u.>.{ 7 V V h 8.5.5.6.8.8.8.5.8.8.;.w.=.F.w.=.>.$.A.=.e.-.7.9.6.5.6.=.A.6.;.8.6.^ 0 w 0 s 5.Z.6.5.2.8.9.=.w d r w w ",
"0 t w w jXBXcXNXvXAXDXCXI.*.8.D.] 8 V 0 s S.4.8.Z.5.8.5.5.8.6.8.8.8.5.8.5.5.8.8.8.8.8.5.5.8.8.8.;.-.9.5.S.8.M.6 w 4 ^ 7.9.8.8.5.6.Z.8.w 0 w 0 t ",
"0 t w w jXAXcXNXP.H.D.L.A.;.8.;.4.} @.} 4.t.<.w.8.5.8.5.5.8.5.8.8.8.5.8.5.5.8.8.8.8.8.5.5.5.8.8.=.=.9.5.8.2.7.( B.| 7.9.8.=.5.5.6.Z.8.w 0 w 0 t ",
"0 t w w jXAXMXBXH.*.*.=.8.9.0.8.8.6.e.6.5.6.5.8.Z.6.5.=.8.S.8.8.8.8.8.8.8.8.8.8.8.8.8.5.5.8.8.8.6.8.8.5.=.2.9.t.Z.;.;.5.=.8.8.8.6.Z.8.w 0 w 0 t ",
"0 t w w jXBXMXBXL.8.r.9.8.8.0.8.8.8.5.=.;.;.Z.Z.5.5.<.5.;.;.5.5.8.8.8.8.8.8.8.8.8.8.8.5.5.8.8.8.5.4.5.5.5.=.-.-.=.=.w.w.;.8.8.5.6.Z.8.w 0 w 0 t ",
"0 t w w jXBXMXBXD.8.8.8.;.>.8.5.6.6.;.8.r.5.6.8.w.8.6.t.8.8.e.6.5.8.8.8.8.8.5.5.8.8.8.5.5.8.8.8.6.6.5.t.G.8.8.r.9.8.5.8.8.8.5.5.6.Z.8.w q w 0 t ",
"0 t w w jXBXMXBXD.8.=.8.8.;.9.8.<.6.8.Z.6.<.6.5.4._ ) ) _ -.8.8.5.8.8.8.8.8.5.5.8.8.8.5.5.8.8.8.6.8.] _ _ ) ( w.0.7.4.8.8.8.5.w.6.Z.8.w 0 w 0 t ",
"0 t w w jXBXMXNXH.;.r.8.4.8.0.9.8.8.9.8.8.8.8.8.7.V 0 0 t | Z.S.5.5.8.8.8.8.5.5.8.8.8.5.5.8.8.8.9.A.a r 0 0 / r.8.8.6.8.8.8.8.5.6.Z.8.w 0 w 0 t ",
"0 t w w Q.BXMXNXH.&.r.8.;.F.=.8.Z.5.1.<.5.Z.8.=.<.t y q w ( 6.8.5.5.8.8.8.8.8.8.8.8.8.5.5.8.8.8.$.9.8 0 e B ] A.;.r.5.5.5.8.8.8.6.Z.8.w 0 w 0 t ",
"t t q e Q.BXcXZXL.=.8.8.>.t.r.>.A.6.5.=.8.w.5.r.8.5 B 1 5 | 6.8.5.Z.8.5.6.8.t.t.9.r.8.=.5.6.8.F.<.Z.a 0 r 0 { A.=.5.8.9.5.5.8.8.8.t.0.w 0 0 6 V ",
"0 0 0 q Q.MXcXZXH.&.8.8.}  .{ .. .5.r.F.8.5.=.=.5.' [ ' ^ &.<.8.5.8.8.5.5.| { ] ]  .8.5.5.8.8.8.$.8.] ' [ ^ } 8.=.8.5.4.=.5.8.8.=.5.0.w t q 4 t ",
"t t q e xXBXMXAXH.;.6.5._ 4 5 r ) 5.5.Z.6.6.8.r.w.A.0.6.8.=.y.A.<.1.8.8.9.{ r 0 4 8 7.6.8.8.8.5.r.t.8.9.9.5.6.r.8.r.9.8.8.8.5.6.w.=.8.w t r 5 r ",
"w w 0 q Q.BXMXAXD.C.6.9.M.< q u _ 9.4.Z.<.6.Z.5.;.8.<.5.r.;.8.7.Z.5.8.;.e.{ r q r p A.5.5.8.8.6.8.;.5.5.5.8.8.=.8.8.5.8.8.8.5.1.8.;.Z.w w q 4 6 ",
"w w 0 q Q.BXMXAXu.;.1.6.M.0 w B a 6.5.Z.<.5.8.5.Z.5.5.8.8.Z.8.5.8.<.8.8.e.{ r 0 r 8 Z.=.8.8.8.5.9.5.8.8.;.8.8.8.8.8.5.5.8.8.8.9.w.8.9.p w r q r ",
"t t q e xXBXMXAXu.=.1.6...a a d ] 6.5.Z.6.6.8.8.8.<.8.8.=.8.5.<.5.<.8.5.2.| a s d ^ 8.5.r.8.5.5.<.<.5.8.=.8.5.5.8.8.8.8.8.8.7.| ( } } p w B r r ",
"w 0 0 q Q.NXcXMXD.C.8.t.;.6.6.8.A.t.5.;.8.8.5.=.6.5.r.Z.5.6.5.2.A.S.Z.5.<.6.8.6.A.8.r.5.5.5.8.t.5.6.6.6.5.5.5.5.5.5.8.8.5.8. .8 w t w 0 4 0 6 6 ",
"y y 0 e xXBXMXCXH.=.8.8.=.6.8.8.5.5.w.=.Z.8.5.8.=.w.;.8.e.6.8.8.<.8.8.t.5.8.8.&.1.5.5.6.6.5.5.8.;.Z.8.5.5.5.8.8.w.8.Z.8.$.t.B.w y r 5 y w r r t ",
"w y 6 V ).AXNXBXH.4.9.5.5.5.5.5.6.5.t.7.8.1.5.F.6.8.8.8.8.8.8.;.5.8.8.8.8.8.8.8.;.8.6.w.6.5.8.;.8.8.5.r.5.8.8.0.w.8.6.5.;.r.} 6 w N p 0 w 6 0 r ",
"p Z q i !.mXjXkXG.8.8.;.8.Z.S.A.0.4.9.8.9.%.$.&.7.6.5.=.6.e.6.5.8.8.8.8.8.8.8.8.5.5.-.0.0.7.w.5.8.8.5.5.5.5.5.5.;.8.0.0.7.8.{ t 6 1 0 h e e y t ",
"}.}.OX+Xi Z Z y @.8.8.5.5.5.<.<.r.;.r.8.| 8 e 6 p 7.8.Z.8.8.Z.8.8.8.8.8.8.8.8.8.8.-.p w w p 7.8.6.5.5.5.r.8.w.5.>.8.{ t t p w 0 r u h f.n.b.}.-X",
",X0XeX}.g 6 4 q &.9.=.8.=.8.8.8.8.=.$.w.B.w y 5 V 0.6.;.w.5.8.5.8.8.8.8.8.8.8.5.8.4.0 r r t 7.8.5.5.8.5.6.5.5.=.>.e.{ 5 5 4 0 q w q y d.tXyX@X1X",
"2X-XiX#Xe 0 t r ( 9.=.=.=.=.8.8.8.5.$.e.S.0 r 0 V 0.e.8.w.5.8.6.8.5.8.8.8.8.8.5.r.4.0 r r t 0.8.6.6.8.5.6.5.8.8.=.t.m.r y r r r t q r b.0X;X0X:X",
"1X=X&XOX9 y r 0 @.A.A.A.9.9.6.5.8.r.$.r.m.w r 0 p 4.8.Z.8.5.Z.8.5.5.8.8.8.8.8.5.Z.} w 6 5 p 7.Z.6.8.8.5.6.8.A.S.<.6.] 0 r q 6 6 0 q q &X1X1X9XOX",
"{.@XiX+Xs 5 w t s 8 a 8 p d d d ] 0.<.6.8.&.&.&.-.6.5.=.5.6.5.5.5.5.8.8.8.8.5.5.=.=.} } } } 5.=.6.8.8.=.=.7.{ s f f 8 6 r q 0 r w t t +XtX1XeX2X",
"qX@X,X;Xd C 0 0 r 0 y 0 w 0 0 5 ) A.8.8.8.t.6.8.5.8.F.8.8.8.8.8.5.5.8.8.8.8.5.5.8.8.6.r.6.6.8.8.5.8.=.>.w.9.' 5 0 r 5 t B y 7 y 0 0 6 +XeX=X9X9X",
"9X-XwX;XZ w w w e 0 t V 0 6 w r s w.*.8.0.0.=.;.7.8.8.8.8.8.8.5.8.8.8.8.8.8.8.8.;.8.8.=.8.8.=.8.6.;.S.D.&.F.) 0 w r r r w B y 6 t w e b.eXwX:X;X",
"2X=XeX@Xi , u 0 1 r r , < t q 0 ' e.>.r.w.r.w.w.w.w.w.w.w.w.w.w.w.w.w.w.w.w.w.w.w.w.w.w.w.w.w.w.t.>.2.3.3.y.' w w 6 y q 5 w q 4 2 7 i x.@XwXwXwX",
"@X9XwX|.g.g.g.k.g.k.g.h.O.V 5 r e ^ _ ) ] _ ' [ [ [ _ [ _ s [ _ _ _ _ _ _ _ _ _ ) [ s [ [ s [ ) g _ ' 9 _ _ y < 0 t g p.g.g.g.g.g.h.g.qXwX1X9XwX",
"OXqX-X1XrXaX5X6X<X=X<X8Xj.r 4 t 0 w r r w 0 0 1 r 0 0 r 0 0 r 0 0 0 0 0 0 0 0 0 0 0 0 r 0 < r 0 < 0 r r r r t w y B +.8XhX4XwXhXrX>XqX;X1X1X9X9X",
"1X-X:XwX1X|.eX;XwX;X X8XX.r q 0 0 r C y w t w r w w w w w w w w w w w w w w w w w w w q 0 0 w w w t 0 t q y t t u 5 +.aX{.&X;X=X@X,XyXOXwX1XwX;X",
"|.1XwX9X1X-XOXqXyXqX9XtXo.1 0 r 0 r < 7 6 y w w 0 t t 0 0 0 y t r t t t t t t t w 0 r r r y w w w q 0 0 u 2 < r q 5 +.gXqX:X9X;XOXwXyXOX9X1XeX;X",
"@XtX@X}.aX:X=X:X X=X;XyXl.X.X.+.o.+.#.~ X.3 : 3 3 k k k k k k k k k k k k k k k k k k k k k 3 : 3 : z o.X.X.X.o.~ #.h.4X1XwX|.wX:XwX1X;X0X@XeX0X",
":X-XwX:X$X9XeX$X{.rX:X{.aX3XrX2X2X2XaX7X%X+ - & & H P P E P K P P P P P P P P P E K E P E H & % ; o oXsX3XwXsX;XiXsXwXuX}.eX@X0X-XyX1X:X0X@XeX0X",
"wXwXwXwXwXwXwXwX1XwXwXwXwXwX;X{.9XwX@XwX[.c O + # G J I U U J J J J J J J J J J I J U U J G n +     [.3X@XOX@XOX9X;X;X1X1XwXwXwXwXwXwXwXwXwXwXwX",
"wXwXwXwXwXwXwXwX1XwXwX;XwXwXwX;X9X0X:XsX[.X $ @ # I I I J I I U U J U U J J J J U J J J U G # X & $ [.>X:X3X;X0X9X;XwX1X1XwXwXwXwXwXwXwXwXwXwXwX",
"wXwXwXwXwXwXwXwXwXwX;X;X;XwXwXwXyX@X}.eXoX@ = & $ J I I I U I U U U U U U U J J I U J U T G # X = . XX3X{.1X1X{.wXwXwX1X1XwXwXwXwXwXwXwXwX1XwXwX",
"wXwXwXwXwXwXwXwXwXwXwX;XwXwXwXwX>XwXuXwX[.O O   @ J I G U U J J U U U U U U U J J U U U U G # $ + O [.3X9X}.aX1XwXwXwXwXwXwXwXwXwXwXwXwXwXwXwXwX",
"wXwXwXwXwXwXwXwX1XwXwXwXwXwXwX9X1XeX1X1XoX# + + # I I J J J J U U U U J U U U U J U J J U G # # X $ '.3XyXOX@XOXwX9X9XwXwXwXwX;XwXwXwXwXwXwXwXwX",
"wXwXwXwXwXwXwXwX1X;XwXwXwX;X;X9X$XeX&X6XoX. . @ @ F I T J J J U U U U J U U U U U U J I T G # X = . oX:X0XrXeX9X1X9X9XwXwXwXwX1XwXwXwXwXwXwXwXwX",
"wXwX1XwXwXwXwXwXwX;XwXwXwX;XwXwXwX}.@X@X'.c c c n F J T U J U J U U J J J J U J J J U U U I m * c $ '.@X$X}.1X>X1XwXwXwXwXwXwX1XwXwXwXwXwXwXwXwX",
"wXwXwXwXwXwXwXwXwX;X;XwXwXwXwXrXa.x = # M J F K G T G I J J U J U U J J J J J J U J U I J T F J F ! b O m x `.dX1XwXwXwXwXwXwX1XwXwXwXwXwXwXwXwX",
"9X9X9X9X9X9X9X9X;XwXwXwXwX;X;XrX].. @ * c G U U U U I I I I I I U J U U J J U U U J U Y I U T I W G n O o . `.gX9X9XwXwXwXwXwXwXwX9X0X;X1X1XyXqX",
"1X1X1X1X1X1X1X1X;XwX9X9XyX9X0XiXa.  b X c E R R J J I I J J J J U J U U U J U U U J I I I I U I L T # X & X s.gX;X;X1X1X1X1X1X1X1XwX0XwX1XwXwX9X",
"9XwXwXwXwXwXwXwX1X1X1X1X1X;X1XrXs.  O . b W K Q K Y Y Y Y Y Y Y U I U U I I U U U I I I U U I U K E & $ &   `.2X9X9X9XwXwX9X9X9X1X;X9X9XwX1XwX;X",
";X9XwXwX1X1X1X1X9X9XyXyX9XOX9X9X+XXX[.oXa.M c c v v v v v v v v v v v n n n n n n n n & m v & n c c `.[.[.[.}.rX;X1X;X1X1X;X;X;X1XwX9XwXwXwXwXwX",
"9X9X9X;X;X1X1X1X;X;X1X1X1X1X1X1XeXeX1XsX[.  X % O O O O O O O O X $ $ $ $ $ $ $ $ @ $ $ @ $ X $ # X oXsX=XrX|.@X9XwXwXwXwX9X;X9X:X9X9X9X9X9X9XwX",
"wXwXwXwXwXwXwXwXwXwXwXwXwXwXwXyXOX-X}.rX}.# * @ * * * * # # # # $ # # + # # + # # # # # # # $ @ + o XX0XOX9X1X1XwXwXwXwXwX9X9X9X1X1X1X;X;X;X;X1X",
"<X<X<X,X,X,X5X5X1X4X5X5X5X5X,X,X=X>X,X5X.Xo o % o o % % % % o o X o o X o o o % o o o o o o o X o % [.*X X&X=X>X,X,X,X,X,X,X=X=X2X2X2X4X5X5X1X2X"
};
